solid 3D Shape01077734 A.1 
  facet normal 0.000000e+00 9.063078e-01 4.226184e-01
    outer loop
      vertex 1.800000e+02 8.743269e+00 6.250000e+00
      vertex 9.000000e+01 8.743269e+00 6.250000e+00
      vertex 1.800000e+02 7.068269e+00 9.842049e+00
    endloop
  endfacet
  facet normal 0.000000e+00 9.063078e-01 4.226184e-01
    outer loop
      vertex 9.000000e+01 5.828846e+00 1.250000e+01
      vertex 1.800000e+02 7.068269e+00 9.842049e+00
      vertex 9.000000e+01 8.743269e+00 6.250000e+00
    endloop
  endfacet
  facet normal 0.000000e+00 9.063078e-01 4.226183e-01
    outer loop
      vertex 1.800000e+02 5.828846e+00 1.250000e+01
      vertex 1.800000e+02 7.068269e+00 9.842049e+00
      vertex 9.000000e+01 5.828846e+00 1.250000e+01
    endloop
  endfacet
  facet normal -0.000000e+00 9.063079e-01 4.226182e-01
    outer loop
      vertex 9.000000e+01 8.743269e+00 6.250000e+00
      vertex 1.800000e+02 8.743269e+00 6.250000e+00
      vertex 9.000000e+01 1.165769e+01 0.000000e+00
    endloop
  endfacet
  facet normal -0.000000e+00 9.063079e-01 4.226182e-01
    outer loop
      vertex 9.000000e+01 1.165769e+01 0.000000e+00
      vertex 1.800000e+02 8.743269e+00 6.250000e+00
      vertex 1.800000e+02 1.165769e+01 0.000000e+00
    endloop
  endfacet
  facet normal -0.000000e+00 9.063078e-01 4.226182e-01
    outer loop
      vertex 0.000000e+00 1.165769e+01 0.000000e+00
      vertex 0.000000e+00 8.743269e+00 6.250000e+00
      vertex 8.600000e+01 1.165769e+01 0.000000e+00
    endloop
  endfacet
  facet normal 0.000000e+00 9.063079e-01 4.226182e-01
    outer loop
      vertex 8.600000e+01 1.165769e+01 0.000000e+00
      vertex 0.000000e+00 8.743269e+00 6.250000e+00
      vertex 9.000000e+01 8.743269e+00 6.250000e+00
    endloop
  endfacet
  facet normal -0.000000e+00 9.063079e-01 4.226182e-01
    outer loop
      vertex 8.600000e+01 1.165769e+01 0.000000e+00
      vertex 9.000000e+01 8.743269e+00 6.250000e+00
      vertex 9.000000e+01 1.165769e+01 0.000000e+00
    endloop
  endfacet
  facet normal -0.000000e+00 9.063078e-01 4.226183e-01
    outer loop
      vertex 0.000000e+00 8.743269e+00 6.250000e+00
      vertex 0.000000e+00 7.043269e+00 9.895662e+00
      vertex 9.000000e+01 8.743269e+00 6.250000e+00
    endloop
  endfacet
  facet normal 7.375067e-09 9.063078e-01 4.226185e-01
    outer loop
      vertex 9.000000e+01 8.743269e+00 6.250000e+00
      vertex 0.000000e+00 7.043269e+00 9.895662e+00
      vertex 0.000000e+00 5.828846e+00 1.250000e+01
    endloop
  endfacet
  facet normal 0.000000e+00 9.063078e-01 4.226184e-01
    outer loop
      vertex 9.000000e+01 8.743269e+00 6.250000e+00
      vertex 0.000000e+00 5.828846e+00 1.250000e+01
      vertex 9.000000e+01 5.828846e+00 1.250000e+01
    endloop
  endfacet
  facet normal 0.000000e+00 9.063078e-01 -4.226184e-01
    outer loop
      vertex 1.800000e+02 8.743269e+00 1.875000e+01
      vertex 1.800000e+02 7.068269e+00 1.515795e+01
      vertex 9.000000e+01 8.743269e+00 1.875000e+01
    endloop
  endfacet
  facet normal 0.000000e+00 9.063078e-01 -4.226184e-01
    outer loop
      vertex 9.000000e+01 8.743269e+00 1.875000e+01
      vertex 1.800000e+02 7.068269e+00 1.515795e+01
      vertex 1.800000e+02 5.828846e+00 1.250000e+01
    endloop
  endfacet
  facet normal 0.000000e+00 9.063078e-01 -4.226184e-01
    outer loop
      vertex 9.000000e+01 8.743269e+00 1.875000e+01
      vertex 1.800000e+02 5.828846e+00 1.250000e+01
      vertex 9.000000e+01 5.828846e+00 1.250000e+01
    endloop
  endfacet
  facet normal 0.000000e+00 9.063077e-01 -4.226184e-01
    outer loop
      vertex 0.000000e+00 5.828846e+00 1.250000e+01
      vertex 0.000000e+00 7.043269e+00 1.510434e+01
      vertex 9.000000e+01 5.828846e+00 1.250000e+01
    endloop
  endfacet
  facet normal 6.585623e-09 9.063078e-01 -4.226183e-01
    outer loop
      vertex 9.000000e+01 5.828846e+00 1.250000e+01
      vertex 0.000000e+00 7.043269e+00 1.510434e+01
      vertex 0.000000e+00 8.743269e+00 1.875000e+01
    endloop
  endfacet
  facet normal 0.000000e+00 9.063078e-01 -4.226184e-01
    outer loop
      vertex 9.000000e+01 5.828846e+00 1.250000e+01
      vertex 0.000000e+00 8.743269e+00 1.875000e+01
      vertex 9.000000e+01 8.743269e+00 1.875000e+01
    endloop
  endfacet
  facet normal 0.000000e+00 9.063079e-01 -4.226182e-01
    outer loop
      vertex 9.000000e+01 1.165769e+01 2.500000e+01
      vertex 1.800000e+02 1.165769e+01 2.500000e+01
      vertex 9.000000e+01 8.743269e+00 1.875000e+01
    endloop
  endfacet
  facet normal 0.000000e+00 9.063079e-01 -4.226182e-01
    outer loop
      vertex 9.000000e+01 8.743269e+00 1.875000e+01
      vertex 1.800000e+02 1.165769e+01 2.500000e+01
      vertex 1.800000e+02 8.743269e+00 1.875000e+01
    endloop
  endfacet
  facet normal 0.000000e+00 9.063078e-01 -4.226182e-01
    outer loop
      vertex 0.000000e+00 1.165769e+01 2.500000e+01
      vertex 8.600000e+01 1.165769e+01 2.500000e+01
      vertex 0.000000e+00 8.743269e+00 1.875000e+01
    endloop
  endfacet
  facet normal 0.000000e+00 9.063079e-01 -4.226180e-01
    outer loop
      vertex 0.000000e+00 8.743269e+00 1.875000e+01
      vertex 8.600000e+01 1.165769e+01 2.500000e+01
      vertex 9.000000e+01 1.165769e+01 2.500000e+01
    endloop
  endfacet
  facet normal 0.000000e+00 9.063079e-01 -4.226182e-01
    outer loop
      vertex 0.000000e+00 8.743269e+00 1.875000e+01
      vertex 9.000000e+01 1.165769e+01 2.500000e+01
      vertex 9.000000e+01 8.743269e+00 1.875000e+01
    endloop
  endfacet
  facet normal 0.000000e+00 -9.063079e-01 -4.226182e-01
    outer loop
      vertex 0.000000e+00 -5.171154e+00 1.250000e+01
      vertex 9.000000e+01 -5.171154e+00 1.250000e+01
      vertex 0.000000e+00 -6.385577e+00 1.510434e+01
    endloop
  endfacet
  facet normal -3.073146e-09 -9.063078e-01 -4.226182e-01
    outer loop
      vertex 9.000000e+01 -8.085577e+00 1.875000e+01
      vertex 0.000000e+00 -6.385577e+00 1.510434e+01
      vertex 9.000000e+01 -5.171154e+00 1.250000e+01
    endloop
  endfacet
  facet normal 0.000000e+00 -9.063078e-01 -4.226183e-01
    outer loop
      vertex 0.000000e+00 -8.085577e+00 1.875000e+01
      vertex 0.000000e+00 -6.385577e+00 1.510434e+01
      vertex 9.000000e+01 -8.085577e+00 1.875000e+01
    endloop
  endfacet
  facet normal 0.000000e+00 -9.063078e-01 -4.226183e-01
    outer loop
      vertex 9.000000e+01 -8.085577e+00 1.875000e+01
      vertex 1.800000e+02 -8.085577e+00 1.875000e+01
      vertex 9.000000e+01 -1.100000e+01 2.500000e+01
    endloop
  endfacet
  facet normal 0.000000e+00 -9.063078e-01 -4.226183e-01
    outer loop
      vertex 9.000000e+01 -1.100000e+01 2.500000e+01
      vertex 1.800000e+02 -8.085577e+00 1.875000e+01
      vertex 1.800000e+02 -1.100000e+01 2.500000e+01
    endloop
  endfacet
  facet normal 0.000000e+00 -9.063078e-01 -4.226183e-01
    outer loop
      vertex 0.000000e+00 -1.100000e+01 2.500000e+01
      vertex 0.000000e+00 -8.085577e+00 1.875000e+01
      vertex 8.600000e+01 -1.100000e+01 2.500000e+01
    endloop
  endfacet
  facet normal 0.000000e+00 -9.063078e-01 -4.226183e-01
    outer loop
      vertex 8.600000e+01 -1.100000e+01 2.500000e+01
      vertex 0.000000e+00 -8.085577e+00 1.875000e+01
      vertex 9.000000e+01 -8.085577e+00 1.875000e+01
    endloop
  endfacet
  facet normal 0.000000e+00 -9.063078e-01 -4.226183e-01
    outer loop
      vertex 8.600000e+01 -1.100000e+01 2.500000e+01
      vertex 9.000000e+01 -8.085577e+00 1.875000e+01
      vertex 9.000000e+01 -1.100000e+01 2.500000e+01
    endloop
  endfacet
  facet normal -0.000000e+00 -9.063078e-01 -4.226182e-01
    outer loop
      vertex 1.800000e+02 -5.171154e+00 1.250000e+01
      vertex 1.800000e+02 -6.410577e+00 1.515795e+01
      vertex 9.000000e+01 -5.171154e+00 1.250000e+01
    endloop
  endfacet
  facet normal 2.673567e-09 -9.063078e-01 -4.226183e-01
    outer loop
      vertex 9.000000e+01 -5.171154e+00 1.250000e+01
      vertex 1.800000e+02 -6.410577e+00 1.515795e+01
      vertex 1.800000e+02 -8.085577e+00 1.875000e+01
    endloop
  endfacet
  facet normal 0.000000e+00 -9.063078e-01 -4.226182e-01
    outer loop
      vertex 9.000000e+01 -5.171154e+00 1.250000e+01
      vertex 1.800000e+02 -8.085577e+00 1.875000e+01
      vertex 9.000000e+01 -8.085577e+00 1.875000e+01
    endloop
  endfacet
  facet normal 0.000000e+00 -9.063078e-01 4.226182e-01
    outer loop
      vertex 1.800000e+02 -8.085577e+00 6.250000e+00
      vertex 1.800000e+02 -6.410577e+00 9.842049e+00
      vertex 9.000000e+01 -8.085577e+00 6.250000e+00
    endloop
  endfacet
  facet normal 3.613152e-09 -9.063078e-01 4.226182e-01
    outer loop
      vertex 9.000000e+01 -8.085577e+00 6.250000e+00
      vertex 1.800000e+02 -6.410577e+00 9.842049e+00
      vertex 1.800000e+02 -5.171154e+00 1.250000e+01
    endloop
  endfacet
  facet normal 0.000000e+00 -9.063078e-01 4.226182e-01
    outer loop
      vertex 9.000000e+01 -8.085577e+00 6.250000e+00
      vertex 1.800000e+02 -5.171154e+00 1.250000e+01
      vertex 9.000000e+01 -5.171154e+00 1.250000e+01
    endloop
  endfacet
  facet normal 0.000000e+00 -9.063079e-01 4.226182e-01
    outer loop
      vertex 0.000000e+00 -5.171154e+00 1.250000e+01
      vertex 0.000000e+00 -6.385577e+00 9.895661e+00
      vertex 9.000000e+01 -5.171154e+00 1.250000e+01
    endloop
  endfacet
  facet normal -3.951375e-09 -9.063078e-01 4.226183e-01
    outer loop
      vertex 9.000000e+01 -5.171154e+00 1.250000e+01
      vertex 0.000000e+00 -6.385577e+00 9.895661e+00
      vertex 0.000000e+00 -8.085577e+00 6.250000e+00
    endloop
  endfacet
  facet normal 0.000000e+00 -9.063078e-01 4.226182e-01
    outer loop
      vertex 9.000000e+01 -5.171154e+00 1.250000e+01
      vertex 0.000000e+00 -8.085577e+00 6.250000e+00
      vertex 9.000000e+01 -8.085577e+00 6.250000e+00
    endloop
  endfacet
  facet normal 0.000000e+00 -9.063078e-01 4.226183e-01
    outer loop
      vertex 9.000000e+01 -1.100000e+01 0.000000e+00
      vertex 1.800000e+02 -1.100000e+01 0.000000e+00
      vertex 9.000000e+01 -8.085577e+00 6.250000e+00
    endloop
  endfacet
  facet normal 0.000000e+00 -9.063078e-01 4.226183e-01
    outer loop
      vertex 9.000000e+01 -8.085577e+00 6.250000e+00
      vertex 1.800000e+02 -1.100000e+01 0.000000e+00
      vertex 1.800000e+02 -8.085577e+00 6.250000e+00
    endloop
  endfacet
  facet normal 0.000000e+00 -9.063078e-01 4.226183e-01
    outer loop
      vertex 0.000000e+00 -1.100000e+01 0.000000e+00
      vertex 8.600000e+01 -1.100000e+01 0.000000e+00
      vertex 0.000000e+00 -8.085577e+00 6.250000e+00
    endloop
  endfacet
  facet normal 0.000000e+00 -9.063079e-01 4.226180e-01
    outer loop
      vertex 0.000000e+00 -8.085577e+00 6.250000e+00
      vertex 8.600000e+01 -1.100000e+01 0.000000e+00
      vertex 9.000000e+01 -1.100000e+01 0.000000e+00
    endloop
  endfacet
  facet normal 0.000000e+00 -9.063078e-01 4.226183e-01
    outer loop
      vertex 0.000000e+00 -8.085577e+00 6.250000e+00
      vertex 9.000000e+01 -1.100000e+01 0.000000e+00
      vertex 9.000000e+01 -8.085577e+00 6.250000e+00
    endloop
  endfacet
  facet normal -1.000000e+00 0.000000e+00 0.000000e+00
    outer loop
      vertex -8.000000e+00 5.328846e+00 -3.552714e-15
      vertex -8.000000e+00 3.288457e-01 0.000000e+00
      vertex -8.000000e+00 5.328846e+00 1.250000e+01
    endloop
  endfacet
  facet normal -1.000000e+00 -0.000000e+00 0.000000e+00
    outer loop
      vertex -8.000000e+00 5.328846e+00 1.250000e+01
      vertex -8.000000e+00 3.288457e-01 0.000000e+00
      vertex -8.000000e+00 3.288455e-01 1.250000e+01
    endloop
  endfacet
  facet normal -1.000000e+00 0.000000e+00 0.000000e+00
    outer loop
      vertex -8.000000e+00 5.328846e+00 1.250000e+01
      vertex -8.000000e+00 3.288455e-01 1.250000e+01
      vertex -8.000000e+00 5.328846e+00 2.500000e+01
    endloop
  endfacet
  facet normal -1.000000e+00 -0.000000e+00 0.000000e+00
    outer loop
      vertex -8.000000e+00 5.328846e+00 2.500000e+01
      vertex -8.000000e+00 3.288455e-01 1.250000e+01
      vertex -8.000000e+00 3.288457e-01 2.500000e+01
    endloop
  endfacet
  facet normal -1.000000e+00 -0.000000e+00 0.000000e+00
    outer loop
      vertex -8.000000e+00 3.288457e-01 0.000000e+00
      vertex -8.000000e+00 -4.671154e+00 -3.552714e-15
      vertex -8.000000e+00 3.288455e-01 1.250000e+01
    endloop
  endfacet
  facet normal -1.000000e+00 -0.000000e+00 0.000000e+00
    outer loop
      vertex -8.000000e+00 3.288455e-01 1.250000e+01
      vertex -8.000000e+00 -4.671154e+00 -3.552714e-15
      vertex -8.000000e+00 -4.671154e+00 1.250000e+01
    endloop
  endfacet
  facet normal -1.000000e+00 0.000000e+00 0.000000e+00
    outer loop
      vertex -8.000000e+00 3.288455e-01 1.250000e+01
      vertex -8.000000e+00 -4.671154e+00 1.250000e+01
      vertex -8.000000e+00 3.288457e-01 2.500000e+01
    endloop
  endfacet
  facet normal -1.000000e+00 -0.000000e+00 0.000000e+00
    outer loop
      vertex -8.000000e+00 3.288457e-01 2.500000e+01
      vertex -8.000000e+00 -4.671154e+00 1.250000e+01
      vertex -8.000000e+00 -4.671154e+00 2.500000e+01
    endloop
  endfacet
  facet normal 3.407993e-01 9.401361e-01 -0.000000e+00
    outer loop
      vertex 0.000000e+00 2.428845e+00 -3.552714e-15
      vertex -4.000000e+00 3.878845e+00 0.000000e+00
      vertex 0.000000e+00 2.428845e+00 1.250000e+01
    endloop
  endfacet
  facet normal 3.407993e-01 9.401361e-01 0.000000e+00
    outer loop
      vertex 0.000000e+00 2.428845e+00 1.250000e+01
      vertex -4.000000e+00 3.878845e+00 0.000000e+00
      vertex -4.000000e+00 3.878845e+00 1.250000e+01
    endloop
  endfacet
  facet normal 3.407993e-01 9.401361e-01 -0.000000e+00
    outer loop
      vertex 0.000000e+00 2.428845e+00 1.250000e+01
      vertex -4.000000e+00 3.878845e+00 1.250000e+01
      vertex 0.000000e+00 2.428845e+00 2.500000e+01
    endloop
  endfacet
  facet normal 3.407993e-01 9.401361e-01 0.000000e+00
    outer loop
      vertex 0.000000e+00 2.428845e+00 2.500000e+01
      vertex -4.000000e+00 3.878845e+00 1.250000e+01
      vertex -4.000000e+00 3.878845e+00 2.500000e+01
    endloop
  endfacet
  facet normal 3.407993e-01 9.401361e-01 -0.000000e+00
    outer loop
      vertex -4.000000e+00 3.878845e+00 0.000000e+00
      vertex -8.000000e+00 5.328846e+00 -3.552714e-15
      vertex -4.000000e+00 3.878845e+00 1.250000e+01
    endloop
  endfacet
  facet normal 3.407993e-01 9.401361e-01 0.000000e+00
    outer loop
      vertex -4.000000e+00 3.878845e+00 1.250000e+01
      vertex -8.000000e+00 5.328846e+00 -3.552714e-15
      vertex -8.000000e+00 5.328846e+00 1.250000e+01
    endloop
  endfacet
  facet normal 3.407993e-01 9.401361e-01 -0.000000e+00
    outer loop
      vertex -4.000000e+00 3.878845e+00 1.250000e+01
      vertex -8.000000e+00 5.328846e+00 1.250000e+01
      vertex -4.000000e+00 3.878845e+00 2.500000e+01
    endloop
  endfacet
  facet normal 3.407993e-01 9.401361e-01 0.000000e+00
    outer loop
      vertex -4.000000e+00 3.878845e+00 2.500000e+01
      vertex -8.000000e+00 5.328846e+00 1.250000e+01
      vertex -8.000000e+00 5.328846e+00 2.500000e+01
    endloop
  endfacet
  facet normal 3.407993e-01 -9.401361e-01 0.000000e+00
    outer loop
      vertex -8.000000e+00 -4.671154e+00 -3.552714e-15
      vertex -4.000000e+00 -3.221154e+00 0.000000e+00
      vertex -8.000000e+00 -4.671154e+00 1.250000e+01
    endloop
  endfacet
  facet normal 3.407993e-01 -9.401361e-01 0.000000e+00
    outer loop
      vertex -8.000000e+00 -4.671154e+00 1.250000e+01
      vertex -4.000000e+00 -3.221154e+00 0.000000e+00
      vertex -4.000000e+00 -3.221154e+00 1.250000e+01
    endloop
  endfacet
  facet normal 3.407993e-01 -9.401361e-01 0.000000e+00
    outer loop
      vertex -8.000000e+00 -4.671154e+00 1.250000e+01
      vertex -4.000000e+00 -3.221154e+00 1.250000e+01
      vertex -8.000000e+00 -4.671154e+00 2.500000e+01
    endloop
  endfacet
  facet normal 3.407993e-01 -9.401361e-01 0.000000e+00
    outer loop
      vertex -8.000000e+00 -4.671154e+00 2.500000e+01
      vertex -4.000000e+00 -3.221154e+00 1.250000e+01
      vertex -4.000000e+00 -3.221154e+00 2.500000e+01
    endloop
  endfacet
  facet normal 3.407993e-01 -9.401361e-01 0.000000e+00
    outer loop
      vertex -4.000000e+00 -3.221154e+00 0.000000e+00
      vertex 0.000000e+00 -1.771155e+00 -3.552714e-15
      vertex -4.000000e+00 -3.221154e+00 1.250000e+01
    endloop
  endfacet
  facet normal 3.407993e-01 -9.401361e-01 0.000000e+00
    outer loop
      vertex -4.000000e+00 -3.221154e+00 1.250000e+01
      vertex 0.000000e+00 -1.771155e+00 -3.552714e-15
      vertex 0.000000e+00 -1.771155e+00 1.250000e+01
    endloop
  endfacet
  facet normal 3.407993e-01 -9.401361e-01 0.000000e+00
    outer loop
      vertex -4.000000e+00 -3.221154e+00 1.250000e+01
      vertex 0.000000e+00 -1.771155e+00 1.250000e+01
      vertex -4.000000e+00 -3.221154e+00 2.500000e+01
    endloop
  endfacet
  facet normal 3.407993e-01 -9.401361e-01 0.000000e+00
    outer loop
      vertex -4.000000e+00 -3.221154e+00 2.500000e+01
      vertex 0.000000e+00 -1.771155e+00 1.250000e+01
      vertex 0.000000e+00 -1.771155e+00 2.500000e+01
    endloop
  endfacet
  facet normal -1.000000e+00 -0.000000e+00 0.000000e+00
    outer loop
      vertex 0.000000e+00 1.165769e+01 2.500000e+01
      vertex 0.000000e+00 8.743269e+00 1.875000e+01
      vertex 0.000000e+00 7.043269e+00 2.500000e+01
    endloop
  endfacet
  facet normal -1.000000e+00 0.000000e+00 0.000000e+00
    outer loop
      vertex 0.000000e+00 7.043269e+00 9.895662e+00
      vertex 0.000000e+00 8.743269e+00 6.250000e+00
      vertex 0.000000e+00 7.043269e+00 0.000000e+00
    endloop
  endfacet
  facet normal -1.000000e+00 0.000000e+00 0.000000e+00
    outer loop
      vertex 0.000000e+00 1.165769e+01 0.000000e+00
      vertex 0.000000e+00 7.043269e+00 0.000000e+00
      vertex 0.000000e+00 8.743269e+00 6.250000e+00
    endloop
  endfacet
  facet normal -1.000000e+00 0.000000e+00 0.000000e+00
    outer loop
      vertex 0.000000e+00 7.043269e+00 1.510434e+01
      vertex 0.000000e+00 7.043269e+00 2.500000e+01
      vertex 0.000000e+00 8.743269e+00 1.875000e+01
    endloop
  endfacet
  facet normal -1.000000e+00 0.000000e+00 0.000000e+00
    outer loop
      vertex 0.000000e+00 5.828846e+00 1.250000e+01
      vertex 0.000000e+00 2.428845e+00 1.250000e+01
      vertex 0.000000e+00 7.043269e+00 1.510434e+01
    endloop
  endfacet
  facet normal -1.000000e+00 -0.000000e+00 0.000000e+00
    outer loop
      vertex 0.000000e+00 7.043269e+00 1.510434e+01
      vertex 0.000000e+00 2.428845e+00 1.250000e+01
      vertex 0.000000e+00 2.428845e+00 2.500000e+01
    endloop
  endfacet
  facet normal -1.000000e+00 0.000000e+00 0.000000e+00
    outer loop
      vertex 0.000000e+00 7.043269e+00 1.510434e+01
      vertex 0.000000e+00 2.428845e+00 2.500000e+01
      vertex 0.000000e+00 7.043269e+00 2.500000e+01
    endloop
  endfacet
  facet normal -1.000000e+00 -0.000000e+00 -0.000000e+00
    outer loop
      vertex 0.000000e+00 5.828846e+00 1.250000e+01
      vertex 0.000000e+00 7.043269e+00 9.895662e+00
      vertex 0.000000e+00 2.428845e+00 1.250000e+01
    endloop
  endfacet
  facet normal -1.000000e+00 0.000000e+00 0.000000e+00
    outer loop
      vertex 0.000000e+00 2.428845e+00 1.250000e+01
      vertex 0.000000e+00 7.043269e+00 9.895662e+00
      vertex 0.000000e+00 7.043269e+00 0.000000e+00
    endloop
  endfacet
  facet normal -1.000000e+00 0.000000e+00 0.000000e+00
    outer loop
      vertex 0.000000e+00 2.428845e+00 1.250000e+01
      vertex 0.000000e+00 7.043269e+00 0.000000e+00
      vertex 0.000000e+00 2.428845e+00 -3.552714e-15
    endloop
  endfacet
  facet normal -1.000000e+00 0.000000e+00 0.000000e+00
    outer loop
      vertex 0.000000e+00 -1.100000e+01 0.000000e+00
      vertex 0.000000e+00 -8.085577e+00 6.250000e+00
      vertex 0.000000e+00 -6.385577e+00 0.000000e+00
    endloop
  endfacet
  facet normal -1.000000e+00 -0.000000e+00 0.000000e+00
    outer loop
      vertex 0.000000e+00 -6.385577e+00 2.500000e+01
      vertex 0.000000e+00 -8.085577e+00 1.875000e+01
      vertex 0.000000e+00 -1.100000e+01 2.500000e+01
    endloop
  endfacet
  facet normal -1.000000e+00 0.000000e+00 0.000000e+00
    outer loop
      vertex 0.000000e+00 -6.385577e+00 1.510434e+01
      vertex 0.000000e+00 -8.085577e+00 1.875000e+01
      vertex 0.000000e+00 -6.385577e+00 2.500000e+01
    endloop
  endfacet
  facet normal -1.000000e+00 0.000000e+00 -0.000000e+00
    outer loop
      vertex 0.000000e+00 -6.385577e+00 9.895661e+00
      vertex 0.000000e+00 -6.385577e+00 0.000000e+00
      vertex 0.000000e+00 -8.085577e+00 6.250000e+00
    endloop
  endfacet
  facet normal -1.000000e+00 0.000000e+00 0.000000e+00
    outer loop
      vertex 0.000000e+00 -5.171154e+00 1.250000e+01
      vertex 0.000000e+00 -6.385577e+00 1.510434e+01
      vertex 0.000000e+00 -1.771155e+00 1.250000e+01
    endloop
  endfacet
  facet normal -1.000000e+00 0.000000e+00 0.000000e+00
    outer loop
      vertex 0.000000e+00 -1.771155e+00 1.250000e+01
      vertex 0.000000e+00 -6.385577e+00 1.510434e+01
      vertex 0.000000e+00 -6.385577e+00 2.500000e+01
    endloop
  endfacet
  facet normal -1.000000e+00 0.000000e+00 0.000000e+00
    outer loop
      vertex 0.000000e+00 -1.771155e+00 1.250000e+01
      vertex 0.000000e+00 -6.385577e+00 2.500000e+01
      vertex 0.000000e+00 -1.771155e+00 2.500000e+01
    endloop
  endfacet
  facet normal -1.000000e+00 0.000000e+00 -0.000000e+00
    outer loop
      vertex 0.000000e+00 -5.171154e+00 1.250000e+01
      vertex 0.000000e+00 -1.771155e+00 1.250000e+01
      vertex 0.000000e+00 -6.385577e+00 9.895661e+00
    endloop
  endfacet
  facet normal -1.000000e+00 0.000000e+00 0.000000e+00
    outer loop
      vertex 0.000000e+00 -6.385577e+00 9.895661e+00
      vertex 0.000000e+00 -1.771155e+00 1.250000e+01
      vertex 0.000000e+00 -1.771155e+00 -3.552714e-15
    endloop
  endfacet
  facet normal -1.000000e+00 0.000000e+00 0.000000e+00
    outer loop
      vertex 0.000000e+00 -6.385577e+00 9.895661e+00
      vertex 0.000000e+00 -1.771155e+00 -3.552714e-15
      vertex 0.000000e+00 -6.385577e+00 0.000000e+00
    endloop
  endfacet
  facet normal -3.370724e-01 9.414787e-01 0.000000e+00
    outer loop
      vertex 1.800000e+02 -1.821154e+00 0.000000e+00
      vertex 1.759500e+02 -3.271154e+00 0.000000e+00
      vertex 1.800000e+02 -1.821154e+00 1.250000e+01
    endloop
  endfacet
  facet normal -3.370724e-01 9.414787e-01 0.000000e+00
    outer loop
      vertex 1.800000e+02 -1.821154e+00 1.250000e+01
      vertex 1.759500e+02 -3.271154e+00 0.000000e+00
      vertex 1.759500e+02 -3.271154e+00 1.250000e+01
    endloop
  endfacet
  facet normal -3.370724e-01 9.414787e-01 0.000000e+00
    outer loop
      vertex 1.800000e+02 -1.821154e+00 1.250000e+01
      vertex 1.759500e+02 -3.271154e+00 1.250000e+01
      vertex 1.800000e+02 -1.821154e+00 2.500000e+01
    endloop
  endfacet
  facet normal -3.370724e-01 9.414787e-01 0.000000e+00
    outer loop
      vertex 1.800000e+02 -1.821154e+00 2.500000e+01
      vertex 1.759500e+02 -3.271154e+00 1.250000e+01
      vertex 1.759500e+02 -3.271154e+00 2.500000e+01
    endloop
  endfacet
  facet normal -3.370724e-01 9.414787e-01 0.000000e+00
    outer loop
      vertex 1.759500e+02 -3.271154e+00 0.000000e+00
      vertex 1.719000e+02 -4.721154e+00 0.000000e+00
      vertex 1.759500e+02 -3.271154e+00 1.250000e+01
    endloop
  endfacet
  facet normal -3.370724e-01 9.414787e-01 0.000000e+00
    outer loop
      vertex 1.759500e+02 -3.271154e+00 1.250000e+01
      vertex 1.719000e+02 -4.721154e+00 0.000000e+00
      vertex 1.719000e+02 -4.721154e+00 1.250000e+01
    endloop
  endfacet
  facet normal -3.370724e-01 9.414787e-01 0.000000e+00
    outer loop
      vertex 1.759500e+02 -3.271154e+00 1.250000e+01
      vertex 1.719000e+02 -4.721154e+00 1.250000e+01
      vertex 1.759500e+02 -3.271154e+00 2.500000e+01
    endloop
  endfacet
  facet normal -3.370724e-01 9.414787e-01 0.000000e+00
    outer loop
      vertex 1.759500e+02 -3.271154e+00 2.500000e+01
      vertex 1.719000e+02 -4.721154e+00 1.250000e+01
      vertex 1.719000e+02 -4.721154e+00 2.500000e+01
    endloop
  endfacet
  facet normal 1.000000e+00 0.000000e+00 0.000000e+00
    outer loop
      vertex 1.719000e+02 -4.721154e+00 0.000000e+00
      vertex 1.719000e+02 3.288457e-01 0.000000e+00
      vertex 1.719000e+02 -4.721154e+00 1.250000e+01
    endloop
  endfacet
  facet normal 1.000000e+00 -0.000000e+00 0.000000e+00
    outer loop
      vertex 1.719000e+02 -4.721154e+00 1.250000e+01
      vertex 1.719000e+02 3.288457e-01 0.000000e+00
      vertex 1.719000e+02 3.288457e-01 1.250000e+01
    endloop
  endfacet
  facet normal 1.000000e+00 0.000000e+00 0.000000e+00
    outer loop
      vertex 1.719000e+02 -4.721154e+00 1.250000e+01
      vertex 1.719000e+02 3.288457e-01 1.250000e+01
      vertex 1.719000e+02 -4.721154e+00 2.500000e+01
    endloop
  endfacet
  facet normal 1.000000e+00 -0.000000e+00 0.000000e+00
    outer loop
      vertex 1.719000e+02 -4.721154e+00 2.500000e+01
      vertex 1.719000e+02 3.288457e-01 1.250000e+01
      vertex 1.719000e+02 3.288457e-01 2.500000e+01
    endloop
  endfacet
  facet normal 1.000000e+00 0.000000e+00 0.000000e+00
    outer loop
      vertex 1.719000e+02 3.288457e-01 0.000000e+00
      vertex 1.719000e+02 5.378846e+00 0.000000e+00
      vertex 1.719000e+02 3.288457e-01 1.250000e+01
    endloop
  endfacet
  facet normal 1.000000e+00 -0.000000e+00 0.000000e+00
    outer loop
      vertex 1.719000e+02 3.288457e-01 1.250000e+01
      vertex 1.719000e+02 5.378846e+00 0.000000e+00
      vertex 1.719000e+02 5.378846e+00 1.250000e+01
    endloop
  endfacet
  facet normal 1.000000e+00 0.000000e+00 0.000000e+00
    outer loop
      vertex 1.719000e+02 3.288457e-01 1.250000e+01
      vertex 1.719000e+02 5.378846e+00 1.250000e+01
      vertex 1.719000e+02 3.288457e-01 2.500000e+01
    endloop
  endfacet
  facet normal 1.000000e+00 -0.000000e+00 0.000000e+00
    outer loop
      vertex 1.719000e+02 3.288457e-01 2.500000e+01
      vertex 1.719000e+02 5.378846e+00 1.250000e+01
      vertex 1.719000e+02 5.378846e+00 2.500000e+01
    endloop
  endfacet
  facet normal -3.370724e-01 -9.414787e-01 0.000000e+00
    outer loop
      vertex 1.719000e+02 5.378846e+00 0.000000e+00
      vertex 1.759500e+02 3.928846e+00 0.000000e+00
      vertex 1.719000e+02 5.378846e+00 1.250000e+01
    endloop
  endfacet
  facet normal -3.370724e-01 -9.414787e-01 0.000000e+00
    outer loop
      vertex 1.719000e+02 5.378846e+00 1.250000e+01
      vertex 1.759500e+02 3.928846e+00 0.000000e+00
      vertex 1.759500e+02 3.928846e+00 1.250000e+01
    endloop
  endfacet
  facet normal -3.370724e-01 -9.414787e-01 0.000000e+00
    outer loop
      vertex 1.719000e+02 5.378846e+00 1.250000e+01
      vertex 1.759500e+02 3.928846e+00 1.250000e+01
      vertex 1.719000e+02 5.378846e+00 2.500000e+01
    endloop
  endfacet
  facet normal -3.370724e-01 -9.414787e-01 0.000000e+00
    outer loop
      vertex 1.719000e+02 5.378846e+00 2.500000e+01
      vertex 1.759500e+02 3.928846e+00 1.250000e+01
      vertex 1.759500e+02 3.928846e+00 2.500000e+01
    endloop
  endfacet
  facet normal -3.370723e-01 -9.414787e-01 0.000000e+00
    outer loop
      vertex 1.759500e+02 3.928846e+00 0.000000e+00
      vertex 1.800000e+02 2.478846e+00 0.000000e+00
      vertex 1.759500e+02 3.928846e+00 1.250000e+01
    endloop
  endfacet
  facet normal -3.370723e-01 -9.414787e-01 0.000000e+00
    outer loop
      vertex 1.759500e+02 3.928846e+00 1.250000e+01
      vertex 1.800000e+02 2.478846e+00 0.000000e+00
      vertex 1.800000e+02 2.478846e+00 1.250000e+01
    endloop
  endfacet
  facet normal -3.370723e-01 -9.414787e-01 0.000000e+00
    outer loop
      vertex 1.759500e+02 3.928846e+00 1.250000e+01
      vertex 1.800000e+02 2.478846e+00 1.250000e+01
      vertex 1.759500e+02 3.928846e+00 2.500000e+01
    endloop
  endfacet
  facet normal -3.370723e-01 -9.414787e-01 0.000000e+00
    outer loop
      vertex 1.759500e+02 3.928846e+00 2.500000e+01
      vertex 1.800000e+02 2.478846e+00 1.250000e+01
      vertex 1.800000e+02 2.478846e+00 2.500000e+01
    endloop
  endfacet
  facet normal -0.000000e+00 0.000000e+00 1.000000e+00
    outer loop
      vertex 8.600000e+01 1.165769e+01 2.500000e+01
      vertex 1.719000e+02 5.378846e+00 2.500000e+01
      vertex 9.000000e+01 1.165769e+01 2.500000e+01
    endloop
  endfacet
  facet normal 0.000000e+00 0.000000e+00 1.000000e+00
    outer loop
      vertex 1.800000e+02 1.165769e+01 2.500000e+01
      vertex 9.000000e+01 1.165769e+01 2.500000e+01
      vertex 1.719000e+02 5.378846e+00 2.500000e+01
    endloop
  endfacet
  facet normal 0.000000e+00 -0.000000e+00 1.000000e+00
    outer loop
      vertex 1.800000e+02 2.478846e+00 2.500000e+01
      vertex 1.800000e+02 7.068269e+00 2.500000e+01
      vertex 1.759500e+02 3.928846e+00 2.500000e+01
    endloop
  endfacet
  facet normal -0.000000e+00 0.000000e+00 1.000000e+00
    outer loop
      vertex 1.719000e+02 5.378846e+00 2.500000e+01
      vertex 1.759500e+02 3.928846e+00 2.500000e+01
      vertex 1.800000e+02 1.165769e+01 2.500000e+01
    endloop
  endfacet
  facet normal -0.000000e+00 0.000000e+00 1.000000e+00
    outer loop
      vertex 0.000000e+00 1.165769e+01 2.500000e+01
      vertex 0.000000e+00 7.043269e+00 2.500000e+01
      vertex 8.600000e+01 1.165769e+01 2.500000e+01
    endloop
  endfacet
  facet normal 0.000000e+00 0.000000e+00 1.000000e+00
    outer loop
      vertex -8.000000e+00 5.328846e+00 2.500000e+01
      vertex -8.000000e+00 3.288457e-01 2.500000e+01
      vertex -4.000000e+00 3.878845e+00 2.500000e+01
    endloop
  endfacet
  facet normal 0.000000e+00 0.000000e+00 1.000000e+00
    outer loop
      vertex 0.000000e+00 2.428845e+00 2.500000e+01
      vertex -4.000000e+00 3.878845e+00 2.500000e+01
      vertex -8.000000e+00 3.288457e-01 2.500000e+01
    endloop
  endfacet
  facet normal 0.000000e+00 0.000000e+00 1.000000e+00
    outer loop
      vertex 0.000000e+00 -1.771155e+00 2.500000e+01
      vertex -8.000000e+00 3.288457e-01 2.500000e+01
      vertex -4.000000e+00 -3.221154e+00 2.500000e+01
    endloop
  endfacet
  facet normal 0.000000e+00 0.000000e+00 1.000000e+00
    outer loop
      vertex -8.000000e+00 -4.671154e+00 2.500000e+01
      vertex -4.000000e+00 -3.221154e+00 2.500000e+01
      vertex -8.000000e+00 3.288457e-01 2.500000e+01
    endloop
  endfacet
  facet normal 0.000000e+00 0.000000e+00 1.000000e+00
    outer loop
      vertex 0.000000e+00 -1.100000e+01 2.500000e+01
      vertex 8.600000e+01 -1.100000e+01 2.500000e+01
      vertex 0.000000e+00 -6.385577e+00 2.500000e+01
    endloop
  endfacet
  facet normal 0.000000e+00 0.000000e+00 1.000000e+00
    outer loop
      vertex 0.000000e+00 -1.771155e+00 2.500000e+01
      vertex 0.000000e+00 -6.385577e+00 2.500000e+01
      vertex 8.600000e+01 -1.100000e+01 2.500000e+01
    endloop
  endfacet
  facet normal 0.000000e+00 0.000000e+00 1.000000e+00
    outer loop
      vertex 1.800000e+02 -1.100000e+01 2.500000e+01
      vertex 1.719000e+02 -4.721154e+00 2.500000e+01
      vertex 9.000000e+01 -1.100000e+01 2.500000e+01
    endloop
  endfacet
  facet normal 0.000000e+00 0.000000e+00 1.000000e+00
    outer loop
      vertex 8.600000e+01 -1.100000e+01 2.500000e+01
      vertex 9.000000e+01 -1.100000e+01 2.500000e+01
      vertex 1.719000e+02 -4.721154e+00 2.500000e+01
    endloop
  endfacet
  facet normal 0.000000e+00 0.000000e+00 1.000000e+00
    outer loop
      vertex 1.800000e+02 -1.821154e+00 2.500000e+01
      vertex 1.759500e+02 -3.271154e+00 2.500000e+01
      vertex 1.800000e+02 -6.410577e+00 2.500000e+01
    endloop
  endfacet
  facet normal 0.000000e+00 -0.000000e+00 1.000000e+00
    outer loop
      vertex 1.800000e+02 -1.100000e+01 2.500000e+01
      vertex 1.800000e+02 -6.410577e+00 2.500000e+01
      vertex 1.759500e+02 -3.271154e+00 2.500000e+01
    endloop
  endfacet
  facet normal 0.000000e+00 0.000000e+00 1.000000e+00
    outer loop
      vertex 1.800000e+02 1.165769e+01 2.500000e+01
      vertex 1.759500e+02 3.928846e+00 2.500000e+01
      vertex 1.800000e+02 7.068269e+00 2.500000e+01
    endloop
  endfacet
  facet normal 0.000000e+00 0.000000e+00 1.000000e+00
    outer loop
      vertex 0.000000e+00 2.428845e+00 2.500000e+01
      vertex 8.600000e+01 1.165769e+01 2.500000e+01
      vertex 0.000000e+00 7.043269e+00 2.500000e+01
    endloop
  endfacet
  facet normal 0.000000e+00 -0.000000e+00 1.000000e+00
    outer loop
      vertex 1.719000e+02 3.288457e-01 2.500000e+01
      vertex 1.719000e+02 5.378846e+00 2.500000e+01
      vertex 8.600000e+01 3.288457e-01 2.500000e+01
    endloop
  endfacet
  facet normal 0.000000e+00 0.000000e+00 1.000000e+00
    outer loop
      vertex 8.600000e+01 3.288457e-01 2.500000e+01
      vertex 1.719000e+02 5.378846e+00 2.500000e+01
      vertex 8.600000e+01 1.165769e+01 2.500000e+01
    endloop
  endfacet
  facet normal 0.000000e+00 0.000000e+00 1.000000e+00
    outer loop
      vertex 8.600000e+01 1.165769e+01 2.500000e+01
      vertex 0.000000e+00 2.428845e+00 2.500000e+01
      vertex 8.600000e+01 3.288457e-01 2.500000e+01
    endloop
  endfacet
  facet normal 0.000000e+00 0.000000e+00 1.000000e+00
    outer loop
      vertex 8.600000e+01 3.288457e-01 2.500000e+01
      vertex 0.000000e+00 2.428845e+00 2.500000e+01
      vertex -8.000000e+00 3.288457e-01 2.500000e+01
    endloop
  endfacet
  facet normal 0.000000e+00 0.000000e+00 1.000000e+00
    outer loop
      vertex 8.600000e+01 -1.100000e+01 2.500000e+01
      vertex 1.719000e+02 -4.721154e+00 2.500000e+01
      vertex 8.600000e+01 3.288457e-01 2.500000e+01
    endloop
  endfacet
  facet normal -0.000000e+00 0.000000e+00 1.000000e+00
    outer loop
      vertex 8.600000e+01 3.288457e-01 2.500000e+01
      vertex 1.719000e+02 -4.721154e+00 2.500000e+01
      vertex 1.719000e+02 3.288457e-01 2.500000e+01
    endloop
  endfacet
  facet normal -0.000000e+00 0.000000e+00 1.000000e+00
    outer loop
      vertex 0.000000e+00 -1.771155e+00 2.500000e+01
      vertex 8.600000e+01 -1.100000e+01 2.500000e+01
      vertex 8.600000e+01 3.288457e-01 2.500000e+01
    endloop
  endfacet
  facet normal 0.000000e+00 -0.000000e+00 1.000000e+00
    outer loop
      vertex 0.000000e+00 -1.771155e+00 2.500000e+01
      vertex 8.600000e+01 3.288457e-01 2.500000e+01
      vertex -8.000000e+00 3.288457e-01 2.500000e+01
    endloop
  endfacet
  facet normal 0.000000e+00 0.000000e+00 1.000000e+00
    outer loop
      vertex 1.800000e+02 -1.100000e+01 2.500000e+01
      vertex 1.759500e+02 -3.271154e+00 2.500000e+01
      vertex 1.719000e+02 -4.721154e+00 2.500000e+01
    endloop
  endfacet
  facet normal 0.000000e+00 -0.000000e+00 -1.000000e+00
    outer loop
      vertex 1.800000e+02 1.165769e+01 0.000000e+00
      vertex 1.800000e+02 7.068269e+00 0.000000e+00
      vertex 1.759500e+02 3.928846e+00 0.000000e+00
    endloop
  endfacet
  facet normal 0.000000e+00 0.000000e+00 -1.000000e+00
    outer loop
      vertex 1.800000e+02 2.478846e+00 0.000000e+00
      vertex 1.759500e+02 3.928846e+00 0.000000e+00
      vertex 1.800000e+02 7.068269e+00 0.000000e+00
    endloop
  endfacet
  facet normal -0.000000e+00 0.000000e+00 -1.000000e+00
    outer loop
      vertex 1.800000e+02 1.165769e+01 0.000000e+00
      vertex 1.719000e+02 5.378846e+00 0.000000e+00
      vertex 9.000000e+01 1.165769e+01 0.000000e+00
    endloop
  endfacet
  facet normal 0.000000e+00 0.000000e+00 -1.000000e+00
    outer loop
      vertex 8.600000e+01 1.165769e+01 0.000000e+00
      vertex 9.000000e+01 1.165769e+01 0.000000e+00
      vertex 1.719000e+02 5.378846e+00 0.000000e+00
    endloop
  endfacet
  facet normal 0.000000e+00 0.000000e+00 -1.000000e+00
    outer loop
      vertex 8.600000e+01 -1.100000e+01 0.000000e+00
      vertex 1.719000e+02 -4.721154e+00 0.000000e+00
      vertex 9.000000e+01 -1.100000e+01 0.000000e+00
    endloop
  endfacet
  facet normal 0.000000e+00 0.000000e+00 -1.000000e+00
    outer loop
      vertex 1.800000e+02 -1.100000e+01 0.000000e+00
      vertex 9.000000e+01 -1.100000e+01 0.000000e+00
      vertex 1.719000e+02 -4.721154e+00 0.000000e+00
    endloop
  endfacet
  facet normal 0.000000e+00 0.000000e+00 -1.000000e+00
    outer loop
      vertex 0.000000e+00 1.165769e+01 0.000000e+00
      vertex 8.600000e+01 1.165769e+01 0.000000e+00
      vertex 0.000000e+00 7.043269e+00 0.000000e+00
    endloop
  endfacet
  facet normal -4.131062e-17 7.699150e-16 -1.000000e+00
    outer loop
      vertex 0.000000e+00 2.428845e+00 -3.552714e-15
      vertex 0.000000e+00 7.043269e+00 0.000000e+00
      vertex 8.600000e+01 1.165769e+01 0.000000e+00
    endloop
  endfacet
  facet normal -6.306066e-16 7.105427e-16 -1.000000e+00
    outer loop
      vertex 0.000000e+00 2.428845e+00 -3.552714e-15
      vertex -8.000000e+00 3.288457e-01 0.000000e+00
      vertex -4.000000e+00 3.878845e+00 0.000000e+00
    endloop
  endfacet
  facet normal 6.306067e-16 -7.105427e-16 -1.000000e+00
    outer loop
      vertex -8.000000e+00 5.328846e+00 -3.552714e-15
      vertex -4.000000e+00 3.878845e+00 0.000000e+00
      vertex -8.000000e+00 3.288457e-01 0.000000e+00
    endloop
  endfacet
  facet normal 6.306067e-16 7.105427e-16 -1.000000e+00
    outer loop
      vertex -8.000000e+00 -4.671154e+00 -3.552714e-15
      vertex -8.000000e+00 3.288457e-01 0.000000e+00
      vertex -4.000000e+00 -3.221154e+00 0.000000e+00
    endloop
  endfacet
  facet normal -6.306067e-16 -7.105427e-16 -1.000000e+00
    outer loop
      vertex 0.000000e+00 -1.771155e+00 -3.552714e-15
      vertex -4.000000e+00 -3.221154e+00 0.000000e+00
      vertex -8.000000e+00 3.288457e-01 0.000000e+00
    endloop
  endfacet
  facet normal 0.000000e+00 0.000000e+00 -1.000000e+00
    outer loop
      vertex 0.000000e+00 -1.100000e+01 0.000000e+00
      vertex 0.000000e+00 -6.385577e+00 0.000000e+00
      vertex 8.600000e+01 -1.100000e+01 0.000000e+00
    endloop
  endfacet
  facet normal 0.000000e+00 0.000000e+00 -1.000000e+00
    outer loop
      vertex 1.719000e+02 5.378846e+00 0.000000e+00
      vertex 1.800000e+02 1.165769e+01 0.000000e+00
      vertex 1.759500e+02 3.928846e+00 0.000000e+00
    endloop
  endfacet
  facet normal -4.131062e-17 -7.699151e-16 -1.000000e+00
    outer loop
      vertex 0.000000e+00 -1.771155e+00 -3.552714e-15
      vertex 8.600000e+01 -1.100000e+01 0.000000e+00
      vertex 0.000000e+00 -6.385577e+00 0.000000e+00
    endloop
  endfacet
  facet normal -0.000000e+00 -0.000000e+00 -1.000000e+00
    outer loop
      vertex 1.719000e+02 3.288457e-01 0.000000e+00
      vertex 1.719000e+02 -4.721154e+00 0.000000e+00
      vertex 8.600000e+01 3.288457e-01 0.000000e+00
    endloop
  endfacet
  facet normal 0.000000e+00 0.000000e+00 -1.000000e+00
    outer loop
      vertex 8.600000e+01 3.288457e-01 0.000000e+00
      vertex 1.719000e+02 -4.721154e+00 0.000000e+00
      vertex 8.600000e+01 -1.100000e+01 0.000000e+00
    endloop
  endfacet
  facet normal 0.000000e+00 -0.000000e+00 -1.000000e+00
    outer loop
      vertex 1.800000e+02 -1.821154e+00 0.000000e+00
      vertex 1.800000e+02 -6.410577e+00 0.000000e+00
      vertex 1.759500e+02 -3.271154e+00 0.000000e+00
    endloop
  endfacet
  facet normal 0.000000e+00 0.000000e+00 -1.000000e+00
    outer loop
      vertex 1.759500e+02 -3.271154e+00 0.000000e+00
      vertex 1.800000e+02 -6.410577e+00 0.000000e+00
      vertex 1.800000e+02 -1.100000e+01 0.000000e+00
    endloop
  endfacet
  facet normal 0.000000e+00 -0.000000e+00 -1.000000e+00
    outer loop
      vertex 1.759500e+02 -3.271154e+00 0.000000e+00
      vertex 1.800000e+02 -1.100000e+01 0.000000e+00
      vertex 1.719000e+02 -4.721154e+00 0.000000e+00
    endloop
  endfacet
  facet normal 4.131062e-17 0.000000e+00 -1.000000e+00
    outer loop
      vertex 8.600000e+01 -1.100000e+01 0.000000e+00
      vertex 0.000000e+00 -1.771155e+00 -3.552714e-15
      vertex 8.600000e+01 3.288457e-01 0.000000e+00
    endloop
  endfacet
  facet normal 0.000000e+00 1.691768e-15 -1.000000e+00
    outer loop
      vertex 8.600000e+01 3.288457e-01 0.000000e+00
      vertex 0.000000e+00 -1.771155e+00 -3.552714e-15
      vertex -8.000000e+00 3.288457e-01 0.000000e+00
    endloop
  endfacet
  facet normal 0.000000e+00 0.000000e+00 -1.000000e+00
    outer loop
      vertex 8.600000e+01 3.288457e-01 0.000000e+00
      vertex 8.600000e+01 1.165769e+01 0.000000e+00
      vertex 1.719000e+02 3.288457e-01 0.000000e+00
    endloop
  endfacet
  facet normal 0.000000e+00 0.000000e+00 -1.000000e+00
    outer loop
      vertex 1.719000e+02 3.288457e-01 0.000000e+00
      vertex 8.600000e+01 1.165769e+01 0.000000e+00
      vertex 1.719000e+02 5.378846e+00 0.000000e+00
    endloop
  endfacet
  facet normal 4.131062e-17 0.000000e+00 -1.000000e+00
    outer loop
      vertex 0.000000e+00 2.428845e+00 -3.552714e-15
      vertex 8.600000e+01 1.165769e+01 0.000000e+00
      vertex 8.600000e+01 3.288457e-01 0.000000e+00
    endloop
  endfacet
  facet normal 0.000000e+00 -1.691769e-15 -1.000000e+00
    outer loop
      vertex 0.000000e+00 2.428845e+00 -3.552714e-15
      vertex 8.600000e+01 3.288457e-01 0.000000e+00
      vertex -8.000000e+00 3.288457e-01 0.000000e+00
    endloop
  endfacet
  facet normal 1.000000e+00 -0.000000e+00 0.000000e+00
    outer loop
      vertex 1.800000e+02 7.068269e+00 2.500000e+01
      vertex 1.800000e+02 8.743269e+00 1.875000e+01
      vertex 1.800000e+02 1.165769e+01 2.500000e+01
    endloop
  endfacet
  facet normal 1.000000e+00 0.000000e+00 0.000000e+00
    outer loop
      vertex 1.800000e+02 8.743269e+00 6.250000e+00
      vertex 1.800000e+02 7.068269e+00 9.842049e+00
      vertex 1.800000e+02 7.068269e+00 0.000000e+00
    endloop
  endfacet
  facet normal 1.000000e+00 0.000000e+00 0.000000e+00
    outer loop
      vertex 1.800000e+02 1.165769e+01 0.000000e+00
      vertex 1.800000e+02 8.743269e+00 6.250000e+00
      vertex 1.800000e+02 7.068269e+00 0.000000e+00
    endloop
  endfacet
  facet normal 1.000000e+00 0.000000e+00 0.000000e+00
    outer loop
      vertex 1.800000e+02 8.743269e+00 1.875000e+01
      vertex 1.800000e+02 7.068269e+00 2.500000e+01
      vertex 1.800000e+02 7.068269e+00 1.515795e+01
    endloop
  endfacet
  facet normal 1.000000e+00 0.000000e+00 0.000000e+00
    outer loop
      vertex 1.800000e+02 7.068269e+00 2.500000e+01
      vertex 1.800000e+02 2.478846e+00 2.500000e+01
      vertex 1.800000e+02 7.068269e+00 1.515795e+01
    endloop
  endfacet
  facet normal 1.000000e+00 0.000000e+00 0.000000e+00
    outer loop
      vertex 1.800000e+02 7.068269e+00 1.515795e+01
      vertex 1.800000e+02 2.478846e+00 2.500000e+01
      vertex 1.800000e+02 2.478846e+00 1.250000e+01
    endloop
  endfacet
  facet normal 1.000000e+00 0.000000e+00 0.000000e+00
    outer loop
      vertex 1.800000e+02 7.068269e+00 1.515795e+01
      vertex 1.800000e+02 2.478846e+00 1.250000e+01
      vertex 1.800000e+02 5.828846e+00 1.250000e+01
    endloop
  endfacet
  facet normal 1.000000e+00 0.000000e+00 0.000000e+00
    outer loop
      vertex 1.800000e+02 2.478846e+00 0.000000e+00
      vertex 1.800000e+02 7.068269e+00 0.000000e+00
      vertex 1.800000e+02 2.478846e+00 1.250000e+01
    endloop
  endfacet
  facet normal 1.000000e+00 0.000000e+00 0.000000e+00
    outer loop
      vertex 1.800000e+02 2.478846e+00 1.250000e+01
      vertex 1.800000e+02 7.068269e+00 0.000000e+00
      vertex 1.800000e+02 7.068269e+00 9.842049e+00
    endloop
  endfacet
  facet normal 1.000000e+00 -0.000000e+00 0.000000e+00
    outer loop
      vertex 1.800000e+02 2.478846e+00 1.250000e+01
      vertex 1.800000e+02 7.068269e+00 9.842049e+00
      vertex 1.800000e+02 5.828846e+00 1.250000e+01
    endloop
  endfacet
  facet normal 1.000000e+00 0.000000e+00 0.000000e+00
    outer loop
      vertex 1.800000e+02 -6.410577e+00 0.000000e+00
      vertex 1.800000e+02 -8.085577e+00 6.250000e+00
      vertex 1.800000e+02 -1.100000e+01 0.000000e+00
    endloop
  endfacet
  facet normal 1.000000e+00 0.000000e+00 0.000000e+00
    outer loop
      vertex 1.800000e+02 -6.410577e+00 2.500000e+01
      vertex 1.800000e+02 -8.085577e+00 1.875000e+01
      vertex 1.800000e+02 -6.410577e+00 1.515795e+01
    endloop
  endfacet
  facet normal 1.000000e+00 0.000000e+00 -0.000000e+00
    outer loop
      vertex 1.800000e+02 -8.085577e+00 1.875000e+01
      vertex 1.800000e+02 -6.410577e+00 2.500000e+01
      vertex 1.800000e+02 -1.100000e+01 2.500000e+01
    endloop
  endfacet
  facet normal 1.000000e+00 -0.000000e+00 0.000000e+00
    outer loop
      vertex 1.800000e+02 -8.085577e+00 6.250000e+00
      vertex 1.800000e+02 -6.410577e+00 0.000000e+00
      vertex 1.800000e+02 -6.410577e+00 9.842049e+00
    endloop
  endfacet
  facet normal 1.000000e+00 0.000000e+00 0.000000e+00
    outer loop
      vertex 1.800000e+02 -1.821154e+00 2.500000e+01
      vertex 1.800000e+02 -6.410577e+00 2.500000e+01
      vertex 1.800000e+02 -1.821154e+00 1.250000e+01
    endloop
  endfacet
  facet normal 1.000000e+00 0.000000e+00 0.000000e+00
    outer loop
      vertex 1.800000e+02 -1.821154e+00 1.250000e+01
      vertex 1.800000e+02 -6.410577e+00 2.500000e+01
      vertex 1.800000e+02 -6.410577e+00 1.515795e+01
    endloop
  endfacet
  facet normal 1.000000e+00 0.000000e+00 0.000000e+00
    outer loop
      vertex 1.800000e+02 -1.821154e+00 1.250000e+01
      vertex 1.800000e+02 -6.410577e+00 1.515795e+01
      vertex 1.800000e+02 -5.171154e+00 1.250000e+01
    endloop
  endfacet
  facet normal 1.000000e+00 0.000000e+00 0.000000e+00
    outer loop
      vertex 1.800000e+02 -6.410577e+00 0.000000e+00
      vertex 1.800000e+02 -1.821154e+00 0.000000e+00
      vertex 1.800000e+02 -6.410577e+00 9.842049e+00
    endloop
  endfacet
  facet normal 1.000000e+00 -0.000000e+00 0.000000e+00
    outer loop
      vertex 1.800000e+02 -6.410577e+00 9.842049e+00
      vertex 1.800000e+02 -1.821154e+00 0.000000e+00
      vertex 1.800000e+02 -1.821154e+00 1.250000e+01
    endloop
  endfacet
  facet normal 1.000000e+00 0.000000e+00 0.000000e+00
    outer loop
      vertex 1.800000e+02 -6.410577e+00 9.842049e+00
      vertex 1.800000e+02 -1.821154e+00 1.250000e+01
      vertex 1.800000e+02 -5.171154e+00 1.250000e+01
    endloop
  endfacet
endsolid
