solid 3D Shape01078386 A.1 
  facet normal 7.808688e-01 6.246951e-01 0.000000e+00
    outer loop
      vertex 7.500000e+00 3.750000e+00 4.000000e+00
      vertex 8.500000e+00 2.500000e+00 4.000000e+00
      vertex 7.500000e+00 3.750000e+00 2.000000e+00
    endloop
  endfacet
  facet normal 7.808688e-01 6.246951e-01 0.000000e+00
    outer loop
      vertex 7.500000e+00 3.750000e+00 2.000000e+00
      vertex 8.500000e+00 2.500000e+00 4.000000e+00
      vertex 8.500000e+00 2.500000e+00 2.000000e+00
    endloop
  endfacet
  facet normal 7.808688e-01 6.246951e-01 0.000000e+00
    outer loop
      vertex 7.500000e+00 3.750000e+00 2.000000e+00
      vertex 8.500000e+00 2.500000e+00 2.000000e+00
      vertex 7.500000e+00 3.750000e+00 0.000000e+00
    endloop
  endfacet
  facet normal 7.808688e-01 6.246951e-01 0.000000e+00
    outer loop
      vertex 7.500000e+00 3.750000e+00 0.000000e+00
      vertex 8.500000e+00 2.500000e+00 2.000000e+00
      vertex 8.500000e+00 2.500000e+00 0.000000e+00
    endloop
  endfacet
  facet normal 7.808688e-01 6.246951e-01 0.000000e+00
    outer loop
      vertex 8.500000e+00 2.500000e+00 4.000000e+00
      vertex 9.500000e+00 1.250000e+00 4.000000e+00
      vertex 8.500000e+00 2.500000e+00 2.000000e+00
    endloop
  endfacet
  facet normal 7.808688e-01 6.246951e-01 0.000000e+00
    outer loop
      vertex 8.500000e+00 2.500000e+00 2.000000e+00
      vertex 9.500000e+00 1.250000e+00 4.000000e+00
      vertex 9.500000e+00 1.250000e+00 2.000000e+00
    endloop
  endfacet
  facet normal 7.808688e-01 6.246951e-01 0.000000e+00
    outer loop
      vertex 8.500000e+00 2.500000e+00 2.000000e+00
      vertex 9.500000e+00 1.250000e+00 2.000000e+00
      vertex 8.500000e+00 2.500000e+00 0.000000e+00
    endloop
  endfacet
  facet normal 7.808688e-01 6.246951e-01 0.000000e+00
    outer loop
      vertex 8.500000e+00 2.500000e+00 0.000000e+00
      vertex 9.500000e+00 1.250000e+00 2.000000e+00
      vertex 9.500000e+00 1.250000e+00 0.000000e+00
    endloop
  endfacet
  facet normal 0.000000e+00 1.000000e+00 -0.000000e+00
    outer loop
      vertex 7.500000e+00 3.750000e+00 2.000000e+00
      vertex -2.664535e-15 3.750000e+00 2.000000e+00
      vertex 7.500000e+00 3.750000e+00 4.000000e+00
    endloop
  endfacet
  facet normal 0.000000e+00 1.000000e+00 0.000000e+00
    outer loop
      vertex 7.500000e+00 3.750000e+00 4.000000e+00
      vertex -2.664535e-15 3.750000e+00 2.000000e+00
      vertex -8.881784e-16 3.750000e+00 4.000000e+00
    endloop
  endfacet
  facet normal 0.000000e+00 1.000000e+00 -0.000000e+00
    outer loop
      vertex -2.664535e-15 3.750000e+00 2.000000e+00
      vertex -7.500000e+00 3.750000e+00 2.000000e+00
      vertex -8.881784e-16 3.750000e+00 4.000000e+00
    endloop
  endfacet
  facet normal 0.000000e+00 1.000000e+00 0.000000e+00
    outer loop
      vertex -8.881784e-16 3.750000e+00 4.000000e+00
      vertex -7.500000e+00 3.750000e+00 2.000000e+00
      vertex -7.500000e+00 3.750000e+00 4.000000e+00
    endloop
  endfacet
  facet normal 0.000000e+00 1.000000e+00 -0.000000e+00
    outer loop
      vertex 7.500000e+00 3.750000e+00 0.000000e+00
      vertex -8.881784e-16 3.750000e+00 0.000000e+00
      vertex 7.500000e+00 3.750000e+00 2.000000e+00
    endloop
  endfacet
  facet normal 0.000000e+00 1.000000e+00 0.000000e+00
    outer loop
      vertex 7.500000e+00 3.750000e+00 2.000000e+00
      vertex -8.881784e-16 3.750000e+00 0.000000e+00
      vertex -2.664535e-15 3.750000e+00 2.000000e+00
    endloop
  endfacet
  facet normal 0.000000e+00 1.000000e+00 0.000000e+00
    outer loop
      vertex -8.881784e-16 3.750000e+00 0.000000e+00
      vertex -7.500000e+00 3.750000e+00 0.000000e+00
      vertex -2.664535e-15 3.750000e+00 2.000000e+00
    endloop
  endfacet
  facet normal 0.000000e+00 1.000000e+00 0.000000e+00
    outer loop
      vertex -2.664535e-15 3.750000e+00 2.000000e+00
      vertex -7.500000e+00 3.750000e+00 0.000000e+00
      vertex -7.500000e+00 3.750000e+00 2.000000e+00
    endloop
  endfacet
  facet normal -7.808688e-01 6.246951e-01 0.000000e+00
    outer loop
      vertex -7.500000e+00 3.750000e+00 4.000000e+00
      vertex -7.500000e+00 3.750000e+00 2.000000e+00
      vertex -8.500000e+00 2.500000e+00 4.000000e+00
    endloop
  endfacet
  facet normal -7.808688e-01 6.246951e-01 0.000000e+00
    outer loop
      vertex -8.500000e+00 2.500000e+00 4.000000e+00
      vertex -7.500000e+00 3.750000e+00 2.000000e+00
      vertex -8.500000e+00 2.500000e+00 2.000000e+00
    endloop
  endfacet
  facet normal -7.808688e-01 6.246951e-01 0.000000e+00
    outer loop
      vertex -7.500000e+00 3.750000e+00 2.000000e+00
      vertex -7.500000e+00 3.750000e+00 0.000000e+00
      vertex -8.500000e+00 2.500000e+00 2.000000e+00
    endloop
  endfacet
  facet normal -7.808688e-01 6.246951e-01 0.000000e+00
    outer loop
      vertex -8.500000e+00 2.500000e+00 2.000000e+00
      vertex -7.500000e+00 3.750000e+00 0.000000e+00
      vertex -8.500000e+00 2.500000e+00 0.000000e+00
    endloop
  endfacet
  facet normal -7.808688e-01 6.246951e-01 0.000000e+00
    outer loop
      vertex -8.500000e+00 2.500000e+00 4.000000e+00
      vertex -8.500000e+00 2.500000e+00 2.000000e+00
      vertex -9.500000e+00 1.250000e+00 4.000000e+00
    endloop
  endfacet
  facet normal -7.808688e-01 6.246951e-01 0.000000e+00
    outer loop
      vertex -9.500000e+00 1.250000e+00 4.000000e+00
      vertex -8.500000e+00 2.500000e+00 2.000000e+00
      vertex -9.500000e+00 1.250000e+00 2.000000e+00
    endloop
  endfacet
  facet normal -7.808688e-01 6.246951e-01 0.000000e+00
    outer loop
      vertex -8.500000e+00 2.500000e+00 2.000000e+00
      vertex -8.500000e+00 2.500000e+00 0.000000e+00
      vertex -9.500000e+00 1.250000e+00 2.000000e+00
    endloop
  endfacet
  facet normal -7.808688e-01 6.246951e-01 0.000000e+00
    outer loop
      vertex -9.500000e+00 1.250000e+00 2.000000e+00
      vertex -8.500000e+00 2.500000e+00 0.000000e+00
      vertex -9.500000e+00 1.250000e+00 0.000000e+00
    endloop
  endfacet
  facet normal -1.000000e+00 -0.000000e+00 -0.000000e+00
    outer loop
      vertex -9.500000e+00 1.250000e+00 4.000000e+00
      vertex -9.500000e+00 1.250000e+00 2.000000e+00
      vertex -9.500000e+00 0.000000e+00 4.000000e+00
    endloop
  endfacet
  facet normal -1.000000e+00 0.000000e+00 0.000000e+00
    outer loop
      vertex -9.500000e+00 -1.250000e+00 2.000000e+00
      vertex -9.500000e+00 0.000000e+00 4.000000e+00
      vertex -9.500000e+00 1.250000e+00 2.000000e+00
    endloop
  endfacet
  facet normal -1.000000e+00 0.000000e+00 0.000000e+00
    outer loop
      vertex -9.500000e+00 -1.250000e+00 4.000000e+00
      vertex -9.500000e+00 0.000000e+00 4.000000e+00
      vertex -9.500000e+00 -1.250000e+00 2.000000e+00
    endloop
  endfacet
  facet normal -1.000000e+00 0.000000e+00 0.000000e+00
    outer loop
      vertex -9.500000e+00 -1.250000e+00 0.000000e+00
      vertex -9.500000e+00 -1.250000e+00 2.000000e+00
      vertex -9.500000e+00 0.000000e+00 0.000000e+00
    endloop
  endfacet
  facet normal -1.000000e+00 -0.000000e+00 0.000000e+00
    outer loop
      vertex -9.500000e+00 1.250000e+00 2.000000e+00
      vertex -9.500000e+00 0.000000e+00 0.000000e+00
      vertex -9.500000e+00 -1.250000e+00 2.000000e+00
    endloop
  endfacet
  facet normal -1.000000e+00 0.000000e+00 0.000000e+00
    outer loop
      vertex -9.500000e+00 1.250000e+00 0.000000e+00
      vertex -9.500000e+00 0.000000e+00 0.000000e+00
      vertex -9.500000e+00 1.250000e+00 2.000000e+00
    endloop
  endfacet
  facet normal -1.000000e+00 0.000000e+00 0.000000e+00
    outer loop
      vertex -9.500000e+00 -1.250000e+00 2.000000e+00
      vertex -9.500000e+00 -3.750000e+00 2.000000e+00
      vertex -9.500000e+00 -1.250000e+00 4.000000e+00
    endloop
  endfacet
  facet normal -1.000000e+00 -0.000000e+00 0.000000e+00
    outer loop
      vertex -9.500000e+00 -1.250000e+00 4.000000e+00
      vertex -9.500000e+00 -3.750000e+00 2.000000e+00
      vertex -9.500000e+00 -3.750000e+00 4.000000e+00
    endloop
  endfacet
  facet normal -1.000000e+00 0.000000e+00 0.000000e+00
    outer loop
      vertex -9.500000e+00 -1.250000e+00 0.000000e+00
      vertex -9.500000e+00 -3.750000e+00 0.000000e+00
      vertex -9.500000e+00 -1.250000e+00 2.000000e+00
    endloop
  endfacet
  facet normal -1.000000e+00 -0.000000e+00 0.000000e+00
    outer loop
      vertex -9.500000e+00 -1.250000e+00 2.000000e+00
      vertex -9.500000e+00 -3.750000e+00 0.000000e+00
      vertex -9.500000e+00 -3.750000e+00 2.000000e+00
    endloop
  endfacet
  facet normal 0.000000e+00 -1.000000e+00 0.000000e+00
    outer loop
      vertex -9.500000e+00 -3.750000e+00 2.000000e+00
      vertex 0.000000e+00 -3.750000e+00 2.000000e+00
      vertex -9.500000e+00 -3.750000e+00 4.000000e+00
    endloop
  endfacet
  facet normal 0.000000e+00 -1.000000e+00 0.000000e+00
    outer loop
      vertex -9.500000e+00 -3.750000e+00 4.000000e+00
      vertex 0.000000e+00 -3.750000e+00 2.000000e+00
      vertex 0.000000e+00 -3.750000e+00 4.000000e+00
    endloop
  endfacet
  facet normal 0.000000e+00 -1.000000e+00 0.000000e+00
    outer loop
      vertex 0.000000e+00 -3.750000e+00 2.000000e+00
      vertex 9.500000e+00 -3.750000e+00 2.000000e+00
      vertex 0.000000e+00 -3.750000e+00 4.000000e+00
    endloop
  endfacet
  facet normal 0.000000e+00 -1.000000e+00 0.000000e+00
    outer loop
      vertex 0.000000e+00 -3.750000e+00 4.000000e+00
      vertex 9.500000e+00 -3.750000e+00 2.000000e+00
      vertex 9.500000e+00 -3.750000e+00 4.000000e+00
    endloop
  endfacet
  facet normal 0.000000e+00 -1.000000e+00 0.000000e+00
    outer loop
      vertex -9.500000e+00 -3.750000e+00 0.000000e+00
      vertex 0.000000e+00 -3.750000e+00 0.000000e+00
      vertex -9.500000e+00 -3.750000e+00 2.000000e+00
    endloop
  endfacet
  facet normal 0.000000e+00 -1.000000e+00 0.000000e+00
    outer loop
      vertex -9.500000e+00 -3.750000e+00 2.000000e+00
      vertex 0.000000e+00 -3.750000e+00 0.000000e+00
      vertex 0.000000e+00 -3.750000e+00 2.000000e+00
    endloop
  endfacet
  facet normal 0.000000e+00 -1.000000e+00 0.000000e+00
    outer loop
      vertex 0.000000e+00 -3.750000e+00 0.000000e+00
      vertex 9.500000e+00 -3.750000e+00 0.000000e+00
      vertex 0.000000e+00 -3.750000e+00 2.000000e+00
    endloop
  endfacet
  facet normal 0.000000e+00 -1.000000e+00 0.000000e+00
    outer loop
      vertex 0.000000e+00 -3.750000e+00 2.000000e+00
      vertex 9.500000e+00 -3.750000e+00 0.000000e+00
      vertex 9.500000e+00 -3.750000e+00 2.000000e+00
    endloop
  endfacet
  facet normal 1.000000e+00 -0.000000e+00 0.000000e+00
    outer loop
      vertex 9.500000e+00 -1.250000e+00 4.000000e+00
      vertex 9.500000e+00 -1.250000e+00 2.000000e+00
      vertex 9.500000e+00 0.000000e+00 4.000000e+00
    endloop
  endfacet
  facet normal 1.000000e+00 0.000000e+00 0.000000e+00
    outer loop
      vertex 9.500000e+00 1.250000e+00 2.000000e+00
      vertex 9.500000e+00 0.000000e+00 4.000000e+00
      vertex 9.500000e+00 -1.250000e+00 2.000000e+00
    endloop
  endfacet
  facet normal 1.000000e+00 0.000000e+00 0.000000e+00
    outer loop
      vertex 9.500000e+00 1.250000e+00 4.000000e+00
      vertex 9.500000e+00 0.000000e+00 4.000000e+00
      vertex 9.500000e+00 1.250000e+00 2.000000e+00
    endloop
  endfacet
  facet normal 1.000000e+00 0.000000e+00 -0.000000e+00
    outer loop
      vertex 9.500000e+00 1.250000e+00 0.000000e+00
      vertex 9.500000e+00 1.250000e+00 2.000000e+00
      vertex 9.500000e+00 0.000000e+00 0.000000e+00
    endloop
  endfacet
  facet normal 1.000000e+00 -0.000000e+00 0.000000e+00
    outer loop
      vertex 9.500000e+00 -1.250000e+00 2.000000e+00
      vertex 9.500000e+00 0.000000e+00 0.000000e+00
      vertex 9.500000e+00 1.250000e+00 2.000000e+00
    endloop
  endfacet
  facet normal 1.000000e+00 0.000000e+00 0.000000e+00
    outer loop
      vertex 9.500000e+00 -1.250000e+00 0.000000e+00
      vertex 9.500000e+00 0.000000e+00 0.000000e+00
      vertex 9.500000e+00 -1.250000e+00 2.000000e+00
    endloop
  endfacet
  facet normal 1.000000e+00 0.000000e+00 0.000000e+00
    outer loop
      vertex 9.500000e+00 -3.750000e+00 2.000000e+00
      vertex 9.500000e+00 -1.250000e+00 2.000000e+00
      vertex 9.500000e+00 -3.750000e+00 4.000000e+00
    endloop
  endfacet
  facet normal 1.000000e+00 -0.000000e+00 0.000000e+00
    outer loop
      vertex 9.500000e+00 -3.750000e+00 4.000000e+00
      vertex 9.500000e+00 -1.250000e+00 2.000000e+00
      vertex 9.500000e+00 -1.250000e+00 4.000000e+00
    endloop
  endfacet
  facet normal 1.000000e+00 0.000000e+00 0.000000e+00
    outer loop
      vertex 9.500000e+00 -3.750000e+00 0.000000e+00
      vertex 9.500000e+00 -1.250000e+00 0.000000e+00
      vertex 9.500000e+00 -3.750000e+00 2.000000e+00
    endloop
  endfacet
  facet normal 1.000000e+00 -0.000000e+00 0.000000e+00
    outer loop
      vertex 9.500000e+00 -3.750000e+00 2.000000e+00
      vertex 9.500000e+00 -1.250000e+00 0.000000e+00
      vertex 9.500000e+00 -1.250000e+00 2.000000e+00
    endloop
  endfacet
  facet normal -1.950904e-01 -9.807853e-01 0.000000e+00
    outer loop
      vertex -4.750000e+00 2.500000e+00 2.000000e+00
      vertex -3.888962e+00 2.328729e+00 0.000000e+00
      vertex -3.888962e+00 2.328729e+00 2.000000e+00
    endloop
  endfacet
  facet normal -5.555701e-01 -8.314697e-01 -0.000000e+00
    outer loop
      vertex -3.888962e+00 2.328729e+00 2.000000e+00
      vertex -3.888962e+00 2.328729e+00 0.000000e+00
      vertex -3.159010e+00 1.840990e+00 0.000000e+00
    endloop
  endfacet
  facet normal -5.555701e-01 -8.314697e-01 0.000000e+00
    outer loop
      vertex -3.888962e+00 2.328729e+00 2.000000e+00
      vertex -3.159010e+00 1.840990e+00 0.000000e+00
      vertex -3.159010e+00 1.840990e+00 2.000000e+00
    endloop
  endfacet
  facet normal -8.314697e-01 -5.555701e-01 -0.000000e+00
    outer loop
      vertex -3.159010e+00 1.840990e+00 2.000000e+00
      vertex -3.159010e+00 1.840990e+00 0.000000e+00
      vertex -2.671271e+00 1.111038e+00 0.000000e+00
    endloop
  endfacet
  facet normal -8.314697e-01 -5.555701e-01 0.000000e+00
    outer loop
      vertex -3.159010e+00 1.840990e+00 2.000000e+00
      vertex -2.671271e+00 1.111038e+00 0.000000e+00
      vertex -2.671271e+00 1.111038e+00 2.000000e+00
    endloop
  endfacet
  facet normal -9.807853e-01 -1.950904e-01 -0.000000e+00
    outer loop
      vertex -2.671271e+00 1.111038e+00 2.000000e+00
      vertex -2.671271e+00 1.111038e+00 0.000000e+00
      vertex -2.500000e+00 2.500000e-01 0.000000e+00
    endloop
  endfacet
  facet normal -9.807853e-01 -1.950904e-01 0.000000e+00
    outer loop
      vertex -2.671271e+00 1.111038e+00 2.000000e+00
      vertex -2.500000e+00 2.500000e-01 0.000000e+00
      vertex -2.500000e+00 2.500000e-01 2.000000e+00
    endloop
  endfacet
  facet normal -1.950904e-01 -9.807853e-01 0.000000e+00
    outer loop
      vertex -3.888962e+00 2.328729e+00 0.000000e+00
      vertex -4.750000e+00 2.500000e+00 2.000000e+00
      vertex -4.750000e+00 2.500000e+00 0.000000e+00
    endloop
  endfacet
  facet normal 1.950904e-01 -9.807853e-01 0.000000e+00
    outer loop
      vertex -4.750000e+00 2.500000e+00 0.000000e+00
      vertex -4.750000e+00 2.500000e+00 2.000000e+00
      vertex -5.611038e+00 2.328729e+00 2.000000e+00
    endloop
  endfacet
  facet normal 1.950904e-01 -9.807853e-01 0.000000e+00
    outer loop
      vertex -4.750000e+00 2.500000e+00 0.000000e+00
      vertex -5.611038e+00 2.328729e+00 2.000000e+00
      vertex -5.611038e+00 2.328729e+00 0.000000e+00
    endloop
  endfacet
  facet normal 5.555703e-01 -8.314696e-01 0.000000e+00
    outer loop
      vertex -5.611038e+00 2.328729e+00 0.000000e+00
      vertex -5.611038e+00 2.328729e+00 2.000000e+00
      vertex -6.340990e+00 1.840990e+00 2.000000e+00
    endloop
  endfacet
  facet normal 5.555703e-01 -8.314696e-01 0.000000e+00
    outer loop
      vertex -5.611038e+00 2.328729e+00 0.000000e+00
      vertex -6.340990e+00 1.840990e+00 2.000000e+00
      vertex -6.340990e+00 1.840990e+00 0.000000e+00
    endloop
  endfacet
  facet normal 8.314694e-01 -5.555705e-01 0.000000e+00
    outer loop
      vertex -6.340990e+00 1.840990e+00 0.000000e+00
      vertex -6.340990e+00 1.840990e+00 2.000000e+00
      vertex -6.828729e+00 1.111038e+00 2.000000e+00
    endloop
  endfacet
  facet normal 8.314694e-01 -5.555705e-01 0.000000e+00
    outer loop
      vertex -6.340990e+00 1.840990e+00 0.000000e+00
      vertex -6.828729e+00 1.111038e+00 2.000000e+00
      vertex -6.828729e+00 1.111038e+00 0.000000e+00
    endloop
  endfacet
  facet normal 9.807853e-01 -1.950901e-01 0.000000e+00
    outer loop
      vertex -6.828729e+00 1.111038e+00 0.000000e+00
      vertex -6.828729e+00 1.111038e+00 2.000000e+00
      vertex -7.000000e+00 2.500000e-01 2.000000e+00
    endloop
  endfacet
  facet normal 9.807853e-01 -1.950901e-01 0.000000e+00
    outer loop
      vertex -6.828729e+00 1.111038e+00 0.000000e+00
      vertex -7.000000e+00 2.500000e-01 2.000000e+00
      vertex -7.000000e+00 2.500000e-01 0.000000e+00
    endloop
  endfacet
  facet normal -1.950904e-01 -9.807853e-01 0.000000e+00
    outer loop
      vertex -4.750000e+00 2.500000e+00 4.000000e+00
      vertex -3.888962e+00 2.328729e+00 2.000000e+00
      vertex -3.888962e+00 2.328729e+00 4.000000e+00
    endloop
  endfacet
  facet normal -5.555701e-01 -8.314697e-01 -0.000000e+00
    outer loop
      vertex -3.888962e+00 2.328729e+00 4.000000e+00
      vertex -3.888962e+00 2.328729e+00 2.000000e+00
      vertex -3.159010e+00 1.840990e+00 2.000000e+00
    endloop
  endfacet
  facet normal -5.555701e-01 -8.314697e-01 0.000000e+00
    outer loop
      vertex -3.888962e+00 2.328729e+00 4.000000e+00
      vertex -3.159010e+00 1.840990e+00 2.000000e+00
      vertex -3.159010e+00 1.840990e+00 4.000000e+00
    endloop
  endfacet
  facet normal -8.314697e-01 -5.555701e-01 -0.000000e+00
    outer loop
      vertex -3.159010e+00 1.840990e+00 4.000000e+00
      vertex -3.159010e+00 1.840990e+00 2.000000e+00
      vertex -2.671271e+00 1.111038e+00 2.000000e+00
    endloop
  endfacet
  facet normal -8.314697e-01 -5.555701e-01 0.000000e+00
    outer loop
      vertex -3.159010e+00 1.840990e+00 4.000000e+00
      vertex -2.671271e+00 1.111038e+00 2.000000e+00
      vertex -2.671271e+00 1.111038e+00 4.000000e+00
    endloop
  endfacet
  facet normal -9.807853e-01 -1.950904e-01 -0.000000e+00
    outer loop
      vertex -2.671271e+00 1.111038e+00 4.000000e+00
      vertex -2.671271e+00 1.111038e+00 2.000000e+00
      vertex -2.500000e+00 2.500000e-01 2.000000e+00
    endloop
  endfacet
  facet normal -9.807853e-01 -1.950904e-01 0.000000e+00
    outer loop
      vertex -2.671271e+00 1.111038e+00 4.000000e+00
      vertex -2.500000e+00 2.500000e-01 2.000000e+00
      vertex -2.500000e+00 2.500000e-01 4.000000e+00
    endloop
  endfacet
  facet normal -1.950904e-01 -9.807853e-01 0.000000e+00
    outer loop
      vertex -3.888962e+00 2.328729e+00 2.000000e+00
      vertex -4.750000e+00 2.500000e+00 4.000000e+00
      vertex -4.750000e+00 2.500000e+00 2.000000e+00
    endloop
  endfacet
  facet normal 1.950904e-01 -9.807853e-01 0.000000e+00
    outer loop
      vertex -4.750000e+00 2.500000e+00 2.000000e+00
      vertex -4.750000e+00 2.500000e+00 4.000000e+00
      vertex -5.611038e+00 2.328729e+00 4.000000e+00
    endloop
  endfacet
  facet normal 1.950904e-01 -9.807853e-01 0.000000e+00
    outer loop
      vertex -4.750000e+00 2.500000e+00 2.000000e+00
      vertex -5.611038e+00 2.328729e+00 4.000000e+00
      vertex -5.611038e+00 2.328729e+00 2.000000e+00
    endloop
  endfacet
  facet normal 5.555703e-01 -8.314696e-01 0.000000e+00
    outer loop
      vertex -5.611038e+00 2.328729e+00 2.000000e+00
      vertex -5.611038e+00 2.328729e+00 4.000000e+00
      vertex -6.340990e+00 1.840990e+00 4.000000e+00
    endloop
  endfacet
  facet normal 5.555703e-01 -8.314696e-01 0.000000e+00
    outer loop
      vertex -5.611038e+00 2.328729e+00 2.000000e+00
      vertex -6.340990e+00 1.840990e+00 4.000000e+00
      vertex -6.340990e+00 1.840990e+00 2.000000e+00
    endloop
  endfacet
  facet normal 8.314694e-01 -5.555705e-01 0.000000e+00
    outer loop
      vertex -6.340990e+00 1.840990e+00 2.000000e+00
      vertex -6.340990e+00 1.840990e+00 4.000000e+00
      vertex -6.828729e+00 1.111038e+00 4.000000e+00
    endloop
  endfacet
  facet normal 8.314694e-01 -5.555705e-01 0.000000e+00
    outer loop
      vertex -6.340990e+00 1.840990e+00 2.000000e+00
      vertex -6.828729e+00 1.111038e+00 4.000000e+00
      vertex -6.828729e+00 1.111038e+00 2.000000e+00
    endloop
  endfacet
  facet normal 9.807853e-01 -1.950901e-01 0.000000e+00
    outer loop
      vertex -6.828729e+00 1.111038e+00 2.000000e+00
      vertex -6.828729e+00 1.111038e+00 4.000000e+00
      vertex -7.000000e+00 2.500000e-01 4.000000e+00
    endloop
  endfacet
  facet normal 9.807853e-01 -1.950901e-01 0.000000e+00
    outer loop
      vertex -6.828729e+00 1.111038e+00 2.000000e+00
      vertex -7.000000e+00 2.500000e-01 4.000000e+00
      vertex -7.000000e+00 2.500000e-01 2.000000e+00
    endloop
  endfacet
  facet normal 9.984506e-01 5.564540e-02 -0.000000e+00
    outer loop
      vertex -7.000000e+00 2.500000e-01 0.000000e+00
      vertex -7.000000e+00 2.500000e-01 2.000000e+00
      vertex -6.986066e+00 -1.294784e-05 0.000000e+00
    endloop
  endfacet
  facet normal 9.806342e-01 1.950600e-01 -1.755185e-02
    outer loop
      vertex -6.828729e+00 -6.110377e-01 2.000000e+00
      vertex -6.986066e+00 -1.294784e-05 0.000000e+00
      vertex -7.000000e+00 2.500000e-01 2.000000e+00
    endloop
  endfacet
  facet normal 9.684101e-01 2.493629e-01 -0.000000e+00
    outer loop
      vertex -6.828729e+00 -6.110377e-01 0.000000e+00
      vertex -6.986066e+00 -1.294784e-05 0.000000e+00
      vertex -6.828729e+00 -6.110377e-01 2.000000e+00
    endloop
  endfacet
  facet normal -9.684099e-01 2.493636e-01 0.000000e+00
    outer loop
      vertex -2.671271e+00 -6.110377e-01 0.000000e+00
      vertex -2.671271e+00 -6.110377e-01 2.000000e+00
      vertex -2.513933e+00 -1.294784e-05 0.000000e+00
    endloop
  endfacet
  facet normal -9.806342e-01 1.950603e-01 -1.755201e-02
    outer loop
      vertex -2.500000e+00 2.500000e-01 2.000000e+00
      vertex -2.513933e+00 -1.294784e-05 0.000000e+00
      vertex -2.671271e+00 -6.110377e-01 2.000000e+00
    endloop
  endfacet
  facet normal -9.984506e-01 5.564445e-02 0.000000e+00
    outer loop
      vertex -2.500000e+00 2.500000e-01 0.000000e+00
      vertex -2.513933e+00 -1.294784e-05 0.000000e+00
      vertex -2.500000e+00 2.500000e-01 2.000000e+00
    endloop
  endfacet
  facet normal 1.950904e-01 9.807853e-01 0.000000e+00
    outer loop
      vertex -4.750000e+00 -2.000000e+00 2.000000e+00
      vertex -5.611038e+00 -1.828729e+00 0.000000e+00
      vertex -5.611038e+00 -1.828729e+00 2.000000e+00
    endloop
  endfacet
  facet normal 5.555703e-01 8.314696e-01 0.000000e+00
    outer loop
      vertex -5.611038e+00 -1.828729e+00 2.000000e+00
      vertex -5.611038e+00 -1.828729e+00 0.000000e+00
      vertex -6.340990e+00 -1.340990e+00 0.000000e+00
    endloop
  endfacet
  facet normal 5.555703e-01 8.314696e-01 0.000000e+00
    outer loop
      vertex -5.611038e+00 -1.828729e+00 2.000000e+00
      vertex -6.340990e+00 -1.340990e+00 0.000000e+00
      vertex -6.340990e+00 -1.340990e+00 2.000000e+00
    endloop
  endfacet
  facet normal 8.314694e-01 5.555705e-01 0.000000e+00
    outer loop
      vertex -6.340990e+00 -1.340990e+00 2.000000e+00
      vertex -6.340990e+00 -1.340990e+00 0.000000e+00
      vertex -6.828729e+00 -6.110377e-01 0.000000e+00
    endloop
  endfacet
  facet normal 8.314694e-01 5.555705e-01 0.000000e+00
    outer loop
      vertex -6.340990e+00 -1.340990e+00 2.000000e+00
      vertex -6.828729e+00 -6.110377e-01 0.000000e+00
      vertex -6.828729e+00 -6.110377e-01 2.000000e+00
    endloop
  endfacet
  facet normal 1.950904e-01 9.807853e-01 0.000000e+00
    outer loop
      vertex -5.611038e+00 -1.828729e+00 0.000000e+00
      vertex -4.750000e+00 -2.000000e+00 2.000000e+00
      vertex -4.750000e+00 -2.000000e+00 0.000000e+00
    endloop
  endfacet
  facet normal -1.950904e-01 9.807853e-01 0.000000e+00
    outer loop
      vertex -4.750000e+00 -2.000000e+00 0.000000e+00
      vertex -4.750000e+00 -2.000000e+00 2.000000e+00
      vertex -3.888962e+00 -1.828729e+00 2.000000e+00
    endloop
  endfacet
  facet normal -1.950904e-01 9.807853e-01 0.000000e+00
    outer loop
      vertex -4.750000e+00 -2.000000e+00 0.000000e+00
      vertex -3.888962e+00 -1.828729e+00 2.000000e+00
      vertex -3.888962e+00 -1.828729e+00 0.000000e+00
    endloop
  endfacet
  facet normal -5.555701e-01 8.314697e-01 0.000000e+00
    outer loop
      vertex -3.888962e+00 -1.828729e+00 0.000000e+00
      vertex -3.888962e+00 -1.828729e+00 2.000000e+00
      vertex -3.159010e+00 -1.340990e+00 2.000000e+00
    endloop
  endfacet
  facet normal -5.555701e-01 8.314697e-01 0.000000e+00
    outer loop
      vertex -3.888962e+00 -1.828729e+00 0.000000e+00
      vertex -3.159010e+00 -1.340990e+00 2.000000e+00
      vertex -3.159010e+00 -1.340990e+00 0.000000e+00
    endloop
  endfacet
  facet normal -8.314697e-01 5.555701e-01 0.000000e+00
    outer loop
      vertex -3.159010e+00 -1.340990e+00 0.000000e+00
      vertex -3.159010e+00 -1.340990e+00 2.000000e+00
      vertex -2.671271e+00 -6.110377e-01 2.000000e+00
    endloop
  endfacet
  facet normal -8.314697e-01 5.555701e-01 0.000000e+00
    outer loop
      vertex -3.159010e+00 -1.340990e+00 0.000000e+00
      vertex -2.671271e+00 -6.110377e-01 2.000000e+00
      vertex -2.671271e+00 -6.110377e-01 0.000000e+00
    endloop
  endfacet
  facet normal 9.684101e-01 2.493629e-01 0.000000e+00
    outer loop
      vertex -6.828729e+00 -6.110377e-01 4.000000e+00
      vertex -6.828729e+00 -6.110377e-01 2.000000e+00
      vertex -6.986066e+00 -1.294784e-05 4.000000e+00
    endloop
  endfacet
  facet normal 9.806342e-01 1.950600e-01 1.755185e-02
    outer loop
      vertex -6.986066e+00 -1.294784e-05 4.000000e+00
      vertex -6.828729e+00 -6.110377e-01 2.000000e+00
      vertex -7.000000e+00 2.500000e-01 2.000000e+00
    endloop
  endfacet
  facet normal 9.984506e-01 5.564540e-02 0.000000e+00
    outer loop
      vertex -6.986066e+00 -1.294784e-05 4.000000e+00
      vertex -7.000000e+00 2.500000e-01 2.000000e+00
      vertex -7.000000e+00 2.500000e-01 4.000000e+00
    endloop
  endfacet
  facet normal -9.984506e-01 5.564445e-02 0.000000e+00
    outer loop
      vertex -2.500000e+00 2.500000e-01 4.000000e+00
      vertex -2.500000e+00 2.500000e-01 2.000000e+00
      vertex -2.513933e+00 -1.294784e-05 4.000000e+00
    endloop
  endfacet
  facet normal -9.806342e-01 1.950603e-01 1.755201e-02
    outer loop
      vertex -2.513933e+00 -1.294784e-05 4.000000e+00
      vertex -2.500000e+00 2.500000e-01 2.000000e+00
      vertex -2.671271e+00 -6.110377e-01 2.000000e+00
    endloop
  endfacet
  facet normal -9.684099e-01 2.493636e-01 0.000000e+00
    outer loop
      vertex -2.513933e+00 -1.294784e-05 4.000000e+00
      vertex -2.671271e+00 -6.110377e-01 2.000000e+00
      vertex -2.671271e+00 -6.110377e-01 4.000000e+00
    endloop
  endfacet
  facet normal -8.314697e-01 5.555701e-01 0.000000e+00
    outer loop
      vertex -2.671271e+00 -6.110377e-01 4.000000e+00
      vertex -2.671271e+00 -6.110377e-01 2.000000e+00
      vertex -3.159010e+00 -1.340990e+00 2.000000e+00
    endloop
  endfacet
  facet normal -8.314697e-01 5.555701e-01 0.000000e+00
    outer loop
      vertex -2.671271e+00 -6.110377e-01 4.000000e+00
      vertex -3.159010e+00 -1.340990e+00 2.000000e+00
      vertex -3.159010e+00 -1.340990e+00 4.000000e+00
    endloop
  endfacet
  facet normal -5.555701e-01 8.314697e-01 0.000000e+00
    outer loop
      vertex -3.159010e+00 -1.340990e+00 4.000000e+00
      vertex -3.159010e+00 -1.340990e+00 2.000000e+00
      vertex -3.888962e+00 -1.828729e+00 2.000000e+00
    endloop
  endfacet
  facet normal -5.555701e-01 8.314697e-01 0.000000e+00
    outer loop
      vertex -3.159010e+00 -1.340990e+00 4.000000e+00
      vertex -3.888962e+00 -1.828729e+00 2.000000e+00
      vertex -3.888962e+00 -1.828729e+00 4.000000e+00
    endloop
  endfacet
  facet normal -1.950904e-01 9.807853e-01 0.000000e+00
    outer loop
      vertex -3.888962e+00 -1.828729e+00 4.000000e+00
      vertex -3.888962e+00 -1.828729e+00 2.000000e+00
      vertex -4.750000e+00 -2.000000e+00 2.000000e+00
    endloop
  endfacet
  facet normal -1.950904e-01 9.807853e-01 0.000000e+00
    outer loop
      vertex -3.888962e+00 -1.828729e+00 4.000000e+00
      vertex -4.750000e+00 -2.000000e+00 2.000000e+00
      vertex -4.750000e+00 -2.000000e+00 4.000000e+00
    endloop
  endfacet
  facet normal 1.950904e-01 9.807853e-01 0.000000e+00
    outer loop
      vertex -4.750000e+00 -2.000000e+00 4.000000e+00
      vertex -4.750000e+00 -2.000000e+00 2.000000e+00
      vertex -5.611038e+00 -1.828729e+00 2.000000e+00
    endloop
  endfacet
  facet normal 1.950904e-01 9.807853e-01 0.000000e+00
    outer loop
      vertex -4.750000e+00 -2.000000e+00 4.000000e+00
      vertex -5.611038e+00 -1.828729e+00 2.000000e+00
      vertex -5.611038e+00 -1.828729e+00 4.000000e+00
    endloop
  endfacet
  facet normal 5.555703e-01 8.314696e-01 0.000000e+00
    outer loop
      vertex -5.611038e+00 -1.828729e+00 4.000000e+00
      vertex -5.611038e+00 -1.828729e+00 2.000000e+00
      vertex -6.340990e+00 -1.340990e+00 2.000000e+00
    endloop
  endfacet
  facet normal 5.555703e-01 8.314696e-01 0.000000e+00
    outer loop
      vertex -5.611038e+00 -1.828729e+00 4.000000e+00
      vertex -6.340990e+00 -1.340990e+00 2.000000e+00
      vertex -6.340990e+00 -1.340990e+00 4.000000e+00
    endloop
  endfacet
  facet normal 8.314694e-01 5.555705e-01 0.000000e+00
    outer loop
      vertex -6.340990e+00 -1.340990e+00 4.000000e+00
      vertex -6.340990e+00 -1.340990e+00 2.000000e+00
      vertex -6.828729e+00 -6.110377e-01 2.000000e+00
    endloop
  endfacet
  facet normal 8.314694e-01 5.555705e-01 0.000000e+00
    outer loop
      vertex -6.340990e+00 -1.340990e+00 4.000000e+00
      vertex -6.828729e+00 -6.110377e-01 2.000000e+00
      vertex -6.828729e+00 -6.110377e-01 4.000000e+00
    endloop
  endfacet
  facet normal 1.950904e-01 -9.807853e-01 0.000000e+00
    outer loop
      vertex 4.750000e+00 2.500000e+00 2.000000e+00
      vertex 3.888962e+00 2.328729e+00 4.000000e+00
      vertex 3.888962e+00 2.328729e+00 2.000000e+00
    endloop
  endfacet
  facet normal 5.555701e-01 -8.314697e-01 0.000000e+00
    outer loop
      vertex 3.888962e+00 2.328729e+00 2.000000e+00
      vertex 3.888962e+00 2.328729e+00 4.000000e+00
      vertex 3.159010e+00 1.840990e+00 4.000000e+00
    endloop
  endfacet
  facet normal 5.555701e-01 -8.314697e-01 0.000000e+00
    outer loop
      vertex 3.888962e+00 2.328729e+00 2.000000e+00
      vertex 3.159010e+00 1.840990e+00 4.000000e+00
      vertex 3.159010e+00 1.840990e+00 2.000000e+00
    endloop
  endfacet
  facet normal 8.314697e-01 -5.555701e-01 0.000000e+00
    outer loop
      vertex 3.159010e+00 1.840990e+00 2.000000e+00
      vertex 3.159010e+00 1.840990e+00 4.000000e+00
      vertex 2.671271e+00 1.111038e+00 4.000000e+00
    endloop
  endfacet
  facet normal 8.314697e-01 -5.555701e-01 0.000000e+00
    outer loop
      vertex 3.159010e+00 1.840990e+00 2.000000e+00
      vertex 2.671271e+00 1.111038e+00 4.000000e+00
      vertex 2.671271e+00 1.111038e+00 2.000000e+00
    endloop
  endfacet
  facet normal 9.807853e-01 -1.950904e-01 0.000000e+00
    outer loop
      vertex 2.671271e+00 1.111038e+00 2.000000e+00
      vertex 2.671271e+00 1.111038e+00 4.000000e+00
      vertex 2.500000e+00 2.500000e-01 4.000000e+00
    endloop
  endfacet
  facet normal 9.807853e-01 -1.950904e-01 0.000000e+00
    outer loop
      vertex 2.671271e+00 1.111038e+00 2.000000e+00
      vertex 2.500000e+00 2.500000e-01 4.000000e+00
      vertex 2.500000e+00 2.500000e-01 2.000000e+00
    endloop
  endfacet
  facet normal 1.950904e-01 -9.807853e-01 0.000000e+00
    outer loop
      vertex 3.888962e+00 2.328729e+00 4.000000e+00
      vertex 4.750000e+00 2.500000e+00 2.000000e+00
      vertex 4.750000e+00 2.500000e+00 4.000000e+00
    endloop
  endfacet
  facet normal -1.950904e-01 -9.807853e-01 -0.000000e+00
    outer loop
      vertex 4.750000e+00 2.500000e+00 4.000000e+00
      vertex 4.750000e+00 2.500000e+00 2.000000e+00
      vertex 5.611038e+00 2.328729e+00 2.000000e+00
    endloop
  endfacet
  facet normal -1.950904e-01 -9.807853e-01 0.000000e+00
    outer loop
      vertex 4.750000e+00 2.500000e+00 4.000000e+00
      vertex 5.611038e+00 2.328729e+00 2.000000e+00
      vertex 5.611038e+00 2.328729e+00 4.000000e+00
    endloop
  endfacet
  facet normal -5.555703e-01 -8.314696e-01 -0.000000e+00
    outer loop
      vertex 5.611038e+00 2.328729e+00 4.000000e+00
      vertex 5.611038e+00 2.328729e+00 2.000000e+00
      vertex 6.340990e+00 1.840990e+00 2.000000e+00
    endloop
  endfacet
  facet normal -5.555703e-01 -8.314696e-01 0.000000e+00
    outer loop
      vertex 5.611038e+00 2.328729e+00 4.000000e+00
      vertex 6.340990e+00 1.840990e+00 2.000000e+00
      vertex 6.340990e+00 1.840990e+00 4.000000e+00
    endloop
  endfacet
  facet normal -8.314694e-01 -5.555705e-01 -0.000000e+00
    outer loop
      vertex 6.340990e+00 1.840990e+00 4.000000e+00
      vertex 6.340990e+00 1.840990e+00 2.000000e+00
      vertex 6.828729e+00 1.111038e+00 2.000000e+00
    endloop
  endfacet
  facet normal -8.314694e-01 -5.555705e-01 0.000000e+00
    outer loop
      vertex 6.340990e+00 1.840990e+00 4.000000e+00
      vertex 6.828729e+00 1.111038e+00 2.000000e+00
      vertex 6.828729e+00 1.111038e+00 4.000000e+00
    endloop
  endfacet
  facet normal -9.807853e-01 -1.950901e-01 -0.000000e+00
    outer loop
      vertex 6.828729e+00 1.111038e+00 4.000000e+00
      vertex 6.828729e+00 1.111038e+00 2.000000e+00
      vertex 7.000000e+00 2.500000e-01 2.000000e+00
    endloop
  endfacet
  facet normal -9.807853e-01 -1.950901e-01 0.000000e+00
    outer loop
      vertex 6.828729e+00 1.111038e+00 4.000000e+00
      vertex 7.000000e+00 2.500000e-01 2.000000e+00
      vertex 7.000000e+00 2.500000e-01 4.000000e+00
    endloop
  endfacet
  facet normal 1.950904e-01 -9.807853e-01 0.000000e+00
    outer loop
      vertex 4.750000e+00 2.500000e+00 0.000000e+00
      vertex 3.888962e+00 2.328729e+00 2.000000e+00
      vertex 3.888962e+00 2.328729e+00 0.000000e+00
    endloop
  endfacet
  facet normal 5.555701e-01 -8.314697e-01 0.000000e+00
    outer loop
      vertex 3.888962e+00 2.328729e+00 0.000000e+00
      vertex 3.888962e+00 2.328729e+00 2.000000e+00
      vertex 3.159010e+00 1.840990e+00 2.000000e+00
    endloop
  endfacet
  facet normal 5.555701e-01 -8.314697e-01 0.000000e+00
    outer loop
      vertex 3.888962e+00 2.328729e+00 0.000000e+00
      vertex 3.159010e+00 1.840990e+00 2.000000e+00
      vertex 3.159010e+00 1.840990e+00 0.000000e+00
    endloop
  endfacet
  facet normal 8.314697e-01 -5.555701e-01 0.000000e+00
    outer loop
      vertex 3.159010e+00 1.840990e+00 0.000000e+00
      vertex 3.159010e+00 1.840990e+00 2.000000e+00
      vertex 2.671271e+00 1.111038e+00 2.000000e+00
    endloop
  endfacet
  facet normal 8.314697e-01 -5.555701e-01 0.000000e+00
    outer loop
      vertex 3.159010e+00 1.840990e+00 0.000000e+00
      vertex 2.671271e+00 1.111038e+00 2.000000e+00
      vertex 2.671271e+00 1.111038e+00 0.000000e+00
    endloop
  endfacet
  facet normal 9.807853e-01 -1.950904e-01 0.000000e+00
    outer loop
      vertex 2.671271e+00 1.111038e+00 0.000000e+00
      vertex 2.671271e+00 1.111038e+00 2.000000e+00
      vertex 2.500000e+00 2.500000e-01 2.000000e+00
    endloop
  endfacet
  facet normal 9.807853e-01 -1.950904e-01 0.000000e+00
    outer loop
      vertex 2.671271e+00 1.111038e+00 0.000000e+00
      vertex 2.500000e+00 2.500000e-01 2.000000e+00
      vertex 2.500000e+00 2.500000e-01 0.000000e+00
    endloop
  endfacet
  facet normal 1.950904e-01 -9.807853e-01 0.000000e+00
    outer loop
      vertex 3.888962e+00 2.328729e+00 2.000000e+00
      vertex 4.750000e+00 2.500000e+00 0.000000e+00
      vertex 4.750000e+00 2.500000e+00 2.000000e+00
    endloop
  endfacet
  facet normal -1.950904e-01 -9.807853e-01 -0.000000e+00
    outer loop
      vertex 4.750000e+00 2.500000e+00 2.000000e+00
      vertex 4.750000e+00 2.500000e+00 0.000000e+00
      vertex 5.611038e+00 2.328729e+00 0.000000e+00
    endloop
  endfacet
  facet normal -1.950904e-01 -9.807853e-01 0.000000e+00
    outer loop
      vertex 4.750000e+00 2.500000e+00 2.000000e+00
      vertex 5.611038e+00 2.328729e+00 0.000000e+00
      vertex 5.611038e+00 2.328729e+00 2.000000e+00
    endloop
  endfacet
  facet normal -5.555703e-01 -8.314696e-01 -0.000000e+00
    outer loop
      vertex 5.611038e+00 2.328729e+00 2.000000e+00
      vertex 5.611038e+00 2.328729e+00 0.000000e+00
      vertex 6.340990e+00 1.840990e+00 0.000000e+00
    endloop
  endfacet
  facet normal -5.555703e-01 -8.314696e-01 0.000000e+00
    outer loop
      vertex 5.611038e+00 2.328729e+00 2.000000e+00
      vertex 6.340990e+00 1.840990e+00 0.000000e+00
      vertex 6.340990e+00 1.840990e+00 2.000000e+00
    endloop
  endfacet
  facet normal -8.314694e-01 -5.555705e-01 -0.000000e+00
    outer loop
      vertex 6.340990e+00 1.840990e+00 2.000000e+00
      vertex 6.340990e+00 1.840990e+00 0.000000e+00
      vertex 6.828729e+00 1.111038e+00 0.000000e+00
    endloop
  endfacet
  facet normal -8.314694e-01 -5.555705e-01 0.000000e+00
    outer loop
      vertex 6.340990e+00 1.840990e+00 2.000000e+00
      vertex 6.828729e+00 1.111038e+00 0.000000e+00
      vertex 6.828729e+00 1.111038e+00 2.000000e+00
    endloop
  endfacet
  facet normal -9.807853e-01 -1.950901e-01 -0.000000e+00
    outer loop
      vertex 6.828729e+00 1.111038e+00 2.000000e+00
      vertex 6.828729e+00 1.111038e+00 0.000000e+00
      vertex 7.000000e+00 2.500000e-01 0.000000e+00
    endloop
  endfacet
  facet normal -9.807853e-01 -1.950901e-01 0.000000e+00
    outer loop
      vertex 6.828729e+00 1.111038e+00 2.000000e+00
      vertex 7.000000e+00 2.500000e-01 0.000000e+00
      vertex 7.000000e+00 2.500000e-01 2.000000e+00
    endloop
  endfacet
  facet normal -9.684101e-01 2.493629e-01 0.000000e+00
    outer loop
      vertex 6.828729e+00 -6.110377e-01 4.000000e+00
      vertex 6.986066e+00 -1.294784e-05 4.000000e+00
      vertex 6.828729e+00 -6.110377e-01 2.000000e+00
    endloop
  endfacet
  facet normal -9.965649e-01 5.554030e-02 6.143009e-02
    outer loop
      vertex 6.828729e+00 -6.110377e-01 2.000000e+00
      vertex 6.986066e+00 -1.294784e-05 4.000000e+00
      vertex 7.000000e+00 2.500000e-01 4.000000e+00
    endloop
  endfacet
  facet normal -9.807853e-01 1.950901e-01 0.000000e+00
    outer loop
      vertex 6.828729e+00 -6.110377e-01 2.000000e+00
      vertex 7.000000e+00 2.500000e-01 4.000000e+00
      vertex 7.000000e+00 2.500000e-01 2.000000e+00
    endloop
  endfacet
  facet normal 9.984506e-01 5.564445e-02 0.000000e+00
    outer loop
      vertex 2.500000e+00 2.500000e-01 4.000000e+00
      vertex 2.513933e+00 -1.294784e-05 4.000000e+00
      vertex 2.500000e+00 2.500000e-01 2.000000e+00
    endloop
  endfacet
  facet normal 9.681211e-01 2.492893e-01 2.441815e-02
    outer loop
      vertex 2.500000e+00 2.500000e-01 2.000000e+00
      vertex 2.513933e+00 -1.294784e-05 4.000000e+00
      vertex 2.671271e+00 -6.110377e-01 4.000000e+00
    endloop
  endfacet
  facet normal 9.807853e-01 1.950904e-01 0.000000e+00
    outer loop
      vertex 2.500000e+00 2.500000e-01 2.000000e+00
      vertex 2.671271e+00 -6.110377e-01 4.000000e+00
      vertex 2.671271e+00 -6.110377e-01 2.000000e+00
    endloop
  endfacet
  facet normal 8.314697e-01 5.555701e-01 -0.000000e+00
    outer loop
      vertex 2.671271e+00 -6.110377e-01 2.000000e+00
      vertex 2.671271e+00 -6.110377e-01 4.000000e+00
      vertex 3.159010e+00 -1.340990e+00 4.000000e+00
    endloop
  endfacet
  facet normal 8.314697e-01 5.555701e-01 0.000000e+00
    outer loop
      vertex 2.671271e+00 -6.110377e-01 2.000000e+00
      vertex 3.159010e+00 -1.340990e+00 4.000000e+00
      vertex 3.159010e+00 -1.340990e+00 2.000000e+00
    endloop
  endfacet
  facet normal 5.555701e-01 8.314697e-01 -0.000000e+00
    outer loop
      vertex 3.159010e+00 -1.340990e+00 2.000000e+00
      vertex 3.159010e+00 -1.340990e+00 4.000000e+00
      vertex 3.888962e+00 -1.828729e+00 4.000000e+00
    endloop
  endfacet
  facet normal 5.555701e-01 8.314697e-01 0.000000e+00
    outer loop
      vertex 3.159010e+00 -1.340990e+00 2.000000e+00
      vertex 3.888962e+00 -1.828729e+00 4.000000e+00
      vertex 3.888962e+00 -1.828729e+00 2.000000e+00
    endloop
  endfacet
  facet normal 1.950904e-01 9.807853e-01 -0.000000e+00
    outer loop
      vertex 3.888962e+00 -1.828729e+00 2.000000e+00
      vertex 3.888962e+00 -1.828729e+00 4.000000e+00
      vertex 4.750000e+00 -2.000000e+00 4.000000e+00
    endloop
  endfacet
  facet normal 1.950904e-01 9.807853e-01 0.000000e+00
    outer loop
      vertex 3.888962e+00 -1.828729e+00 2.000000e+00
      vertex 4.750000e+00 -2.000000e+00 4.000000e+00
      vertex 4.750000e+00 -2.000000e+00 2.000000e+00
    endloop
  endfacet
  facet normal -1.950904e-01 9.807853e-01 0.000000e+00
    outer loop
      vertex 4.750000e+00 -2.000000e+00 2.000000e+00
      vertex 4.750000e+00 -2.000000e+00 4.000000e+00
      vertex 5.611038e+00 -1.828729e+00 4.000000e+00
    endloop
  endfacet
  facet normal -1.950904e-01 9.807853e-01 0.000000e+00
    outer loop
      vertex 4.750000e+00 -2.000000e+00 2.000000e+00
      vertex 5.611038e+00 -1.828729e+00 4.000000e+00
      vertex 5.611038e+00 -1.828729e+00 2.000000e+00
    endloop
  endfacet
  facet normal -5.555703e-01 8.314696e-01 0.000000e+00
    outer loop
      vertex 5.611038e+00 -1.828729e+00 2.000000e+00
      vertex 5.611038e+00 -1.828729e+00 4.000000e+00
      vertex 6.340990e+00 -1.340990e+00 4.000000e+00
    endloop
  endfacet
  facet normal -5.555703e-01 8.314696e-01 0.000000e+00
    outer loop
      vertex 5.611038e+00 -1.828729e+00 2.000000e+00
      vertex 6.340990e+00 -1.340990e+00 4.000000e+00
      vertex 6.340990e+00 -1.340990e+00 2.000000e+00
    endloop
  endfacet
  facet normal -8.314694e-01 5.555705e-01 0.000000e+00
    outer loop
      vertex 6.340990e+00 -1.340990e+00 2.000000e+00
      vertex 6.340990e+00 -1.340990e+00 4.000000e+00
      vertex 6.828729e+00 -6.110377e-01 4.000000e+00
    endloop
  endfacet
  facet normal -8.314694e-01 5.555705e-01 0.000000e+00
    outer loop
      vertex 6.340990e+00 -1.340990e+00 2.000000e+00
      vertex 6.828729e+00 -6.110377e-01 4.000000e+00
      vertex 6.828729e+00 -6.110377e-01 2.000000e+00
    endloop
  endfacet
  facet normal -9.684101e-01 2.493629e-01 0.000000e+00
    outer loop
      vertex 6.828729e+00 -6.110377e-01 0.000000e+00
      vertex 6.828729e+00 -6.110377e-01 2.000000e+00
      vertex 6.986066e+00 -1.294784e-05 0.000000e+00
    endloop
  endfacet
  facet normal -9.806342e-01 1.950600e-01 -1.755185e-02
    outer loop
      vertex 6.986066e+00 -1.294784e-05 0.000000e+00
      vertex 6.828729e+00 -6.110377e-01 2.000000e+00
      vertex 7.000000e+00 2.500000e-01 2.000000e+00
    endloop
  endfacet
  facet normal -9.984506e-01 5.564540e-02 0.000000e+00
    outer loop
      vertex 6.986066e+00 -1.294784e-05 0.000000e+00
      vertex 7.000000e+00 2.500000e-01 2.000000e+00
      vertex 7.000000e+00 2.500000e-01 0.000000e+00
    endloop
  endfacet
  facet normal 9.984506e-01 5.564445e-02 -0.000000e+00
    outer loop
      vertex 2.500000e+00 2.500000e-01 0.000000e+00
      vertex 2.500000e+00 2.500000e-01 2.000000e+00
      vertex 2.513933e+00 -1.294784e-05 0.000000e+00
    endloop
  endfacet
  facet normal 9.806342e-01 1.950603e-01 -1.755201e-02
    outer loop
      vertex 2.513933e+00 -1.294784e-05 0.000000e+00
      vertex 2.500000e+00 2.500000e-01 2.000000e+00
      vertex 2.671271e+00 -6.110377e-01 2.000000e+00
    endloop
  endfacet
  facet normal 9.684099e-01 2.493636e-01 0.000000e+00
    outer loop
      vertex 2.513933e+00 -1.294784e-05 0.000000e+00
      vertex 2.671271e+00 -6.110377e-01 2.000000e+00
      vertex 2.671271e+00 -6.110377e-01 0.000000e+00
    endloop
  endfacet
  facet normal 8.314697e-01 5.555701e-01 -0.000000e+00
    outer loop
      vertex 2.671271e+00 -6.110377e-01 0.000000e+00
      vertex 2.671271e+00 -6.110377e-01 2.000000e+00
      vertex 3.159010e+00 -1.340990e+00 2.000000e+00
    endloop
  endfacet
  facet normal 8.314697e-01 5.555701e-01 0.000000e+00
    outer loop
      vertex 2.671271e+00 -6.110377e-01 0.000000e+00
      vertex 3.159010e+00 -1.340990e+00 2.000000e+00
      vertex 3.159010e+00 -1.340990e+00 0.000000e+00
    endloop
  endfacet
  facet normal 5.555701e-01 8.314697e-01 -0.000000e+00
    outer loop
      vertex 3.159010e+00 -1.340990e+00 0.000000e+00
      vertex 3.159010e+00 -1.340990e+00 2.000000e+00
      vertex 3.888962e+00 -1.828729e+00 2.000000e+00
    endloop
  endfacet
  facet normal 5.555701e-01 8.314697e-01 0.000000e+00
    outer loop
      vertex 3.159010e+00 -1.340990e+00 0.000000e+00
      vertex 3.888962e+00 -1.828729e+00 2.000000e+00
      vertex 3.888962e+00 -1.828729e+00 0.000000e+00
    endloop
  endfacet
  facet normal 1.950904e-01 9.807853e-01 -0.000000e+00
    outer loop
      vertex 3.888962e+00 -1.828729e+00 0.000000e+00
      vertex 3.888962e+00 -1.828729e+00 2.000000e+00
      vertex 4.750000e+00 -2.000000e+00 2.000000e+00
    endloop
  endfacet
  facet normal 1.950904e-01 9.807853e-01 0.000000e+00
    outer loop
      vertex 3.888962e+00 -1.828729e+00 0.000000e+00
      vertex 4.750000e+00 -2.000000e+00 2.000000e+00
      vertex 4.750000e+00 -2.000000e+00 0.000000e+00
    endloop
  endfacet
  facet normal -1.950904e-01 9.807853e-01 0.000000e+00
    outer loop
      vertex 4.750000e+00 -2.000000e+00 0.000000e+00
      vertex 4.750000e+00 -2.000000e+00 2.000000e+00
      vertex 5.611038e+00 -1.828729e+00 2.000000e+00
    endloop
  endfacet
  facet normal -1.950904e-01 9.807853e-01 0.000000e+00
    outer loop
      vertex 4.750000e+00 -2.000000e+00 0.000000e+00
      vertex 5.611038e+00 -1.828729e+00 2.000000e+00
      vertex 5.611038e+00 -1.828729e+00 0.000000e+00
    endloop
  endfacet
  facet normal -5.555703e-01 8.314696e-01 0.000000e+00
    outer loop
      vertex 5.611038e+00 -1.828729e+00 0.000000e+00
      vertex 5.611038e+00 -1.828729e+00 2.000000e+00
      vertex 6.340990e+00 -1.340990e+00 2.000000e+00
    endloop
  endfacet
  facet normal -5.555703e-01 8.314696e-01 0.000000e+00
    outer loop
      vertex 5.611038e+00 -1.828729e+00 0.000000e+00
      vertex 6.340990e+00 -1.340990e+00 2.000000e+00
      vertex 6.340990e+00 -1.340990e+00 0.000000e+00
    endloop
  endfacet
  facet normal -8.314694e-01 5.555705e-01 0.000000e+00
    outer loop
      vertex 6.340990e+00 -1.340990e+00 0.000000e+00
      vertex 6.340990e+00 -1.340990e+00 2.000000e+00
      vertex 6.828729e+00 -6.110377e-01 2.000000e+00
    endloop
  endfacet
  facet normal -8.314694e-01 5.555705e-01 0.000000e+00
    outer loop
      vertex 6.340990e+00 -1.340990e+00 0.000000e+00
      vertex 6.828729e+00 -6.110377e-01 2.000000e+00
      vertex 6.828729e+00 -6.110377e-01 0.000000e+00
    endloop
  endfacet
  facet normal 0.000000e+00 0.000000e+00 -1.000000e+00
    outer loop
      vertex -6.986066e+00 -1.294784e-05 0.000000e+00
      vertex -9.500000e+00 0.000000e+00 0.000000e+00
      vertex -7.000000e+00 2.500000e-01 0.000000e+00
    endloop
  endfacet
  facet normal 0.000000e+00 0.000000e+00 -1.000000e+00
    outer loop
      vertex -3.888962e+00 2.328729e+00 0.000000e+00
      vertex -4.750000e+00 2.500000e+00 0.000000e+00
      vertex -2.664535e-15 3.750000e+00 0.000000e+00
    endloop
  endfacet
  facet normal 0.000000e+00 0.000000e+00 -1.000000e+00
    outer loop
      vertex -2.664535e-15 3.750000e+00 0.000000e+00
      vertex -4.750000e+00 2.500000e+00 0.000000e+00
      vertex -5.611038e+00 2.328729e+00 0.000000e+00
    endloop
  endfacet
  facet normal -0.000000e+00 0.000000e+00 -1.000000e+00
    outer loop
      vertex -2.664535e-15 3.750000e+00 0.000000e+00
      vertex -5.611038e+00 2.328729e+00 0.000000e+00
      vertex -7.500000e+00 3.750000e+00 0.000000e+00
    endloop
  endfacet
  facet normal 0.000000e+00 0.000000e+00 -1.000000e+00
    outer loop
      vertex 5.611038e+00 2.328729e+00 0.000000e+00
      vertex 4.750000e+00 2.500000e+00 0.000000e+00
      vertex 7.500000e+00 3.750000e+00 0.000000e+00
    endloop
  endfacet
  facet normal 0.000000e+00 0.000000e+00 -1.000000e+00
    outer loop
      vertex 7.500000e+00 3.750000e+00 0.000000e+00
      vertex 4.750000e+00 2.500000e+00 0.000000e+00
      vertex 3.888962e+00 2.328729e+00 0.000000e+00
    endloop
  endfacet
  facet normal -0.000000e+00 0.000000e+00 -1.000000e+00
    outer loop
      vertex 7.500000e+00 3.750000e+00 0.000000e+00
      vertex 3.888962e+00 2.328729e+00 0.000000e+00
      vertex -2.664535e-15 3.750000e+00 0.000000e+00
    endloop
  endfacet
  facet normal 0.000000e+00 0.000000e+00 -1.000000e+00
    outer loop
      vertex 6.828729e+00 1.111038e+00 0.000000e+00
      vertex 6.340990e+00 1.840990e+00 0.000000e+00
      vertex 9.500000e+00 1.250000e+00 0.000000e+00
    endloop
  endfacet
  facet normal 0.000000e+00 0.000000e+00 -1.000000e+00
    outer loop
      vertex 9.500000e+00 1.250000e+00 0.000000e+00
      vertex 6.340990e+00 1.840990e+00 0.000000e+00
      vertex 5.611038e+00 2.328729e+00 0.000000e+00
    endloop
  endfacet
  facet normal 0.000000e+00 0.000000e+00 -1.000000e+00
    outer loop
      vertex 9.500000e+00 1.250000e+00 0.000000e+00
      vertex 5.611038e+00 2.328729e+00 0.000000e+00
      vertex 7.500000e+00 3.750000e+00 0.000000e+00
    endloop
  endfacet
  facet normal 0.000000e+00 0.000000e+00 -1.000000e+00
    outer loop
      vertex 6.986066e+00 -1.294784e-05 0.000000e+00
      vertex 7.000000e+00 2.500000e-01 0.000000e+00
      vertex 9.500000e+00 0.000000e+00 0.000000e+00
    endloop
  endfacet
  facet normal 0.000000e+00 0.000000e+00 -1.000000e+00
    outer loop
      vertex 9.500000e+00 0.000000e+00 0.000000e+00
      vertex 7.000000e+00 2.500000e-01 0.000000e+00
      vertex 6.828729e+00 1.111038e+00 0.000000e+00
    endloop
  endfacet
  facet normal 0.000000e+00 0.000000e+00 -1.000000e+00
    outer loop
      vertex 9.500000e+00 0.000000e+00 0.000000e+00
      vertex 6.828729e+00 1.111038e+00 0.000000e+00
      vertex 9.500000e+00 1.250000e+00 0.000000e+00
    endloop
  endfacet
  facet normal 0.000000e+00 0.000000e+00 -1.000000e+00
    outer loop
      vertex -9.500000e+00 1.250000e+00 0.000000e+00
      vertex -7.500000e+00 3.750000e+00 0.000000e+00
      vertex -5.611038e+00 2.328729e+00 0.000000e+00
    endloop
  endfacet
  facet normal 0.000000e+00 0.000000e+00 -1.000000e+00
    outer loop
      vertex -9.500000e+00 1.250000e+00 0.000000e+00
      vertex -5.611038e+00 2.328729e+00 0.000000e+00
      vertex -6.340990e+00 1.840990e+00 0.000000e+00
    endloop
  endfacet
  facet normal 0.000000e+00 0.000000e+00 -1.000000e+00
    outer loop
      vertex -9.500000e+00 1.250000e+00 0.000000e+00
      vertex -6.340990e+00 1.840990e+00 0.000000e+00
      vertex -6.828729e+00 1.111038e+00 0.000000e+00
    endloop
  endfacet
  facet normal 0.000000e+00 0.000000e+00 -1.000000e+00
    outer loop
      vertex -9.500000e+00 1.250000e+00 0.000000e+00
      vertex -6.828729e+00 1.111038e+00 0.000000e+00
      vertex -7.000000e+00 2.500000e-01 0.000000e+00
    endloop
  endfacet
  facet normal 0.000000e+00 0.000000e+00 -1.000000e+00
    outer loop
      vertex -9.500000e+00 1.250000e+00 0.000000e+00
      vertex -7.000000e+00 2.500000e-01 0.000000e+00
      vertex -9.500000e+00 0.000000e+00 0.000000e+00
    endloop
  endfacet
  facet normal 0.000000e+00 0.000000e+00 -1.000000e+00
    outer loop
      vertex -1.776357e-15 0.000000e+00 0.000000e+00
      vertex -2.664535e-15 3.750000e+00 0.000000e+00
      vertex 3.888962e+00 2.328729e+00 0.000000e+00
    endloop
  endfacet
  facet normal 0.000000e+00 0.000000e+00 -1.000000e+00
    outer loop
      vertex -1.776357e-15 0.000000e+00 0.000000e+00
      vertex 3.888962e+00 2.328729e+00 0.000000e+00
      vertex 3.159010e+00 1.840990e+00 0.000000e+00
    endloop
  endfacet
  facet normal 0.000000e+00 0.000000e+00 -1.000000e+00
    outer loop
      vertex -1.776357e-15 0.000000e+00 0.000000e+00
      vertex 3.159010e+00 1.840990e+00 0.000000e+00
      vertex 2.671271e+00 1.111038e+00 0.000000e+00
    endloop
  endfacet
  facet normal 0.000000e+00 0.000000e+00 -1.000000e+00
    outer loop
      vertex -1.776357e-15 0.000000e+00 0.000000e+00
      vertex 2.671271e+00 1.111038e+00 0.000000e+00
      vertex 2.500000e+00 2.500000e-01 0.000000e+00
    endloop
  endfacet
  facet normal 0.000000e+00 0.000000e+00 -1.000000e+00
    outer loop
      vertex -1.776357e-15 0.000000e+00 0.000000e+00
      vertex 2.500000e+00 2.500000e-01 0.000000e+00
      vertex 2.513933e+00 -1.294784e-05 0.000000e+00
    endloop
  endfacet
  facet normal 0.000000e+00 0.000000e+00 -1.000000e+00
    outer loop
      vertex -1.776357e-15 -3.750000e+00 0.000000e+00
      vertex -1.776357e-15 0.000000e+00 0.000000e+00
      vertex 2.513933e+00 -1.294784e-05 0.000000e+00
    endloop
  endfacet
  facet normal 0.000000e+00 0.000000e+00 -1.000000e+00
    outer loop
      vertex -1.776357e-15 -3.750000e+00 0.000000e+00
      vertex 2.513933e+00 -1.294784e-05 0.000000e+00
      vertex 2.671271e+00 -6.110377e-01 0.000000e+00
    endloop
  endfacet
  facet normal 0.000000e+00 0.000000e+00 -1.000000e+00
    outer loop
      vertex -1.776357e-15 -3.750000e+00 0.000000e+00
      vertex 2.671271e+00 -6.110377e-01 0.000000e+00
      vertex 3.159010e+00 -1.340990e+00 0.000000e+00
    endloop
  endfacet
  facet normal 0.000000e+00 0.000000e+00 -1.000000e+00
    outer loop
      vertex -1.776357e-15 -3.750000e+00 0.000000e+00
      vertex 3.159010e+00 -1.340990e+00 0.000000e+00
      vertex 3.888962e+00 -1.828729e+00 0.000000e+00
    endloop
  endfacet
  facet normal 0.000000e+00 0.000000e+00 -1.000000e+00
    outer loop
      vertex -1.776357e-15 -3.750000e+00 0.000000e+00
      vertex 3.888962e+00 -1.828729e+00 0.000000e+00
      vertex 4.750000e+00 -2.000000e+00 0.000000e+00
    endloop
  endfacet
  facet normal 0.000000e+00 0.000000e+00 -1.000000e+00
    outer loop
      vertex -1.776357e-15 -3.750000e+00 0.000000e+00
      vertex 4.750000e+00 -2.000000e+00 0.000000e+00
      vertex 9.500000e+00 -3.750000e+00 0.000000e+00
    endloop
  endfacet
  facet normal 0.000000e+00 0.000000e+00 -1.000000e+00
    outer loop
      vertex 9.500000e+00 -3.750000e+00 0.000000e+00
      vertex 4.750000e+00 -2.000000e+00 0.000000e+00
      vertex 5.611038e+00 -1.828729e+00 0.000000e+00
    endloop
  endfacet
  facet normal 0.000000e+00 0.000000e+00 -1.000000e+00
    outer loop
      vertex 9.500000e+00 -3.750000e+00 0.000000e+00
      vertex 5.611038e+00 -1.828729e+00 0.000000e+00
      vertex 6.340990e+00 -1.340990e+00 0.000000e+00
    endloop
  endfacet
  facet normal 0.000000e+00 0.000000e+00 -1.000000e+00
    outer loop
      vertex 9.500000e+00 -3.750000e+00 0.000000e+00
      vertex 6.340990e+00 -1.340990e+00 0.000000e+00
      vertex 6.828729e+00 -6.110377e-01 0.000000e+00
    endloop
  endfacet
  facet normal 0.000000e+00 0.000000e+00 -1.000000e+00
    outer loop
      vertex 9.500000e+00 -3.750000e+00 0.000000e+00
      vertex 6.828729e+00 -6.110377e-01 0.000000e+00
      vertex 6.986066e+00 -1.294784e-05 0.000000e+00
    endloop
  endfacet
  facet normal 0.000000e+00 0.000000e+00 -1.000000e+00
    outer loop
      vertex 9.500000e+00 -3.750000e+00 0.000000e+00
      vertex 6.986066e+00 -1.294784e-05 0.000000e+00
      vertex 9.500000e+00 0.000000e+00 0.000000e+00
    endloop
  endfacet
  facet normal 0.000000e+00 0.000000e+00 -1.000000e+00
    outer loop
      vertex -9.500000e+00 -3.750000e+00 0.000000e+00
      vertex -9.500000e+00 0.000000e+00 0.000000e+00
      vertex -6.986066e+00 -1.294784e-05 0.000000e+00
    endloop
  endfacet
  facet normal 0.000000e+00 0.000000e+00 -1.000000e+00
    outer loop
      vertex -9.500000e+00 -3.750000e+00 0.000000e+00
      vertex -6.986066e+00 -1.294784e-05 0.000000e+00
      vertex -6.828729e+00 -6.110377e-01 0.000000e+00
    endloop
  endfacet
  facet normal 0.000000e+00 0.000000e+00 -1.000000e+00
    outer loop
      vertex -9.500000e+00 -3.750000e+00 0.000000e+00
      vertex -6.828729e+00 -6.110377e-01 0.000000e+00
      vertex -6.340990e+00 -1.340990e+00 0.000000e+00
    endloop
  endfacet
  facet normal 0.000000e+00 0.000000e+00 -1.000000e+00
    outer loop
      vertex -9.500000e+00 -3.750000e+00 0.000000e+00
      vertex -6.340990e+00 -1.340990e+00 0.000000e+00
      vertex -5.611038e+00 -1.828729e+00 0.000000e+00
    endloop
  endfacet
  facet normal 0.000000e+00 0.000000e+00 -1.000000e+00
    outer loop
      vertex -9.500000e+00 -3.750000e+00 0.000000e+00
      vertex -5.611038e+00 -1.828729e+00 0.000000e+00
      vertex -4.750000e+00 -2.000000e+00 0.000000e+00
    endloop
  endfacet
  facet normal 0.000000e+00 0.000000e+00 -1.000000e+00
    outer loop
      vertex -9.500000e+00 -3.750000e+00 0.000000e+00
      vertex -4.750000e+00 -2.000000e+00 0.000000e+00
      vertex -1.776357e-15 -3.750000e+00 0.000000e+00
    endloop
  endfacet
  facet normal -0.000000e+00 0.000000e+00 -1.000000e+00
    outer loop
      vertex -1.776357e-15 0.000000e+00 0.000000e+00
      vertex -2.513933e+00 -1.294784e-05 0.000000e+00
      vertex -2.500000e+00 2.500000e-01 0.000000e+00
    endloop
  endfacet
  facet normal 0.000000e+00 0.000000e+00 -1.000000e+00
    outer loop
      vertex -1.776357e-15 0.000000e+00 0.000000e+00
      vertex -2.500000e+00 2.500000e-01 0.000000e+00
      vertex -2.671271e+00 1.111038e+00 0.000000e+00
    endloop
  endfacet
  facet normal 0.000000e+00 0.000000e+00 -1.000000e+00
    outer loop
      vertex -1.776357e-15 0.000000e+00 0.000000e+00
      vertex -2.671271e+00 1.111038e+00 0.000000e+00
      vertex -3.159010e+00 1.840990e+00 0.000000e+00
    endloop
  endfacet
  facet normal 0.000000e+00 0.000000e+00 -1.000000e+00
    outer loop
      vertex -1.776357e-15 0.000000e+00 0.000000e+00
      vertex -3.159010e+00 1.840990e+00 0.000000e+00
      vertex -3.888962e+00 2.328729e+00 0.000000e+00
    endloop
  endfacet
  facet normal 0.000000e+00 0.000000e+00 -1.000000e+00
    outer loop
      vertex -1.776357e-15 0.000000e+00 0.000000e+00
      vertex -3.888962e+00 2.328729e+00 0.000000e+00
      vertex -2.664535e-15 3.750000e+00 0.000000e+00
    endloop
  endfacet
  facet normal 0.000000e+00 0.000000e+00 -1.000000e+00
    outer loop
      vertex -1.776357e-15 -3.750000e+00 0.000000e+00
      vertex -4.750000e+00 -2.000000e+00 0.000000e+00
      vertex -3.888962e+00 -1.828729e+00 0.000000e+00
    endloop
  endfacet
  facet normal 0.000000e+00 0.000000e+00 -1.000000e+00
    outer loop
      vertex -1.776357e-15 -3.750000e+00 0.000000e+00
      vertex -3.888962e+00 -1.828729e+00 0.000000e+00
      vertex -3.159010e+00 -1.340990e+00 0.000000e+00
    endloop
  endfacet
  facet normal 0.000000e+00 0.000000e+00 -1.000000e+00
    outer loop
      vertex -1.776357e-15 -3.750000e+00 0.000000e+00
      vertex -3.159010e+00 -1.340990e+00 0.000000e+00
      vertex -2.671271e+00 -6.110377e-01 0.000000e+00
    endloop
  endfacet
  facet normal 0.000000e+00 0.000000e+00 -1.000000e+00
    outer loop
      vertex -1.776357e-15 -3.750000e+00 0.000000e+00
      vertex -2.671271e+00 -6.110377e-01 0.000000e+00
      vertex -2.513933e+00 -1.294784e-05 0.000000e+00
    endloop
  endfacet
  facet normal 0.000000e+00 0.000000e+00 -1.000000e+00
    outer loop
      vertex -1.776357e-15 -3.750000e+00 0.000000e+00
      vertex -2.513933e+00 -1.294784e-05 0.000000e+00
      vertex -1.776357e-15 0.000000e+00 0.000000e+00
    endloop
  endfacet
  facet normal 0.000000e+00 0.000000e+00 1.000000e+00
    outer loop
      vertex -7.000000e+00 2.500000e-01 4.000000e+00
      vertex -9.500000e+00 0.000000e+00 4.000000e+00
      vertex -6.986066e+00 -1.294784e-05 4.000000e+00
    endloop
  endfacet
  facet normal -0.000000e+00 0.000000e+00 1.000000e+00
    outer loop
      vertex -7.500000e+00 3.750000e+00 4.000000e+00
      vertex -5.611038e+00 2.328729e+00 4.000000e+00
      vertex -2.664535e-15 3.750000e+00 4.000000e+00
    endloop
  endfacet
  facet normal 0.000000e+00 0.000000e+00 1.000000e+00
    outer loop
      vertex -2.664535e-15 3.750000e+00 4.000000e+00
      vertex -5.611038e+00 2.328729e+00 4.000000e+00
      vertex -4.750000e+00 2.500000e+00 4.000000e+00
    endloop
  endfacet
  facet normal 0.000000e+00 0.000000e+00 1.000000e+00
    outer loop
      vertex -2.664535e-15 3.750000e+00 4.000000e+00
      vertex -4.750000e+00 2.500000e+00 4.000000e+00
      vertex -3.888962e+00 2.328729e+00 4.000000e+00
    endloop
  endfacet
  facet normal -0.000000e+00 0.000000e+00 1.000000e+00
    outer loop
      vertex -2.664535e-15 3.750000e+00 4.000000e+00
      vertex 3.888962e+00 2.328729e+00 4.000000e+00
      vertex 7.500000e+00 3.750000e+00 4.000000e+00
    endloop
  endfacet
  facet normal 0.000000e+00 0.000000e+00 1.000000e+00
    outer loop
      vertex 7.500000e+00 3.750000e+00 4.000000e+00
      vertex 3.888962e+00 2.328729e+00 4.000000e+00
      vertex 4.750000e+00 2.500000e+00 4.000000e+00
    endloop
  endfacet
  facet normal 0.000000e+00 0.000000e+00 1.000000e+00
    outer loop
      vertex 7.500000e+00 3.750000e+00 4.000000e+00
      vertex 4.750000e+00 2.500000e+00 4.000000e+00
      vertex 5.611038e+00 2.328729e+00 4.000000e+00
    endloop
  endfacet
  facet normal 0.000000e+00 0.000000e+00 1.000000e+00
    outer loop
      vertex 7.500000e+00 3.750000e+00 4.000000e+00
      vertex 5.611038e+00 2.328729e+00 4.000000e+00
      vertex 9.500000e+00 1.250000e+00 4.000000e+00
    endloop
  endfacet
  facet normal 0.000000e+00 0.000000e+00 1.000000e+00
    outer loop
      vertex 9.500000e+00 1.250000e+00 4.000000e+00
      vertex 5.611038e+00 2.328729e+00 4.000000e+00
      vertex 6.340990e+00 1.840990e+00 4.000000e+00
    endloop
  endfacet
  facet normal 0.000000e+00 0.000000e+00 1.000000e+00
    outer loop
      vertex 9.500000e+00 1.250000e+00 4.000000e+00
      vertex 6.340990e+00 1.840990e+00 4.000000e+00
      vertex 6.828729e+00 1.111038e+00 4.000000e+00
    endloop
  endfacet
  facet normal 0.000000e+00 0.000000e+00 1.000000e+00
    outer loop
      vertex 9.500000e+00 1.250000e+00 4.000000e+00
      vertex 6.828729e+00 1.111038e+00 4.000000e+00
      vertex 9.500000e+00 0.000000e+00 4.000000e+00
    endloop
  endfacet
  facet normal 0.000000e+00 0.000000e+00 1.000000e+00
    outer loop
      vertex 9.500000e+00 0.000000e+00 4.000000e+00
      vertex 6.828729e+00 1.111038e+00 4.000000e+00
      vertex 7.000000e+00 2.500000e-01 4.000000e+00
    endloop
  endfacet
  facet normal 0.000000e+00 0.000000e+00 1.000000e+00
    outer loop
      vertex 9.500000e+00 0.000000e+00 4.000000e+00
      vertex 7.000000e+00 2.500000e-01 4.000000e+00
      vertex 6.986066e+00 -1.294784e-05 4.000000e+00
    endloop
  endfacet
  facet normal 0.000000e+00 0.000000e+00 1.000000e+00
    outer loop
      vertex -9.500000e+00 1.250000e+00 4.000000e+00
      vertex -9.500000e+00 0.000000e+00 4.000000e+00
      vertex -7.000000e+00 2.500000e-01 4.000000e+00
    endloop
  endfacet
  facet normal 0.000000e+00 0.000000e+00 1.000000e+00
    outer loop
      vertex -9.500000e+00 1.250000e+00 4.000000e+00
      vertex -7.000000e+00 2.500000e-01 4.000000e+00
      vertex -6.828729e+00 1.111038e+00 4.000000e+00
    endloop
  endfacet
  facet normal -0.000000e+00 0.000000e+00 1.000000e+00
    outer loop
      vertex -9.500000e+00 1.250000e+00 4.000000e+00
      vertex -6.828729e+00 1.111038e+00 4.000000e+00
      vertex -6.340990e+00 1.840990e+00 4.000000e+00
    endloop
  endfacet
  facet normal 0.000000e+00 0.000000e+00 1.000000e+00
    outer loop
      vertex -9.500000e+00 1.250000e+00 4.000000e+00
      vertex -6.340990e+00 1.840990e+00 4.000000e+00
      vertex -5.611038e+00 2.328729e+00 4.000000e+00
    endloop
  endfacet
  facet normal 0.000000e+00 0.000000e+00 1.000000e+00
    outer loop
      vertex -9.500000e+00 1.250000e+00 4.000000e+00
      vertex -5.611038e+00 2.328729e+00 4.000000e+00
      vertex -7.500000e+00 3.750000e+00 4.000000e+00
    endloop
  endfacet
  facet normal -0.000000e+00 0.000000e+00 1.000000e+00
    outer loop
      vertex -1.776357e-15 0.000000e+00 4.000000e+00
      vertex 2.513933e+00 -1.294784e-05 4.000000e+00
      vertex 2.500000e+00 2.500000e-01 4.000000e+00
    endloop
  endfacet
  facet normal 0.000000e+00 0.000000e+00 1.000000e+00
    outer loop
      vertex -1.776357e-15 0.000000e+00 4.000000e+00
      vertex 2.500000e+00 2.500000e-01 4.000000e+00
      vertex 2.671271e+00 1.111038e+00 4.000000e+00
    endloop
  endfacet
  facet normal 0.000000e+00 0.000000e+00 1.000000e+00
    outer loop
      vertex -1.776357e-15 0.000000e+00 4.000000e+00
      vertex 2.671271e+00 1.111038e+00 4.000000e+00
      vertex 3.159010e+00 1.840990e+00 4.000000e+00
    endloop
  endfacet
  facet normal 0.000000e+00 0.000000e+00 1.000000e+00
    outer loop
      vertex -1.776357e-15 0.000000e+00 4.000000e+00
      vertex 3.159010e+00 1.840990e+00 4.000000e+00
      vertex 3.888962e+00 2.328729e+00 4.000000e+00
    endloop
  endfacet
  facet normal 0.000000e+00 -0.000000e+00 1.000000e+00
    outer loop
      vertex -1.776357e-15 0.000000e+00 4.000000e+00
      vertex 3.888962e+00 2.328729e+00 4.000000e+00
      vertex -2.664535e-15 3.750000e+00 4.000000e+00
    endloop
  endfacet
  facet normal 0.000000e+00 0.000000e+00 1.000000e+00
    outer loop
      vertex -1.776357e-15 -3.750000e+00 4.000000e+00
      vertex 9.500000e+00 -3.750000e+00 4.000000e+00
      vertex 4.750000e+00 -2.000000e+00 4.000000e+00
    endloop
  endfacet
  facet normal 0.000000e+00 0.000000e+00 1.000000e+00
    outer loop
      vertex -1.776357e-15 -3.750000e+00 4.000000e+00
      vertex 4.750000e+00 -2.000000e+00 4.000000e+00
      vertex 3.888962e+00 -1.828729e+00 4.000000e+00
    endloop
  endfacet
  facet normal 0.000000e+00 0.000000e+00 1.000000e+00
    outer loop
      vertex -1.776357e-15 -3.750000e+00 4.000000e+00
      vertex 3.888962e+00 -1.828729e+00 4.000000e+00
      vertex 3.159010e+00 -1.340990e+00 4.000000e+00
    endloop
  endfacet
  facet normal 0.000000e+00 0.000000e+00 1.000000e+00
    outer loop
      vertex -1.776357e-15 -3.750000e+00 4.000000e+00
      vertex 3.159010e+00 -1.340990e+00 4.000000e+00
      vertex 2.671271e+00 -6.110377e-01 4.000000e+00
    endloop
  endfacet
  facet normal 0.000000e+00 0.000000e+00 1.000000e+00
    outer loop
      vertex -1.776357e-15 -3.750000e+00 4.000000e+00
      vertex 2.671271e+00 -6.110377e-01 4.000000e+00
      vertex 2.513933e+00 -1.294784e-05 4.000000e+00
    endloop
  endfacet
  facet normal 0.000000e+00 0.000000e+00 1.000000e+00
    outer loop
      vertex -1.776357e-15 -3.750000e+00 4.000000e+00
      vertex 2.513933e+00 -1.294784e-05 4.000000e+00
      vertex -1.776357e-15 0.000000e+00 4.000000e+00
    endloop
  endfacet
  facet normal 0.000000e+00 -0.000000e+00 1.000000e+00
    outer loop
      vertex 9.500000e+00 -3.750000e+00 4.000000e+00
      vertex 9.500000e+00 0.000000e+00 4.000000e+00
      vertex 6.986066e+00 -1.294784e-05 4.000000e+00
    endloop
  endfacet
  facet normal 0.000000e+00 0.000000e+00 1.000000e+00
    outer loop
      vertex 9.500000e+00 -3.750000e+00 4.000000e+00
      vertex 6.986066e+00 -1.294784e-05 4.000000e+00
      vertex 6.828729e+00 -6.110377e-01 4.000000e+00
    endloop
  endfacet
  facet normal 0.000000e+00 0.000000e+00 1.000000e+00
    outer loop
      vertex 9.500000e+00 -3.750000e+00 4.000000e+00
      vertex 6.828729e+00 -6.110377e-01 4.000000e+00
      vertex 6.340990e+00 -1.340990e+00 4.000000e+00
    endloop
  endfacet
  facet normal 0.000000e+00 0.000000e+00 1.000000e+00
    outer loop
      vertex 9.500000e+00 -3.750000e+00 4.000000e+00
      vertex 6.340990e+00 -1.340990e+00 4.000000e+00
      vertex 5.611038e+00 -1.828729e+00 4.000000e+00
    endloop
  endfacet
  facet normal 0.000000e+00 0.000000e+00 1.000000e+00
    outer loop
      vertex 9.500000e+00 -3.750000e+00 4.000000e+00
      vertex 5.611038e+00 -1.828729e+00 4.000000e+00
      vertex 4.750000e+00 -2.000000e+00 4.000000e+00
    endloop
  endfacet
  facet normal 0.000000e+00 0.000000e+00 1.000000e+00
    outer loop
      vertex -9.500000e+00 -3.750000e+00 4.000000e+00
      vertex -1.776357e-15 -3.750000e+00 4.000000e+00
      vertex -4.750000e+00 -2.000000e+00 4.000000e+00
    endloop
  endfacet
  facet normal 0.000000e+00 0.000000e+00 1.000000e+00
    outer loop
      vertex -9.500000e+00 -3.750000e+00 4.000000e+00
      vertex -4.750000e+00 -2.000000e+00 4.000000e+00
      vertex -5.611038e+00 -1.828729e+00 4.000000e+00
    endloop
  endfacet
  facet normal 0.000000e+00 0.000000e+00 1.000000e+00
    outer loop
      vertex -9.500000e+00 -3.750000e+00 4.000000e+00
      vertex -5.611038e+00 -1.828729e+00 4.000000e+00
      vertex -6.340990e+00 -1.340990e+00 4.000000e+00
    endloop
  endfacet
  facet normal 0.000000e+00 0.000000e+00 1.000000e+00
    outer loop
      vertex -9.500000e+00 -3.750000e+00 4.000000e+00
      vertex -6.340990e+00 -1.340990e+00 4.000000e+00
      vertex -6.828729e+00 -6.110377e-01 4.000000e+00
    endloop
  endfacet
  facet normal 0.000000e+00 0.000000e+00 1.000000e+00
    outer loop
      vertex -9.500000e+00 -3.750000e+00 4.000000e+00
      vertex -6.828729e+00 -6.110377e-01 4.000000e+00
      vertex -6.986066e+00 -1.294784e-05 4.000000e+00
    endloop
  endfacet
  facet normal 0.000000e+00 0.000000e+00 1.000000e+00
    outer loop
      vertex -9.500000e+00 -3.750000e+00 4.000000e+00
      vertex -6.986066e+00 -1.294784e-05 4.000000e+00
      vertex -9.500000e+00 0.000000e+00 4.000000e+00
    endloop
  endfacet
  facet normal 0.000000e+00 0.000000e+00 1.000000e+00
    outer loop
      vertex -1.776357e-15 0.000000e+00 4.000000e+00
      vertex -2.664535e-15 3.750000e+00 4.000000e+00
      vertex -3.888962e+00 2.328729e+00 4.000000e+00
    endloop
  endfacet
  facet normal 0.000000e+00 0.000000e+00 1.000000e+00
    outer loop
      vertex -1.776357e-15 0.000000e+00 4.000000e+00
      vertex -3.888962e+00 2.328729e+00 4.000000e+00
      vertex -3.159010e+00 1.840990e+00 4.000000e+00
    endloop
  endfacet
  facet normal 0.000000e+00 0.000000e+00 1.000000e+00
    outer loop
      vertex -1.776357e-15 0.000000e+00 4.000000e+00
      vertex -3.159010e+00 1.840990e+00 4.000000e+00
      vertex -2.671271e+00 1.111038e+00 4.000000e+00
    endloop
  endfacet
  facet normal 0.000000e+00 0.000000e+00 1.000000e+00
    outer loop
      vertex -1.776357e-15 0.000000e+00 4.000000e+00
      vertex -2.671271e+00 1.111038e+00 4.000000e+00
      vertex -2.500000e+00 2.500000e-01 4.000000e+00
    endloop
  endfacet
  facet normal 0.000000e+00 0.000000e+00 1.000000e+00
    outer loop
      vertex -1.776357e-15 0.000000e+00 4.000000e+00
      vertex -2.500000e+00 2.500000e-01 4.000000e+00
      vertex -2.513933e+00 -1.294784e-05 4.000000e+00
    endloop
  endfacet
  facet normal 0.000000e+00 -0.000000e+00 1.000000e+00
    outer loop
      vertex -1.776357e-15 -3.750000e+00 4.000000e+00
      vertex -1.776357e-15 0.000000e+00 4.000000e+00
      vertex -2.513933e+00 -1.294784e-05 4.000000e+00
    endloop
  endfacet
  facet normal 0.000000e+00 0.000000e+00 1.000000e+00
    outer loop
      vertex -1.776357e-15 -3.750000e+00 4.000000e+00
      vertex -2.513933e+00 -1.294784e-05 4.000000e+00
      vertex -2.671271e+00 -6.110377e-01 4.000000e+00
    endloop
  endfacet
  facet normal 0.000000e+00 0.000000e+00 1.000000e+00
    outer loop
      vertex -1.776357e-15 -3.750000e+00 4.000000e+00
      vertex -2.671271e+00 -6.110377e-01 4.000000e+00
      vertex -3.159010e+00 -1.340990e+00 4.000000e+00
    endloop
  endfacet
  facet normal 0.000000e+00 0.000000e+00 1.000000e+00
    outer loop
      vertex -1.776357e-15 -3.750000e+00 4.000000e+00
      vertex -3.159010e+00 -1.340990e+00 4.000000e+00
      vertex -3.888962e+00 -1.828729e+00 4.000000e+00
    endloop
  endfacet
  facet normal 0.000000e+00 0.000000e+00 1.000000e+00
    outer loop
      vertex -1.776357e-15 -3.750000e+00 4.000000e+00
      vertex -3.888962e+00 -1.828729e+00 4.000000e+00
      vertex -4.750000e+00 -2.000000e+00 4.000000e+00
    endloop
  endfacet
endsolid
