solid 3D Shape01078320 A.1 
  facet normal 9.414786e-01 3.370727e-01 0.000000e+00
    outer loop
      vertex -3.600000e+00 -5.950000e+00 2.500000e+01
      vertex -3.600000e+00 -5.950000e+00 1.250000e+01
      vertex -4.119136e+00 -4.500000e+00 2.500000e+01
    endloop
  endfacet
  facet normal 9.414786e-01 3.370727e-01 8.867793e-09
    outer loop
      vertex -5.050000e+00 -1.900000e+00 1.250000e+01
      vertex -4.119136e+00 -4.500000e+00 2.500000e+01
      vertex -3.600000e+00 -5.950000e+00 1.250000e+01
    endloop
  endfacet
  facet normal 9.414786e-01 3.370726e-01 0.000000e+00
    outer loop
      vertex -5.050000e+00 -1.900000e+00 2.500000e+01
      vertex -4.119136e+00 -4.500000e+00 2.500000e+01
      vertex -5.050000e+00 -1.900000e+00 1.250000e+01
    endloop
  endfacet
  facet normal 9.414786e-01 3.370727e-01 -0.000000e+00
    outer loop
      vertex -5.050000e+00 -1.900000e+00 3.552714e-15
      vertex -5.050000e+00 -1.900000e+00 1.250000e+01
      vertex -3.600000e+00 -5.950000e+00 0.000000e+00
    endloop
  endfacet
  facet normal 9.414786e-01 3.370727e-01 -0.000000e+00
    outer loop
      vertex -3.600000e+00 -5.950000e+00 0.000000e+00
      vertex -5.050000e+00 -1.900000e+00 1.250000e+01
      vertex -3.600000e+00 -5.950000e+00 1.250000e+01
    endloop
  endfacet
  facet normal 9.414787e-01 3.370726e-01 -0.000000e+00
    outer loop
      vertex -3.600000e+00 -5.950000e+00 0.000000e+00
      vertex -3.600000e+00 -5.950000e+00 1.250000e+01
      vertex -2.150000e+00 -1.000000e+01 0.000000e+00
    endloop
  endfacet
  facet normal 9.414787e-01 3.370726e-01 -0.000000e+00
    outer loop
      vertex -2.150000e+00 -1.000000e+01 0.000000e+00
      vertex -3.600000e+00 -5.950000e+00 1.250000e+01
      vertex -2.150000e+00 -1.000000e+01 1.250000e+01
    endloop
  endfacet
  facet normal 9.414787e-01 3.370726e-01 -0.000000e+00
    outer loop
      vertex -3.600000e+00 -5.950000e+00 1.250000e+01
      vertex -3.600000e+00 -5.950000e+00 2.500000e+01
      vertex -2.150000e+00 -1.000000e+01 1.250000e+01
    endloop
  endfacet
  facet normal 9.414787e-01 3.370726e-01 -0.000000e+00
    outer loop
      vertex -2.150000e+00 -1.000000e+01 1.250000e+01
      vertex -3.600000e+00 -5.950000e+00 2.500000e+01
      vertex -2.150000e+00 -1.000000e+01 2.500000e+01
    endloop
  endfacet
  facet normal -0.000000e+00 -1.000000e+00 0.000000e+00
    outer loop
      vertex 5.050000e+00 -1.900000e+00 3.552714e-15
      vertex 5.050000e+00 -1.900000e+00 1.250000e+01
      vertex 0.000000e+00 -1.900000e+00 0.000000e+00
    endloop
  endfacet
  facet normal 0.000000e+00 -1.000000e+00 0.000000e+00
    outer loop
      vertex 0.000000e+00 -1.900000e+00 0.000000e+00
      vertex 5.050000e+00 -1.900000e+00 1.250000e+01
      vertex 0.000000e+00 -1.900000e+00 1.250000e+01
    endloop
  endfacet
  facet normal 0.000000e+00 -1.000000e+00 0.000000e+00
    outer loop
      vertex 5.050000e+00 -1.900000e+00 1.250000e+01
      vertex 5.050000e+00 -1.900000e+00 2.500000e+01
      vertex 0.000000e+00 -1.900000e+00 1.250000e+01
    endloop
  endfacet
  facet normal 0.000000e+00 -1.000000e+00 0.000000e+00
    outer loop
      vertex 0.000000e+00 -1.900000e+00 1.250000e+01
      vertex 5.050000e+00 -1.900000e+00 2.500000e+01
      vertex -3.229417e-12 -1.900000e+00 2.500000e+01
    endloop
  endfacet
  facet normal 0.000000e+00 -1.000000e+00 0.000000e+00
    outer loop
      vertex 0.000000e+00 -1.900000e+00 0.000000e+00
      vertex 0.000000e+00 -1.900000e+00 1.250000e+01
      vertex -5.050000e+00 -1.900000e+00 3.552714e-15
    endloop
  endfacet
  facet normal 0.000000e+00 -1.000000e+00 0.000000e+00
    outer loop
      vertex -5.050000e+00 -1.900000e+00 3.552714e-15
      vertex 0.000000e+00 -1.900000e+00 1.250000e+01
      vertex -5.050000e+00 -1.900000e+00 1.250000e+01
    endloop
  endfacet
  facet normal 0.000000e+00 -1.000000e+00 0.000000e+00
    outer loop
      vertex 0.000000e+00 -1.900000e+00 1.250000e+01
      vertex -3.229417e-12 -1.900000e+00 2.500000e+01
      vertex -5.050000e+00 -1.900000e+00 1.250000e+01
    endloop
  endfacet
  facet normal 0.000000e+00 -1.000000e+00 0.000000e+00
    outer loop
      vertex -5.050000e+00 -1.900000e+00 1.250000e+01
      vertex -3.229417e-12 -1.900000e+00 2.500000e+01
      vertex -5.050000e+00 -1.900000e+00 2.500000e+01
    endloop
  endfacet
  facet normal -9.414787e-01 3.370726e-01 0.000000e+00
    outer loop
      vertex 2.150000e+00 -1.000000e+01 0.000000e+00
      vertex 2.150000e+00 -1.000000e+01 1.250000e+01
      vertex 3.600000e+00 -5.950000e+00 0.000000e+00
    endloop
  endfacet
  facet normal -9.414787e-01 3.370726e-01 0.000000e+00
    outer loop
      vertex 3.600000e+00 -5.950000e+00 0.000000e+00
      vertex 2.150000e+00 -1.000000e+01 1.250000e+01
      vertex 3.600000e+00 -5.950000e+00 1.250000e+01
    endloop
  endfacet
  facet normal -9.414787e-01 3.370726e-01 0.000000e+00
    outer loop
      vertex 2.150000e+00 -1.000000e+01 1.250000e+01
      vertex 2.150000e+00 -1.000000e+01 2.500000e+01
      vertex 3.600000e+00 -5.950000e+00 1.250000e+01
    endloop
  endfacet
  facet normal -9.414787e-01 3.370726e-01 0.000000e+00
    outer loop
      vertex 3.600000e+00 -5.950000e+00 1.250000e+01
      vertex 2.150000e+00 -1.000000e+01 2.500000e+01
      vertex 3.600000e+00 -5.950000e+00 2.500000e+01
    endloop
  endfacet
  facet normal -9.414786e-01 3.370727e-01 0.000000e+00
    outer loop
      vertex 5.050000e+00 -1.900000e+00 1.250000e+01
      vertex 5.050000e+00 -1.900000e+00 3.552714e-15
      vertex 3.600000e+00 -5.950000e+00 1.250000e+01
    endloop
  endfacet
  facet normal -9.414786e-01 3.370727e-01 0.000000e+00
    outer loop
      vertex 3.600000e+00 -5.950000e+00 1.250000e+01
      vertex 5.050000e+00 -1.900000e+00 3.552714e-15
      vertex 3.600000e+00 -5.950000e+00 0.000000e+00
    endloop
  endfacet
  facet normal -9.414786e-01 3.370727e-01 0.000000e+00
    outer loop
      vertex 3.600000e+00 -5.950000e+00 2.500000e+01
      vertex 4.119136e+00 -4.500000e+00 2.500000e+01
      vertex 3.600000e+00 -5.950000e+00 1.250000e+01
    endloop
  endfacet
  facet normal -9.414786e-01 3.370726e-01 6.906646e-09
    outer loop
      vertex 3.600000e+00 -5.950000e+00 1.250000e+01
      vertex 4.119136e+00 -4.500000e+00 2.500000e+01
      vertex 5.050000e+00 -1.900000e+00 2.500000e+01
    endloop
  endfacet
  facet normal -9.414786e-01 3.370727e-01 0.000000e+00
    outer loop
      vertex 3.600000e+00 -5.950000e+00 1.250000e+01
      vertex 5.050000e+00 -1.900000e+00 2.500000e+01
      vertex 5.050000e+00 -1.900000e+00 1.250000e+01
    endloop
  endfacet
  facet normal 0.000000e+00 -1.000000e+00 0.000000e+00
    outer loop
      vertex 2.150000e+00 -1.000000e+01 1.250000e+01
      vertex 9.825000e+00 -1.000000e+01 1.250000e+01
      vertex 2.150000e+00 -1.000000e+01 2.500000e+01
    endloop
  endfacet
  facet normal 0.000000e+00 -1.000000e+00 0.000000e+00
    outer loop
      vertex 2.150000e+00 -1.000000e+01 2.500000e+01
      vertex 9.825000e+00 -1.000000e+01 1.250000e+01
      vertex 9.825000e+00 -1.000000e+01 2.500000e+01
    endloop
  endfacet
  facet normal 0.000000e+00 -1.000000e+00 0.000000e+00
    outer loop
      vertex 9.825000e+00 -1.000000e+01 1.250000e+01
      vertex 1.750000e+01 -1.000000e+01 1.250000e+01
      vertex 9.825000e+00 -1.000000e+01 2.500000e+01
    endloop
  endfacet
  facet normal 0.000000e+00 -1.000000e+00 0.000000e+00
    outer loop
      vertex 9.825000e+00 -1.000000e+01 2.500000e+01
      vertex 1.750000e+01 -1.000000e+01 1.250000e+01
      vertex 1.750000e+01 -1.000000e+01 2.500000e+01
    endloop
  endfacet
  facet normal 0.000000e+00 -1.000000e+00 0.000000e+00
    outer loop
      vertex 2.150000e+00 -1.000000e+01 0.000000e+00
      vertex 9.825000e+00 -1.000000e+01 0.000000e+00
      vertex 2.150000e+00 -1.000000e+01 1.250000e+01
    endloop
  endfacet
  facet normal 0.000000e+00 -1.000000e+00 0.000000e+00
    outer loop
      vertex 2.150000e+00 -1.000000e+01 1.250000e+01
      vertex 9.825000e+00 -1.000000e+01 0.000000e+00
      vertex 9.825000e+00 -1.000000e+01 1.250000e+01
    endloop
  endfacet
  facet normal 0.000000e+00 -1.000000e+00 0.000000e+00
    outer loop
      vertex 9.825000e+00 -1.000000e+01 0.000000e+00
      vertex 1.750000e+01 -1.000000e+01 0.000000e+00
      vertex 9.825000e+00 -1.000000e+01 1.250000e+01
    endloop
  endfacet
  facet normal 0.000000e+00 -1.000000e+00 0.000000e+00
    outer loop
      vertex 9.825000e+00 -1.000000e+01 1.250000e+01
      vertex 1.750000e+01 -1.000000e+01 0.000000e+00
      vertex 1.750000e+01 -1.000000e+01 1.250000e+01
    endloop
  endfacet
  facet normal 0.000000e+00 -1.000000e+00 0.000000e+00
    outer loop
      vertex -1.750000e+01 -1.000000e+01 1.250000e+01
      vertex -9.825000e+00 -1.000000e+01 1.250000e+01
      vertex -1.750000e+01 -1.000000e+01 2.500000e+01
    endloop
  endfacet
  facet normal 0.000000e+00 -1.000000e+00 0.000000e+00
    outer loop
      vertex -1.750000e+01 -1.000000e+01 2.500000e+01
      vertex -9.825000e+00 -1.000000e+01 1.250000e+01
      vertex -9.825000e+00 -1.000000e+01 2.500000e+01
    endloop
  endfacet
  facet normal 0.000000e+00 -1.000000e+00 0.000000e+00
    outer loop
      vertex -9.825000e+00 -1.000000e+01 1.250000e+01
      vertex -2.150000e+00 -1.000000e+01 1.250000e+01
      vertex -9.825000e+00 -1.000000e+01 2.500000e+01
    endloop
  endfacet
  facet normal 0.000000e+00 -1.000000e+00 0.000000e+00
    outer loop
      vertex -9.825000e+00 -1.000000e+01 2.500000e+01
      vertex -2.150000e+00 -1.000000e+01 1.250000e+01
      vertex -2.150000e+00 -1.000000e+01 2.500000e+01
    endloop
  endfacet
  facet normal 0.000000e+00 -1.000000e+00 0.000000e+00
    outer loop
      vertex -1.750000e+01 -1.000000e+01 0.000000e+00
      vertex -9.825000e+00 -1.000000e+01 0.000000e+00
      vertex -1.750000e+01 -1.000000e+01 1.250000e+01
    endloop
  endfacet
  facet normal 0.000000e+00 -1.000000e+00 0.000000e+00
    outer loop
      vertex -1.750000e+01 -1.000000e+01 1.250000e+01
      vertex -9.825000e+00 -1.000000e+01 0.000000e+00
      vertex -9.825000e+00 -1.000000e+01 1.250000e+01
    endloop
  endfacet
  facet normal 0.000000e+00 -1.000000e+00 0.000000e+00
    outer loop
      vertex -9.825000e+00 -1.000000e+01 0.000000e+00
      vertex -2.150000e+00 -1.000000e+01 0.000000e+00
      vertex -9.825000e+00 -1.000000e+01 1.250000e+01
    endloop
  endfacet
  facet normal 0.000000e+00 -1.000000e+00 0.000000e+00
    outer loop
      vertex -9.825000e+00 -1.000000e+01 1.250000e+01
      vertex -2.150000e+00 -1.000000e+01 0.000000e+00
      vertex -2.150000e+00 -1.000000e+01 1.250000e+01
    endloop
  endfacet
  facet normal 7.071068e-01 -7.071068e-01 0.000000e+00
    outer loop
      vertex 1.900000e+01 4.500000e+00 7.142222e+00
      vertex 2.050000e+01 6.000000e+00 9.284444e+00
      vertex 1.900000e+01 4.500000e+00 1.650000e+01
    endloop
  endfacet
  facet normal 7.071068e-01 -7.071068e-01 0.000000e+00
    outer loop
      vertex 1.900000e+01 4.500000e+00 1.650000e+01
      vertex 2.050000e+01 6.000000e+00 9.284444e+00
      vertex 2.050000e+01 6.000000e+00 1.650000e+01
    endloop
  endfacet
  facet normal 7.071068e-01 -7.071068e-01 0.000000e+00
    outer loop
      vertex 1.900000e+01 4.500000e+00 1.650000e+01
      vertex 2.050000e+01 6.000000e+00 1.650000e+01
      vertex 1.900000e+01 4.500000e+00 2.650000e+01
    endloop
  endfacet
  facet normal 7.071068e-01 -7.071068e-01 0.000000e+00
    outer loop
      vertex 1.900000e+01 4.500000e+00 2.650000e+01
      vertex 2.050000e+01 6.000000e+00 1.650000e+01
      vertex 2.050000e+01 6.000000e+00 2.800000e+01
    endloop
  endfacet
  facet normal 7.071068e-01 -7.071068e-01 0.000000e+00
    outer loop
      vertex 1.750000e+01 3.000000e+00 5.000000e+00
      vertex 1.900000e+01 4.500000e+00 7.142222e+00
      vertex 1.750000e+01 3.000000e+00 1.250000e+01
    endloop
  endfacet
  facet normal 7.071068e-01 -7.071068e-01 0.000000e+00
    outer loop
      vertex 1.750000e+01 3.000000e+00 1.250000e+01
      vertex 1.900000e+01 4.500000e+00 7.142222e+00
      vertex 1.900000e+01 4.500000e+00 1.650000e+01
    endloop
  endfacet
  facet normal 7.071068e-01 -7.071068e-01 0.000000e+00
    outer loop
      vertex 1.750000e+01 3.000000e+00 1.250000e+01
      vertex 1.900000e+01 4.500000e+00 1.650000e+01
      vertex 1.750000e+01 3.000000e+00 1.650000e+01
    endloop
  endfacet
  facet normal 7.071068e-01 -7.071068e-01 0.000000e+00
    outer loop
      vertex 1.900000e+01 4.500000e+00 2.650000e+01
      vertex 1.750000e+01 3.000000e+00 2.500000e+01
      vertex 1.900000e+01 4.500000e+00 1.650000e+01
    endloop
  endfacet
  facet normal 7.071068e-01 -7.071068e-01 0.000000e+00
    outer loop
      vertex 1.900000e+01 4.500000e+00 1.650000e+01
      vertex 1.750000e+01 3.000000e+00 2.500000e+01
      vertex 1.750000e+01 3.000000e+00 1.650000e+01
    endloop
  endfacet
  facet normal 0.000000e+00 0.000000e+00 -1.000000e+00
    outer loop
      vertex -3.229417e-12 5.684342e-14 0.000000e+00
      vertex 1.750000e+01 5.773160e-14 0.000000e+00
      vertex -3.229417e-12 -1.900000e+00 0.000000e+00
    endloop
  endfacet
  facet normal 7.035076e-16 -6.479676e-15 -1.000000e+00
    outer loop
      vertex -3.229417e-12 -1.900000e+00 0.000000e+00
      vertex 1.750000e+01 5.773160e-14 0.000000e+00
      vertex 5.050000e+00 -1.900000e+00 3.552714e-15
    endloop
  endfacet
  facet normal -2.853585e-16 -0.000000e+00 -1.000000e+00
    outer loop
      vertex 1.750000e+01 5.773160e-14 0.000000e+00
      vertex 1.750000e+01 -1.000000e+01 0.000000e+00
      vertex 5.050000e+00 -1.900000e+00 3.552714e-15
    endloop
  endfacet
  facet normal 0.000000e+00 4.386066e-16 -1.000000e+00
    outer loop
      vertex 5.050000e+00 -1.900000e+00 3.552714e-15
      vertex 1.750000e+01 -1.000000e+01 0.000000e+00
      vertex 2.150000e+00 -1.000000e+01 0.000000e+00
    endloop
  endfacet
  facet normal -7.035076e-16 0.000000e+00 -1.000000e+00
    outer loop
      vertex -3.229417e-12 -1.900000e+00 0.000000e+00
      vertex -5.050000e+00 -1.900000e+00 3.552714e-15
      vertex -3.229417e-12 5.684342e-14 0.000000e+00
    endloop
  endfacet
  facet normal 9.490056e-32 -1.869849e-15 -1.000000e+00
    outer loop
      vertex -3.229417e-12 5.684342e-14 0.000000e+00
      vertex -5.050000e+00 -1.900000e+00 3.552714e-15
      vertex -1.750000e+01 5.595524e-14 0.000000e+00
    endloop
  endfacet
  facet normal 3.726558e-16 5.720266e-16 -1.000000e+00
    outer loop
      vertex -5.050000e+00 -1.900000e+00 3.552714e-15
      vertex -2.150000e+00 -1.000000e+01 0.000000e+00
      vertex -1.750000e+01 5.595524e-14 0.000000e+00
    endloop
  endfacet
  facet normal 0.000000e+00 0.000000e+00 -1.000000e+00
    outer loop
      vertex -1.750000e+01 5.595524e-14 0.000000e+00
      vertex -2.150000e+00 -1.000000e+01 0.000000e+00
      vertex -1.750000e+01 -1.000000e+01 0.000000e+00
    endloop
  endfacet
  facet normal 0.000000e+00 0.000000e+00 -1.000000e+00
    outer loop
      vertex -3.229417e-12 5.684342e-14 0.000000e+00
      vertex -3.227640e-12 1.000000e+01 0.000000e+00
      vertex 1.750000e+01 5.773160e-14 0.000000e+00
    endloop
  endfacet
  facet normal 0.000000e+00 0.000000e+00 -1.000000e+00
    outer loop
      vertex 1.750000e+01 5.773160e-14 0.000000e+00
      vertex -3.227640e-12 1.000000e+01 0.000000e+00
      vertex 1.750000e+01 1.000000e+01 0.000000e+00
    endloop
  endfacet
  facet normal 0.000000e+00 0.000000e+00 -1.000000e+00
    outer loop
      vertex -1.750000e+01 5.595524e-14 0.000000e+00
      vertex -1.750000e+01 1.000000e+01 0.000000e+00
      vertex -3.229417e-12 5.684342e-14 0.000000e+00
    endloop
  endfacet
  facet normal 0.000000e+00 0.000000e+00 -1.000000e+00
    outer loop
      vertex -3.229417e-12 5.684342e-14 0.000000e+00
      vertex -1.750000e+01 1.000000e+01 0.000000e+00
      vertex -3.227640e-12 1.000000e+01 0.000000e+00
    endloop
  endfacet
  facet normal 0.000000e+00 0.000000e+00 1.000000e+00
    outer loop
      vertex -1.750000e+01 5.595524e-14 2.500000e+01
      vertex -3.234746e-12 3.000000e+00 2.500000e+01
      vertex -1.750000e+01 3.000000e+00 2.500000e+01
    endloop
  endfacet
  facet normal 0.000000e+00 0.000000e+00 1.000000e+00
    outer loop
      vertex -3.234746e-12 3.000000e+00 2.500000e+01
      vertex -1.750000e+01 5.595524e-14 2.500000e+01
      vertex -5.050000e+00 -1.900000e+00 2.500000e+01
    endloop
  endfacet
  facet normal 0.000000e+00 0.000000e+00 1.000000e+00
    outer loop
      vertex -5.050000e+00 -1.900000e+00 2.500000e+01
      vertex -1.750000e+01 5.595524e-14 2.500000e+01
      vertex -1.750000e+01 -3.500000e+00 2.500000e+01
    endloop
  endfacet
  facet normal 0.000000e+00 0.000000e+00 1.000000e+00
    outer loop
      vertex 1.750000e+01 5.639933e-14 2.500000e+01
      vertex 5.050000e+00 -1.900000e+00 2.500000e+01
      vertex 1.750000e+01 -3.500000e+00 2.500000e+01
    endloop
  endfacet
  facet normal 0.000000e+00 0.000000e+00 1.000000e+00
    outer loop
      vertex 5.050000e+00 -1.900000e+00 2.500000e+01
      vertex 1.750000e+01 5.639933e-14 2.500000e+01
      vertex 1.750000e+01 3.000000e+00 2.500000e+01
    endloop
  endfacet
  facet normal 0.000000e+00 0.000000e+00 1.000000e+00
    outer loop
      vertex -5.050000e+00 -1.900000e+00 2.500000e+01
      vertex -3.229417e-12 -1.900000e+00 2.500000e+01
      vertex -3.234746e-12 3.000000e+00 2.500000e+01
    endloop
  endfacet
  facet normal 0.000000e+00 0.000000e+00 1.000000e+00
    outer loop
      vertex 2.150000e+00 -1.000000e+01 2.500000e+01
      vertex 1.750000e+01 -1.000000e+01 2.500000e+01
      vertex 4.477160e+00 -3.500000e+00 2.500000e+01
    endloop
  endfacet
  facet normal -0.000000e+00 0.000000e+00 1.000000e+00
    outer loop
      vertex 4.477160e+00 -3.500000e+00 2.500000e+01
      vertex 1.750000e+01 -1.000000e+01 2.500000e+01
      vertex 1.750000e+01 -3.500000e+00 2.500000e+01
    endloop
  endfacet
  facet normal 0.000000e+00 0.000000e+00 1.000000e+00
    outer loop
      vertex -5.050000e+00 -1.900000e+00 2.500000e+01
      vertex -1.750000e+01 -3.500000e+00 2.500000e+01
      vertex -4.477160e+00 -3.500000e+00 2.500000e+01
    endloop
  endfacet
  facet normal 0.000000e+00 0.000000e+00 1.000000e+00
    outer loop
      vertex -1.750000e+01 -1.000000e+01 2.500000e+01
      vertex -2.150000e+00 -1.000000e+01 2.500000e+01
      vertex -1.750000e+01 -3.500000e+00 2.500000e+01
    endloop
  endfacet
  facet normal -0.000000e+00 0.000000e+00 1.000000e+00
    outer loop
      vertex -1.750000e+01 -3.500000e+00 2.500000e+01
      vertex -2.150000e+00 -1.000000e+01 2.500000e+01
      vertex -4.477160e+00 -3.500000e+00 2.500000e+01
    endloop
  endfacet
  facet normal 0.000000e+00 -0.000000e+00 1.000000e+00
    outer loop
      vertex 5.050000e+00 -1.900000e+00 2.500000e+01
      vertex 1.750000e+01 3.000000e+00 2.500000e+01
      vertex -3.234746e-12 3.000000e+00 2.500000e+01
    endloop
  endfacet
  facet normal 0.000000e+00 0.000000e+00 1.000000e+00
    outer loop
      vertex 5.050000e+00 -1.900000e+00 2.500000e+01
      vertex -3.234746e-12 3.000000e+00 2.500000e+01
      vertex -3.229417e-12 -1.900000e+00 2.500000e+01
    endloop
  endfacet
  facet normal 0.000000e+00 0.000000e+00 1.000000e+00
    outer loop
      vertex 5.050000e+00 -1.900000e+00 2.500000e+01
      vertex 4.477160e+00 -3.500000e+00 2.500000e+01
      vertex 1.750000e+01 -3.500000e+00 2.500000e+01
    endloop
  endfacet
  facet normal 1.000000e+00 0.000000e+00 0.000000e+00
    outer loop
      vertex 1.750000e+01 3.000000e+00 2.500000e+01
      vertex 1.750000e+01 5.639933e-14 2.500000e+01
      vertex 1.750000e+01 3.000000e+00 1.650000e+01
    endloop
  endfacet
  facet normal 1.000000e+00 0.000000e+00 -0.000000e+00
    outer loop
      vertex 1.750000e+01 5.684342e-14 1.250000e+01
      vertex 1.750000e+01 3.000000e+00 1.650000e+01
      vertex 1.750000e+01 5.639933e-14 2.500000e+01
    endloop
  endfacet
  facet normal 1.000000e+00 0.000000e+00 -0.000000e+00
    outer loop
      vertex 1.750000e+01 3.000000e+00 1.250000e+01
      vertex 1.750000e+01 3.000000e+00 1.650000e+01
      vertex 1.750000e+01 5.684342e-14 1.250000e+01
    endloop
  endfacet
  facet normal 1.000000e+00 0.000000e+00 0.000000e+00
    outer loop
      vertex 1.750000e+01 5.639933e-14 2.500000e+01
      vertex 1.750000e+01 -3.500000e+00 2.500000e+01
      vertex 1.750000e+01 5.684342e-14 1.250000e+01
    endloop
  endfacet
  facet normal 1.000000e+00 0.000000e+00 0.000000e+00
    outer loop
      vertex 1.750000e+01 5.684342e-14 1.250000e+01
      vertex 1.750000e+01 -3.500000e+00 2.500000e+01
      vertex 1.750000e+01 -1.000000e+01 2.500000e+01
    endloop
  endfacet
  facet normal 1.000000e+00 0.000000e+00 0.000000e+00
    outer loop
      vertex 1.750000e+01 5.684342e-14 1.250000e+01
      vertex 1.750000e+01 -1.000000e+01 2.500000e+01
      vertex 1.750000e+01 -1.000000e+01 1.250000e+01
    endloop
  endfacet
  facet normal 1.000000e+00 0.000000e+00 0.000000e+00
    outer loop
      vertex 1.750000e+01 5.773160e-14 0.000000e+00
      vertex 1.750000e+01 5.684342e-14 1.250000e+01
      vertex 1.750000e+01 -1.000000e+01 0.000000e+00
    endloop
  endfacet
  facet normal 1.000000e+00 0.000000e+00 0.000000e+00
    outer loop
      vertex 1.750000e+01 -1.000000e+01 0.000000e+00
      vertex 1.750000e+01 5.684342e-14 1.250000e+01
      vertex 1.750000e+01 -1.000000e+01 1.250000e+01
    endloop
  endfacet
  facet normal 1.000000e+00 0.000000e+00 0.000000e+00
    outer loop
      vertex 1.750000e+01 1.000000e+01 5.000000e+00
      vertex 1.750000e+01 6.500000e+00 5.000000e+00
      vertex 1.750000e+01 1.000000e+01 0.000000e+00
    endloop
  endfacet
  facet normal 1.000000e+00 0.000000e+00 0.000000e+00
    outer loop
      vertex 1.750000e+01 1.000000e+01 0.000000e+00
      vertex 1.750000e+01 6.500000e+00 5.000000e+00
      vertex 1.750000e+01 3.000000e+00 5.000000e+00
    endloop
  endfacet
  facet normal 1.000000e+00 0.000000e+00 0.000000e+00
    outer loop
      vertex 1.750000e+01 1.000000e+01 0.000000e+00
      vertex 1.750000e+01 3.000000e+00 5.000000e+00
      vertex 1.750000e+01 5.773160e-14 0.000000e+00
    endloop
  endfacet
  facet normal 1.000000e+00 0.000000e+00 0.000000e+00
    outer loop
      vertex 1.750000e+01 5.773160e-14 0.000000e+00
      vertex 1.750000e+01 3.000000e+00 5.000000e+00
      vertex 1.750000e+01 3.000000e+00 1.250000e+01
    endloop
  endfacet
  facet normal 1.000000e+00 0.000000e+00 -0.000000e+00
    outer loop
      vertex 1.750000e+01 5.773160e-14 0.000000e+00
      vertex 1.750000e+01 3.000000e+00 1.250000e+01
      vertex 1.750000e+01 5.684342e-14 1.250000e+01
    endloop
  endfacet
  facet normal -7.071068e-01 -7.071068e-01 0.000000e+00
    outer loop
      vertex -1.900000e+01 4.500000e+00 7.142222e+00
      vertex -1.900000e+01 4.500000e+00 1.650000e+01
      vertex -2.050000e+01 6.000000e+00 9.284444e+00
    endloop
  endfacet
  facet normal -7.071068e-01 -7.071068e-01 0.000000e+00
    outer loop
      vertex -2.050000e+01 6.000000e+00 9.284444e+00
      vertex -1.900000e+01 4.500000e+00 1.650000e+01
      vertex -2.050000e+01 6.000000e+00 1.650000e+01
    endloop
  endfacet
  facet normal -7.071068e-01 -7.071068e-01 0.000000e+00
    outer loop
      vertex -1.900000e+01 4.500000e+00 1.650000e+01
      vertex -1.900000e+01 4.500000e+00 2.650000e+01
      vertex -2.050000e+01 6.000000e+00 1.650000e+01
    endloop
  endfacet
  facet normal -7.071068e-01 -7.071068e-01 0.000000e+00
    outer loop
      vertex -2.050000e+01 6.000000e+00 1.650000e+01
      vertex -1.900000e+01 4.500000e+00 2.650000e+01
      vertex -2.050000e+01 6.000000e+00 2.800000e+01
    endloop
  endfacet
  facet normal -7.071068e-01 -7.071068e-01 -0.000000e+00
    outer loop
      vertex -1.750000e+01 3.000000e+00 1.650000e+01
      vertex -1.900000e+01 4.500000e+00 1.650000e+01
      vertex -1.750000e+01 3.000000e+00 1.250000e+01
    endloop
  endfacet
  facet normal -7.071068e-01 -7.071068e-01 0.000000e+00
    outer loop
      vertex -1.750000e+01 3.000000e+00 1.250000e+01
      vertex -1.900000e+01 4.500000e+00 1.650000e+01
      vertex -1.900000e+01 4.500000e+00 7.142222e+00
    endloop
  endfacet
  facet normal -7.071068e-01 -7.071068e-01 -0.000000e+00
    outer loop
      vertex -1.750000e+01 3.000000e+00 1.250000e+01
      vertex -1.900000e+01 4.500000e+00 7.142222e+00
      vertex -1.750000e+01 3.000000e+00 5.000000e+00
    endloop
  endfacet
  facet normal -7.071068e-01 -7.071068e-01 -0.000000e+00
    outer loop
      vertex -1.900000e+01 4.500000e+00 2.650000e+01
      vertex -1.900000e+01 4.500000e+00 1.650000e+01
      vertex -1.750000e+01 3.000000e+00 2.500000e+01
    endloop
  endfacet
  facet normal -7.071068e-01 -7.071068e-01 -0.000000e+00
    outer loop
      vertex -1.750000e+01 3.000000e+00 2.500000e+01
      vertex -1.900000e+01 4.500000e+00 1.650000e+01
      vertex -1.750000e+01 3.000000e+00 1.650000e+01
    endloop
  endfacet
  facet normal 0.000000e+00 -7.071068e-01 7.071068e-01
    outer loop
      vertex -1.900000e+01 4.500000e+00 2.650000e+01
      vertex -1.750000e+01 3.000000e+00 2.500000e+01
      vertex -3.225864e-12 4.500000e+00 2.650000e+01
    endloop
  endfacet
  facet normal 0.000000e+00 -7.071068e-01 7.071068e-01
    outer loop
      vertex -3.225864e-12 4.500000e+00 2.650000e+01
      vertex -1.750000e+01 3.000000e+00 2.500000e+01
      vertex -3.234746e-12 3.000000e+00 2.500000e+01
    endloop
  endfacet
  facet normal 0.000000e+00 -7.071068e-01 7.071068e-01
    outer loop
      vertex -3.225864e-12 4.500000e+00 2.650000e+01
      vertex -3.234746e-12 3.000000e+00 2.500000e+01
      vertex 1.900000e+01 4.500000e+00 2.650000e+01
    endloop
  endfacet
  facet normal 0.000000e+00 -7.071068e-01 7.071068e-01
    outer loop
      vertex 1.900000e+01 4.500000e+00 2.650000e+01
      vertex -3.234746e-12 3.000000e+00 2.500000e+01
      vertex 1.750000e+01 3.000000e+00 2.500000e+01
    endloop
  endfacet
  facet normal 0.000000e+00 -7.071068e-01 7.071068e-01
    outer loop
      vertex -2.050000e+01 6.000000e+00 2.800000e+01
      vertex -1.900000e+01 4.500000e+00 2.650000e+01
      vertex -3.216982e-12 6.000000e+00 2.800000e+01
    endloop
  endfacet
  facet normal 0.000000e+00 -7.071068e-01 7.071068e-01
    outer loop
      vertex -3.216982e-12 6.000000e+00 2.800000e+01
      vertex -1.900000e+01 4.500000e+00 2.650000e+01
      vertex -3.225864e-12 4.500000e+00 2.650000e+01
    endloop
  endfacet
  facet normal 0.000000e+00 -7.071068e-01 7.071068e-01
    outer loop
      vertex -3.216982e-12 6.000000e+00 2.800000e+01
      vertex -3.225864e-12 4.500000e+00 2.650000e+01
      vertex 2.050000e+01 6.000000e+00 2.800000e+01
    endloop
  endfacet
  facet normal 0.000000e+00 -7.071068e-01 7.071068e-01
    outer loop
      vertex 2.050000e+01 6.000000e+00 2.800000e+01
      vertex -3.225864e-12 4.500000e+00 2.650000e+01
      vertex 1.900000e+01 4.500000e+00 2.650000e+01
    endloop
  endfacet
  facet normal -1.000000e+00 0.000000e+00 0.000000e+00
    outer loop
      vertex -1.750000e+01 3.000000e+00 1.250000e+01
      vertex -1.750000e+01 5.506706e-14 1.250000e+01
      vertex -1.750000e+01 3.000000e+00 1.650000e+01
    endloop
  endfacet
  facet normal -1.000000e+00 0.000000e+00 -0.000000e+00
    outer loop
      vertex -1.750000e+01 5.595524e-14 2.500000e+01
      vertex -1.750000e+01 3.000000e+00 1.650000e+01
      vertex -1.750000e+01 5.506706e-14 1.250000e+01
    endloop
  endfacet
  facet normal -1.000000e+00 -0.000000e+00 -0.000000e+00
    outer loop
      vertex -1.750000e+01 3.000000e+00 2.500000e+01
      vertex -1.750000e+01 3.000000e+00 1.650000e+01
      vertex -1.750000e+01 5.595524e-14 2.500000e+01
    endloop
  endfacet
  facet normal -1.000000e+00 -0.000000e+00 0.000000e+00
    outer loop
      vertex -1.750000e+01 6.500000e+00 5.000000e+00
      vertex -1.750000e+01 5.595524e-14 0.000000e+00
      vertex -1.750000e+01 3.000000e+00 5.000000e+00
    endloop
  endfacet
  facet normal -1.000000e+00 -0.000000e+00 0.000000e+00
    outer loop
      vertex -1.750000e+01 3.000000e+00 5.000000e+00
      vertex -1.750000e+01 5.595524e-14 0.000000e+00
      vertex -1.750000e+01 5.506706e-14 1.250000e+01
    endloop
  endfacet
  facet normal -1.000000e+00 0.000000e+00 0.000000e+00
    outer loop
      vertex -1.750000e+01 3.000000e+00 5.000000e+00
      vertex -1.750000e+01 5.506706e-14 1.250000e+01
      vertex -1.750000e+01 3.000000e+00 1.250000e+01
    endloop
  endfacet
  facet normal -1.000000e+00 0.000000e+00 0.000000e+00
    outer loop
      vertex -1.750000e+01 5.595524e-14 0.000000e+00
      vertex -1.750000e+01 6.500000e+00 5.000000e+00
      vertex -1.750000e+01 1.000000e+01 0.000000e+00
    endloop
  endfacet
  facet normal -1.000000e+00 0.000000e+00 0.000000e+00
    outer loop
      vertex -1.750000e+01 1.000000e+01 0.000000e+00
      vertex -1.750000e+01 6.500000e+00 5.000000e+00
      vertex -1.750000e+01 1.000000e+01 5.000000e+00
    endloop
  endfacet
  facet normal -1.000000e+00 0.000000e+00 0.000000e+00
    outer loop
      vertex -1.750000e+01 -1.000000e+01 2.500000e+01
      vertex -1.750000e+01 -3.500000e+00 2.500000e+01
      vertex -1.750000e+01 -1.000000e+01 1.250000e+01
    endloop
  endfacet
  facet normal -1.000000e+00 0.000000e+00 0.000000e+00
    outer loop
      vertex -1.750000e+01 -1.000000e+01 1.250000e+01
      vertex -1.750000e+01 -3.500000e+00 2.500000e+01
      vertex -1.750000e+01 5.595524e-14 2.500000e+01
    endloop
  endfacet
  facet normal -1.000000e+00 0.000000e+00 0.000000e+00
    outer loop
      vertex -1.750000e+01 -1.000000e+01 1.250000e+01
      vertex -1.750000e+01 5.595524e-14 2.500000e+01
      vertex -1.750000e+01 5.506706e-14 1.250000e+01
    endloop
  endfacet
  facet normal -1.000000e+00 0.000000e+00 0.000000e+00
    outer loop
      vertex -1.750000e+01 -1.000000e+01 0.000000e+00
      vertex -1.750000e+01 -1.000000e+01 1.250000e+01
      vertex -1.750000e+01 5.595524e-14 0.000000e+00
    endloop
  endfacet
  facet normal -1.000000e+00 0.000000e+00 0.000000e+00
    outer loop
      vertex -1.750000e+01 5.595524e-14 0.000000e+00
      vertex -1.750000e+01 -1.000000e+01 1.250000e+01
      vertex -1.750000e+01 5.506706e-14 1.250000e+01
    endloop
  endfacet
  facet normal -9.914448e-01 0.000000e+00 1.305264e-01
    outer loop
      vertex -3.150415e+01 8.000000e+00 6.500000e+01
      vertex -3.150415e+01 6.000000e+00 6.500000e+01
      vertex -3.136785e+01 8.000000e+00 6.603528e+01
    endloop
  endfacet
  facet normal -9.875961e-01 -1.366575e-02 1.564199e-01
    outer loop
      vertex -3.136785e+01 8.000000e+00 6.603528e+01
      vertex -3.150415e+01 6.000000e+00 6.500000e+01
      vertex -3.130838e+01 6.000000e+00 6.623607e+01
    endloop
  endfacet
  facet normal -9.238242e-01 1.094422e-02 3.826607e-01
    outer loop
      vertex -3.136785e+01 8.000000e+00 6.603528e+01
      vertex -3.130838e+01 6.000000e+00 6.623607e+01
      vertex -3.096825e+01 8.000000e+00 6.700000e+01
    endloop
  endfacet
  facet normal -7.604071e-01 0.000000e+00 6.494468e-01
    outer loop
      vertex -3.033258e+01 6.000000e+00 6.782843e+01
      vertex -3.033258e+01 8.000000e+00 6.782843e+01
      vertex -3.074022e+01 6.000000e+00 6.735114e+01
    endloop
  endfacet
  facet normal -7.932479e-01 1.642299e-02 6.086774e-01
    outer loop
      vertex -3.074022e+01 6.000000e+00 6.735114e+01
      vertex -3.033258e+01 8.000000e+00 6.782843e+01
      vertex -3.096825e+01 8.000000e+00 6.700000e+01
    endloop
  endfacet
  facet normal -8.907938e-01 -2.187669e-02 4.538809e-01
    outer loop
      vertex -3.074022e+01 6.000000e+00 6.735114e+01
      vertex -3.096825e+01 8.000000e+00 6.700000e+01
      vertex -3.130838e+01 6.000000e+00 6.623607e+01
    endloop
  endfacet
  facet normal -6.087604e-01 0.000000e+00 7.933542e-01
    outer loop
      vertex -3.033258e+01 8.000000e+00 6.782843e+01
      vertex -3.033258e+01 6.000000e+00 6.782843e+01
      vertex -2.950415e+01 8.000000e+00 6.846410e+01
    endloop
  endfacet
  facet normal -6.492027e-01 2.731331e-02 7.601249e-01
    outer loop
      vertex -2.950415e+01 8.000000e+00 6.846410e+01
      vertex -3.033258e+01 6.000000e+00 6.782843e+01
      vertex -2.985529e+01 6.000000e+00 6.823607e+01
    endloop
  endfacet
  facet normal -4.538839e-01 -2.187726e-02 8.907922e-01
    outer loop
      vertex -2.950415e+01 8.000000e+00 6.846410e+01
      vertex -2.985529e+01 6.000000e+00 6.823607e+01
      vertex -2.874022e+01 6.000000e+00 6.880423e+01
    endloop
  endfacet
  facet normal -1.564315e-01 0.000000e+00 9.876888e-01
    outer loop
      vertex -2.750415e+01 6.000000e+00 6.900000e+01
      vertex -2.750415e+01 8.000000e+00 6.900000e+01
      vertex -2.874022e+01 6.000000e+00 6.880423e+01
    endloop
  endfacet
  facet normal -1.305110e-01 -1.637441e-02 9.913116e-01
    outer loop
      vertex -2.874022e+01 6.000000e+00 6.880423e+01
      vertex -2.750415e+01 8.000000e+00 6.900000e+01
      vertex -2.853943e+01 8.000000e+00 6.886370e+01
    endloop
  endfacet
  facet normal -3.826569e-01 1.094680e-02 9.238257e-01
    outer loop
      vertex -2.874022e+01 6.000000e+00 6.880423e+01
      vertex -2.853943e+01 8.000000e+00 6.886370e+01
      vertex -2.950415e+01 8.000000e+00 6.846410e+01
    endloop
  endfacet
  facet normal -9.876884e-01 0.000000e+00 1.564345e-01
    outer loop
      vertex -3.150415e+01 1.000000e+01 6.500000e+01
      vertex -3.150415e+01 8.000000e+00 6.500000e+01
      vertex -3.130838e+01 1.000000e+01 6.623607e+01
    endloop
  endfacet
  facet normal -9.913118e-01 1.637759e-02 1.305089e-01
    outer loop
      vertex -3.130838e+01 1.000000e+01 6.623607e+01
      vertex -3.150415e+01 8.000000e+00 6.500000e+01
      vertex -3.136785e+01 8.000000e+00 6.603528e+01
    endloop
  endfacet
  facet normal -9.238242e-01 -1.094422e-02 3.826607e-01
    outer loop
      vertex -3.130838e+01 1.000000e+01 6.623607e+01
      vertex -3.136785e+01 8.000000e+00 6.603528e+01
      vertex -3.096825e+01 8.000000e+00 6.700000e+01
    endloop
  endfacet
  facet normal -7.933549e-01 0.000000e+00 6.087594e-01
    outer loop
      vertex -3.033258e+01 8.000000e+00 6.782843e+01
      vertex -3.033258e+01 1.000000e+01 6.782843e+01
      vertex -3.096825e+01 8.000000e+00 6.700000e+01
    endloop
  endfacet
  facet normal -7.601233e-01 -2.731513e-02 6.492044e-01
    outer loop
      vertex -3.096825e+01 8.000000e+00 6.700000e+01
      vertex -3.033258e+01 1.000000e+01 6.782843e+01
      vertex -3.074022e+01 1.000000e+01 6.735114e+01
    endloop
  endfacet
  facet normal -8.907938e-01 2.187669e-02 4.538809e-01
    outer loop
      vertex -3.096825e+01 8.000000e+00 6.700000e+01
      vertex -3.074022e+01 1.000000e+01 6.735114e+01
      vertex -3.130838e+01 1.000000e+01 6.623607e+01
    endloop
  endfacet
  facet normal -6.494451e-01 0.000000e+00 7.604086e-01
    outer loop
      vertex -3.033258e+01 1.000000e+01 6.782843e+01
      vertex -3.033258e+01 8.000000e+00 6.782843e+01
      vertex -2.985529e+01 1.000000e+01 6.823607e+01
    endloop
  endfacet
  facet normal -6.086782e-01 -1.642188e-02 7.932472e-01
    outer loop
      vertex -2.985529e+01 1.000000e+01 6.823607e+01
      vertex -3.033258e+01 8.000000e+00 6.782843e+01
      vertex -2.950415e+01 8.000000e+00 6.846410e+01
    endloop
  endfacet
  facet normal -4.538839e-01 2.187726e-02 8.907922e-01
    outer loop
      vertex -2.985529e+01 1.000000e+01 6.823607e+01
      vertex -2.950415e+01 8.000000e+00 6.846410e+01
      vertex -2.874022e+01 1.000000e+01 6.880423e+01
    endloop
  endfacet
  facet normal -1.305285e-01 0.000000e+00 9.914446e-01
    outer loop
      vertex -2.750415e+01 8.000000e+00 6.900000e+01
      vertex -2.750415e+01 1.000000e+01 6.900000e+01
      vertex -2.853943e+01 8.000000e+00 6.886370e+01
    endloop
  endfacet
  facet normal -1.564169e-01 1.366309e-02 9.875966e-01
    outer loop
      vertex -2.853943e+01 8.000000e+00 6.886370e+01
      vertex -2.750415e+01 1.000000e+01 6.900000e+01
      vertex -2.874022e+01 1.000000e+01 6.880423e+01
    endloop
  endfacet
  facet normal -3.826569e-01 -1.094680e-02 9.238257e-01
    outer loop
      vertex -2.853943e+01 8.000000e+00 6.886370e+01
      vertex -2.874022e+01 1.000000e+01 6.880423e+01
      vertex -2.950415e+01 8.000000e+00 6.846410e+01
    endloop
  endfacet
  facet normal 0.000000e+00 0.000000e+00 1.000000e+00
    outer loop
      vertex 0.000000e+00 8.000000e+00 6.900000e+01
      vertex -1.375208e+01 8.000000e+00 6.900000e+01
      vertex 0.000000e+00 6.000000e+00 6.900000e+01
    endloop
  endfacet
  facet normal 0.000000e+00 0.000000e+00 1.000000e+00
    outer loop
      vertex 0.000000e+00 6.000000e+00 6.900000e+01
      vertex -1.375208e+01 8.000000e+00 6.900000e+01
      vertex -1.375208e+01 6.000000e+00 6.900000e+01
    endloop
  endfacet
  facet normal 0.000000e+00 0.000000e+00 1.000000e+00
    outer loop
      vertex -1.375208e+01 8.000000e+00 6.900000e+01
      vertex -2.750415e+01 8.000000e+00 6.900000e+01
      vertex -1.375208e+01 6.000000e+00 6.900000e+01
    endloop
  endfacet
  facet normal 0.000000e+00 0.000000e+00 1.000000e+00
    outer loop
      vertex -1.375208e+01 6.000000e+00 6.900000e+01
      vertex -2.750415e+01 8.000000e+00 6.900000e+01
      vertex -2.750415e+01 6.000000e+00 6.900000e+01
    endloop
  endfacet
  facet normal 0.000000e+00 0.000000e+00 1.000000e+00
    outer loop
      vertex 0.000000e+00 1.000000e+01 6.900000e+01
      vertex -1.375208e+01 1.000000e+01 6.900000e+01
      vertex 0.000000e+00 8.000000e+00 6.900000e+01
    endloop
  endfacet
  facet normal 0.000000e+00 0.000000e+00 1.000000e+00
    outer loop
      vertex 0.000000e+00 8.000000e+00 6.900000e+01
      vertex -1.375208e+01 1.000000e+01 6.900000e+01
      vertex -1.375208e+01 8.000000e+00 6.900000e+01
    endloop
  endfacet
  facet normal 0.000000e+00 0.000000e+00 1.000000e+00
    outer loop
      vertex -1.375208e+01 1.000000e+01 6.900000e+01
      vertex -2.750415e+01 1.000000e+01 6.900000e+01
      vertex -1.375208e+01 8.000000e+00 6.900000e+01
    endloop
  endfacet
  facet normal 0.000000e+00 0.000000e+00 1.000000e+00
    outer loop
      vertex -1.375208e+01 8.000000e+00 6.900000e+01
      vertex -2.750415e+01 1.000000e+01 6.900000e+01
      vertex -2.750415e+01 8.000000e+00 6.900000e+01
    endloop
  endfacet
  facet normal -8.968727e-01 0.000000e+00 -4.422887e-01
    outer loop
      vertex -3.078076e+01 6.500000e+00 2.396689e+01
      vertex -3.131902e+01 8.000000e+00 2.505837e+01
      vertex -3.078076e+01 8.000000e+00 2.396689e+01
    endloop
  endfacet
  facet normal -8.968728e-01 -0.000000e+00 -4.422888e-01
    outer loop
      vertex -3.131902e+01 8.000000e+00 2.505837e+01
      vertex -3.078076e+01 6.500000e+00 2.396689e+01
      vertex -3.131902e+01 6.000000e+00 2.505837e+01
    endloop
  endfacet
  facet normal -8.968728e-01 0.000000e+00 -4.422888e-01
    outer loop
      vertex -3.131902e+01 6.000000e+00 2.505837e+01
      vertex -3.078076e+01 6.500000e+00 2.396689e+01
      vertex -3.078076e+01 6.000000e+00 2.396689e+01
    endloop
  endfacet
  facet normal -9.883616e-01 -0.000000e+00 -1.521227e-01
    outer loop
      vertex -3.131902e+01 8.000000e+00 2.505837e+01
      vertex -3.131902e+01 6.000000e+00 2.505837e+01
      vertex -3.150415e+01 8.000000e+00 2.626119e+01
    endloop
  endfacet
  facet normal -9.883616e-01 -0.000000e+00 -1.521227e-01
    outer loop
      vertex -3.150415e+01 8.000000e+00 2.626119e+01
      vertex -3.131902e+01 6.000000e+00 2.505837e+01
      vertex -3.150415e+01 6.000000e+00 2.626119e+01
    endloop
  endfacet
  facet normal -8.968728e-01 -0.000000e+00 -4.422888e-01
    outer loop
      vertex -3.078076e+01 1.000000e+01 2.396689e+01
      vertex -3.078076e+01 8.000000e+00 2.396689e+01
      vertex -3.131902e+01 1.000000e+01 2.505837e+01
    endloop
  endfacet
  facet normal -8.968728e-01 -0.000000e+00 -4.422888e-01
    outer loop
      vertex -3.131902e+01 1.000000e+01 2.505837e+01
      vertex -3.078076e+01 8.000000e+00 2.396689e+01
      vertex -3.131902e+01 8.000000e+00 2.505837e+01
    endloop
  endfacet
  facet normal -9.883616e-01 -0.000000e+00 -1.521227e-01
    outer loop
      vertex -3.131902e+01 1.000000e+01 2.505837e+01
      vertex -3.131902e+01 8.000000e+00 2.505837e+01
      vertex -3.150415e+01 1.000000e+01 2.626119e+01
    endloop
  endfacet
  facet normal -9.883616e-01 -0.000000e+00 -1.521227e-01
    outer loop
      vertex -3.150415e+01 1.000000e+01 2.626119e+01
      vertex -3.131902e+01 8.000000e+00 2.505837e+01
      vertex -3.150415e+01 8.000000e+00 2.626119e+01
    endloop
  endfacet
  facet normal -8.191520e-01 0.000000e+00 -5.735765e-01
    outer loop
      vertex -2.414038e+01 6.000000e+00 1.448345e+01
      vertex -3.078076e+01 6.000000e+00 2.396689e+01
      vertex -2.414038e+01 6.500000e+00 1.448345e+01
    endloop
  endfacet
  facet normal -8.191520e-01 0.000000e+00 -5.735765e-01
    outer loop
      vertex -2.414038e+01 6.500000e+00 1.448345e+01
      vertex -3.078076e+01 6.000000e+00 2.396689e+01
      vertex -3.078076e+01 6.500000e+00 2.396689e+01
    endloop
  endfacet
  facet normal -8.191521e-01 0.000000e+00 -5.735765e-01
    outer loop
      vertex -1.750000e+01 3.000000e+00 5.000000e+00
      vertex -2.050000e+01 6.000000e+00 9.284444e+00
      vertex -1.750000e+01 6.500000e+00 5.000000e+00
    endloop
  endfacet
  facet normal -8.191521e-01 1.803125e-06 -5.735763e-01
    outer loop
      vertex -1.750000e+01 6.500000e+00 5.000000e+00
      vertex -2.050000e+01 6.000000e+00 9.284444e+00
      vertex -2.414038e+01 6.000000e+00 1.448345e+01
    endloop
  endfacet
  facet normal -8.191521e-01 0.000000e+00 -5.735764e-01
    outer loop
      vertex -1.750000e+01 6.500000e+00 5.000000e+00
      vertex -2.414038e+01 6.000000e+00 1.448345e+01
      vertex -2.414038e+01 6.500000e+00 1.448345e+01
    endloop
  endfacet
  facet normal -8.191520e-01 0.000000e+00 -5.735765e-01
    outer loop
      vertex -3.078076e+01 6.500000e+00 2.396689e+01
      vertex -3.078076e+01 8.000000e+00 2.396689e+01
      vertex -2.414038e+01 6.500000e+00 1.448345e+01
    endloop
  endfacet
  facet normal -8.191520e-01 0.000000e+00 -5.735765e-01
    outer loop
      vertex -2.414038e+01 6.500000e+00 1.448345e+01
      vertex -3.078076e+01 8.000000e+00 2.396689e+01
      vertex -3.078076e+01 1.000000e+01 2.396689e+01
    endloop
  endfacet
  facet normal -8.191520e-01 0.000000e+00 -5.735765e-01
    outer loop
      vertex -2.414038e+01 6.500000e+00 1.448345e+01
      vertex -3.078076e+01 1.000000e+01 2.396689e+01
      vertex -2.414038e+01 1.000000e+01 1.448345e+01
    endloop
  endfacet
  facet normal -8.191521e-01 0.000000e+00 -5.735764e-01
    outer loop
      vertex -1.750000e+01 6.500000e+00 5.000000e+00
      vertex -2.414038e+01 6.500000e+00 1.448345e+01
      vertex -1.750000e+01 1.000000e+01 5.000000e+00
    endloop
  endfacet
  facet normal -8.191521e-01 0.000000e+00 -5.735764e-01
    outer loop
      vertex -1.750000e+01 1.000000e+01 5.000000e+00
      vertex -2.414038e+01 6.500000e+00 1.448345e+01
      vertex -2.414038e+01 1.000000e+01 1.448345e+01
    endloop
  endfacet
  facet normal -1.000000e+00 0.000000e+00 0.000000e+00
    outer loop
      vertex -3.150415e+01 6.000000e+00 4.563060e+01
      vertex -3.150415e+01 8.000000e+00 4.563060e+01
      vertex -3.150415e+01 6.000000e+00 3.914222e+01
    endloop
  endfacet
  facet normal -1.000000e+00 0.000000e+00 0.000000e+00
    outer loop
      vertex -3.150415e+01 8.000000e+00 2.626119e+01
      vertex -3.150415e+01 6.000000e+00 3.914222e+01
      vertex -3.150415e+01 8.000000e+00 4.563060e+01
    endloop
  endfacet
  facet normal -1.000000e+00 0.000000e+00 0.000000e+00
    outer loop
      vertex -3.150415e+01 6.000000e+00 2.626119e+01
      vertex -3.150415e+01 6.000000e+00 3.914222e+01
      vertex -3.150415e+01 8.000000e+00 2.626119e+01
    endloop
  endfacet
  facet normal -1.000000e+00 0.000000e+00 0.000000e+00
    outer loop
      vertex -3.150415e+01 1.000000e+01 2.626119e+01
      vertex -3.150415e+01 8.000000e+00 2.626119e+01
      vertex -3.150415e+01 1.000000e+01 3.450000e+01
    endloop
  endfacet
  facet normal -1.000000e+00 0.000000e+00 0.000000e+00
    outer loop
      vertex -3.150415e+01 8.000000e+00 4.563060e+01
      vertex -3.150415e+01 1.000000e+01 3.450000e+01
      vertex -3.150415e+01 8.000000e+00 2.626119e+01
    endloop
  endfacet
  facet normal -1.000000e+00 -0.000000e+00 -0.000000e+00
    outer loop
      vertex -3.150415e+01 1.000000e+01 4.563060e+01
      vertex -3.150415e+01 1.000000e+01 3.450000e+01
      vertex -3.150415e+01 8.000000e+00 4.563060e+01
    endloop
  endfacet
  facet normal -1.000000e+00 -0.000000e+00 -0.000000e+00
    outer loop
      vertex -3.150415e+01 8.000000e+00 6.500000e+01
      vertex -3.150415e+01 8.000000e+00 4.563060e+01
      vertex -3.150415e+01 6.000000e+00 6.500000e+01
    endloop
  endfacet
  facet normal -1.000000e+00 0.000000e+00 0.000000e+00
    outer loop
      vertex -3.150415e+01 6.000000e+00 6.500000e+01
      vertex -3.150415e+01 8.000000e+00 4.563060e+01
      vertex -3.150415e+01 6.000000e+00 4.563060e+01
    endloop
  endfacet
  facet normal -1.000000e+00 -0.000000e+00 -0.000000e+00
    outer loop
      vertex -3.150415e+01 1.000000e+01 6.500000e+01
      vertex -3.150415e+01 1.000000e+01 4.563060e+01
      vertex -3.150415e+01 8.000000e+00 6.500000e+01
    endloop
  endfacet
  facet normal -1.000000e+00 0.000000e+00 0.000000e+00
    outer loop
      vertex -3.150415e+01 8.000000e+00 6.500000e+01
      vertex -3.150415e+01 1.000000e+01 4.563060e+01
      vertex -3.150415e+01 8.000000e+00 4.563060e+01
    endloop
  endfacet
  facet normal 8.968728e-01 0.000000e+00 -4.422888e-01
    outer loop
      vertex 3.078076e+01 6.500000e+00 2.396689e+01
      vertex 3.131902e+01 6.000000e+00 2.505837e+01
      vertex 3.078076e+01 6.000000e+00 2.396689e+01
    endloop
  endfacet
  facet normal 8.968728e-01 0.000000e+00 -4.422888e-01
    outer loop
      vertex 3.131902e+01 6.000000e+00 2.505837e+01
      vertex 3.078076e+01 6.500000e+00 2.396689e+01
      vertex 3.131902e+01 8.000000e+00 2.505837e+01
    endloop
  endfacet
  facet normal 8.968727e-01 0.000000e+00 -4.422887e-01
    outer loop
      vertex 3.131902e+01 8.000000e+00 2.505837e+01
      vertex 3.078076e+01 6.500000e+00 2.396689e+01
      vertex 3.078076e+01 8.000000e+00 2.396689e+01
    endloop
  endfacet
  facet normal 9.883616e-01 0.000000e+00 -1.521227e-01
    outer loop
      vertex 3.150415e+01 8.000000e+00 2.626119e+01
      vertex 3.150415e+01 6.000000e+00 2.626119e+01
      vertex 3.131902e+01 8.000000e+00 2.505837e+01
    endloop
  endfacet
  facet normal 9.883616e-01 0.000000e+00 -1.521227e-01
    outer loop
      vertex 3.131902e+01 8.000000e+00 2.505837e+01
      vertex 3.150415e+01 6.000000e+00 2.626119e+01
      vertex 3.131902e+01 6.000000e+00 2.505837e+01
    endloop
  endfacet
  facet normal 9.883616e-01 0.000000e+00 -1.521227e-01
    outer loop
      vertex 3.150415e+01 1.000000e+01 2.626119e+01
      vertex 3.150415e+01 8.000000e+00 2.626119e+01
      vertex 3.131902e+01 1.000000e+01 2.505837e+01
    endloop
  endfacet
  facet normal 9.883616e-01 0.000000e+00 -1.521227e-01
    outer loop
      vertex 3.131902e+01 1.000000e+01 2.505837e+01
      vertex 3.150415e+01 8.000000e+00 2.626119e+01
      vertex 3.131902e+01 8.000000e+00 2.505837e+01
    endloop
  endfacet
  facet normal 8.968728e-01 0.000000e+00 -4.422888e-01
    outer loop
      vertex 3.131902e+01 1.000000e+01 2.505837e+01
      vertex 3.131902e+01 8.000000e+00 2.505837e+01
      vertex 3.078076e+01 1.000000e+01 2.396689e+01
    endloop
  endfacet
  facet normal 8.968728e-01 0.000000e+00 -4.422888e-01
    outer loop
      vertex 3.078076e+01 1.000000e+01 2.396689e+01
      vertex 3.131902e+01 8.000000e+00 2.505837e+01
      vertex 3.078076e+01 8.000000e+00 2.396689e+01
    endloop
  endfacet
  facet normal 8.191520e-01 0.000000e+00 -5.735765e-01
    outer loop
      vertex 2.414038e+01 6.000000e+00 1.448345e+01
      vertex 2.414038e+01 6.500000e+00 1.448345e+01
      vertex 3.078076e+01 6.000000e+00 2.396689e+01
    endloop
  endfacet
  facet normal 8.191520e-01 0.000000e+00 -5.735765e-01
    outer loop
      vertex 3.078076e+01 6.000000e+00 2.396689e+01
      vertex 2.414038e+01 6.500000e+00 1.448345e+01
      vertex 3.078076e+01 6.500000e+00 2.396689e+01
    endloop
  endfacet
  facet normal 8.191521e-01 0.000000e+00 -5.735764e-01
    outer loop
      vertex 2.414038e+01 6.500000e+00 1.448345e+01
      vertex 2.414038e+01 6.000000e+00 1.448345e+01
      vertex 1.750000e+01 6.500000e+00 5.000000e+00
    endloop
  endfacet
  facet normal 8.191521e-01 1.803125e-06 -5.735763e-01
    outer loop
      vertex 1.750000e+01 6.500000e+00 5.000000e+00
      vertex 2.414038e+01 6.000000e+00 1.448345e+01
      vertex 2.050000e+01 6.000000e+00 9.284444e+00
    endloop
  endfacet
  facet normal 8.191521e-01 0.000000e+00 -5.735765e-01
    outer loop
      vertex 1.750000e+01 6.500000e+00 5.000000e+00
      vertex 2.050000e+01 6.000000e+00 9.284444e+00
      vertex 1.750000e+01 3.000000e+00 5.000000e+00
    endloop
  endfacet
  facet normal 8.191520e-01 0.000000e+00 -5.735765e-01
    outer loop
      vertex 2.414038e+01 1.000000e+01 1.448345e+01
      vertex 3.078076e+01 1.000000e+01 2.396689e+01
      vertex 2.414038e+01 6.500000e+00 1.448345e+01
    endloop
  endfacet
  facet normal 8.191520e-01 0.000000e+00 -5.735765e-01
    outer loop
      vertex 2.414038e+01 6.500000e+00 1.448345e+01
      vertex 3.078076e+01 1.000000e+01 2.396689e+01
      vertex 3.078076e+01 8.000000e+00 2.396689e+01
    endloop
  endfacet
  facet normal 8.191520e-01 0.000000e+00 -5.735765e-01
    outer loop
      vertex 2.414038e+01 6.500000e+00 1.448345e+01
      vertex 3.078076e+01 8.000000e+00 2.396689e+01
      vertex 3.078076e+01 6.500000e+00 2.396689e+01
    endloop
  endfacet
  facet normal 8.191521e-01 0.000000e+00 -5.735764e-01
    outer loop
      vertex 1.750000e+01 6.500000e+00 5.000000e+00
      vertex 1.750000e+01 1.000000e+01 5.000000e+00
      vertex 2.414038e+01 6.500000e+00 1.448345e+01
    endloop
  endfacet
  facet normal 8.191521e-01 0.000000e+00 -5.735764e-01
    outer loop
      vertex 2.414038e+01 6.500000e+00 1.448345e+01
      vertex 1.750000e+01 1.000000e+01 5.000000e+00
      vertex 2.414038e+01 1.000000e+01 1.448345e+01
    endloop
  endfacet
  facet normal 1.305285e-01 0.000000e+00 9.914446e-01
    outer loop
      vertex 2.750415e+01 8.000000e+00 6.900000e+01
      vertex 2.750415e+01 6.000000e+00 6.900000e+01
      vertex 2.853943e+01 8.000000e+00 6.886370e+01
    endloop
  endfacet
  facet normal 1.564169e-01 -1.366309e-02 9.875966e-01
    outer loop
      vertex 2.853943e+01 8.000000e+00 6.886370e+01
      vertex 2.750415e+01 6.000000e+00 6.900000e+01
      vertex 2.874022e+01 6.000000e+00 6.880423e+01
    endloop
  endfacet
  facet normal 3.826569e-01 1.094680e-02 9.238257e-01
    outer loop
      vertex 2.853943e+01 8.000000e+00 6.886370e+01
      vertex 2.874022e+01 6.000000e+00 6.880423e+01
      vertex 2.950415e+01 8.000000e+00 6.846410e+01
    endloop
  endfacet
  facet normal 6.494451e-01 -0.000000e+00 7.604086e-01
    outer loop
      vertex 3.033258e+01 6.000000e+00 6.782843e+01
      vertex 3.033258e+01 8.000000e+00 6.782843e+01
      vertex 2.985529e+01 6.000000e+00 6.823607e+01
    endloop
  endfacet
  facet normal 6.086782e-01 1.642188e-02 7.932472e-01
    outer loop
      vertex 2.985529e+01 6.000000e+00 6.823607e+01
      vertex 3.033258e+01 8.000000e+00 6.782843e+01
      vertex 2.950415e+01 8.000000e+00 6.846410e+01
    endloop
  endfacet
  facet normal 4.538839e-01 -2.187726e-02 8.907922e-01
    outer loop
      vertex 2.985529e+01 6.000000e+00 6.823607e+01
      vertex 2.950415e+01 8.000000e+00 6.846410e+01
      vertex 2.874022e+01 6.000000e+00 6.880423e+01
    endloop
  endfacet
  facet normal 7.933549e-01 0.000000e+00 6.087594e-01
    outer loop
      vertex 3.033258e+01 8.000000e+00 6.782843e+01
      vertex 3.033258e+01 6.000000e+00 6.782843e+01
      vertex 3.096825e+01 8.000000e+00 6.700000e+01
    endloop
  endfacet
  facet normal 7.601233e-01 2.731513e-02 6.492044e-01
    outer loop
      vertex 3.096825e+01 8.000000e+00 6.700000e+01
      vertex 3.033258e+01 6.000000e+00 6.782843e+01
      vertex 3.074022e+01 6.000000e+00 6.735114e+01
    endloop
  endfacet
  facet normal 8.907938e-01 -2.187669e-02 4.538809e-01
    outer loop
      vertex 3.096825e+01 8.000000e+00 6.700000e+01
      vertex 3.074022e+01 6.000000e+00 6.735114e+01
      vertex 3.130838e+01 6.000000e+00 6.623607e+01
    endloop
  endfacet
  facet normal 9.876884e-01 -0.000000e+00 1.564345e-01
    outer loop
      vertex 3.150415e+01 6.000000e+00 6.500000e+01
      vertex 3.150415e+01 8.000000e+00 6.500000e+01
      vertex 3.130838e+01 6.000000e+00 6.623607e+01
    endloop
  endfacet
  facet normal 9.913118e-01 -1.637759e-02 1.305089e-01
    outer loop
      vertex 3.130838e+01 6.000000e+00 6.623607e+01
      vertex 3.150415e+01 8.000000e+00 6.500000e+01
      vertex 3.136785e+01 8.000000e+00 6.603528e+01
    endloop
  endfacet
  facet normal 9.238242e-01 1.094422e-02 3.826607e-01
    outer loop
      vertex 3.130838e+01 6.000000e+00 6.623607e+01
      vertex 3.136785e+01 8.000000e+00 6.603528e+01
      vertex 3.096825e+01 8.000000e+00 6.700000e+01
    endloop
  endfacet
  facet normal 1.564315e-01 0.000000e+00 9.876888e-01
    outer loop
      vertex 2.750415e+01 1.000000e+01 6.900000e+01
      vertex 2.750415e+01 8.000000e+00 6.900000e+01
      vertex 2.874022e+01 1.000000e+01 6.880423e+01
    endloop
  endfacet
  facet normal 1.305110e-01 1.637441e-02 9.913116e-01
    outer loop
      vertex 2.874022e+01 1.000000e+01 6.880423e+01
      vertex 2.750415e+01 8.000000e+00 6.900000e+01
      vertex 2.853943e+01 8.000000e+00 6.886370e+01
    endloop
  endfacet
  facet normal 3.826569e-01 -1.094680e-02 9.238257e-01
    outer loop
      vertex 2.874022e+01 1.000000e+01 6.880423e+01
      vertex 2.853943e+01 8.000000e+00 6.886370e+01
      vertex 2.950415e+01 8.000000e+00 6.846410e+01
    endloop
  endfacet
  facet normal 6.087604e-01 -0.000000e+00 7.933542e-01
    outer loop
      vertex 3.033258e+01 8.000000e+00 6.782843e+01
      vertex 3.033258e+01 1.000000e+01 6.782843e+01
      vertex 2.950415e+01 8.000000e+00 6.846410e+01
    endloop
  endfacet
  facet normal 6.492027e-01 -2.731331e-02 7.601249e-01
    outer loop
      vertex 2.950415e+01 8.000000e+00 6.846410e+01
      vertex 3.033258e+01 1.000000e+01 6.782843e+01
      vertex 2.985529e+01 1.000000e+01 6.823607e+01
    endloop
  endfacet
  facet normal 4.538839e-01 2.187726e-02 8.907922e-01
    outer loop
      vertex 2.950415e+01 8.000000e+00 6.846410e+01
      vertex 2.985529e+01 1.000000e+01 6.823607e+01
      vertex 2.874022e+01 1.000000e+01 6.880423e+01
    endloop
  endfacet
  facet normal 7.604071e-01 0.000000e+00 6.494468e-01
    outer loop
      vertex 3.033258e+01 1.000000e+01 6.782843e+01
      vertex 3.033258e+01 8.000000e+00 6.782843e+01
      vertex 3.074022e+01 1.000000e+01 6.735114e+01
    endloop
  endfacet
  facet normal 7.932479e-01 -1.642299e-02 6.086774e-01
    outer loop
      vertex 3.074022e+01 1.000000e+01 6.735114e+01
      vertex 3.033258e+01 8.000000e+00 6.782843e+01
      vertex 3.096825e+01 8.000000e+00 6.700000e+01
    endloop
  endfacet
  facet normal 8.907938e-01 2.187669e-02 4.538809e-01
    outer loop
      vertex 3.074022e+01 1.000000e+01 6.735114e+01
      vertex 3.096825e+01 8.000000e+00 6.700000e+01
      vertex 3.130838e+01 1.000000e+01 6.623607e+01
    endloop
  endfacet
  facet normal 9.914448e-01 -0.000000e+00 1.305264e-01
    outer loop
      vertex 3.150415e+01 8.000000e+00 6.500000e+01
      vertex 3.150415e+01 1.000000e+01 6.500000e+01
      vertex 3.136785e+01 8.000000e+00 6.603528e+01
    endloop
  endfacet
  facet normal 9.875961e-01 1.366575e-02 1.564199e-01
    outer loop
      vertex 3.136785e+01 8.000000e+00 6.603528e+01
      vertex 3.150415e+01 1.000000e+01 6.500000e+01
      vertex 3.130838e+01 1.000000e+01 6.623607e+01
    endloop
  endfacet
  facet normal 9.238242e-01 -1.094422e-02 3.826607e-01
    outer loop
      vertex 3.136785e+01 8.000000e+00 6.603528e+01
      vertex 3.130838e+01 1.000000e+01 6.623607e+01
      vertex 3.096825e+01 8.000000e+00 6.700000e+01
    endloop
  endfacet
  facet normal 0.000000e+00 0.000000e+00 1.000000e+00
    outer loop
      vertex 2.750415e+01 8.000000e+00 6.900000e+01
      vertex 1.375208e+01 8.000000e+00 6.900000e+01
      vertex 2.750415e+01 6.000000e+00 6.900000e+01
    endloop
  endfacet
  facet normal 0.000000e+00 0.000000e+00 1.000000e+00
    outer loop
      vertex 2.750415e+01 6.000000e+00 6.900000e+01
      vertex 1.375208e+01 8.000000e+00 6.900000e+01
      vertex 1.375208e+01 6.000000e+00 6.900000e+01
    endloop
  endfacet
  facet normal 0.000000e+00 0.000000e+00 1.000000e+00
    outer loop
      vertex 1.375208e+01 8.000000e+00 6.900000e+01
      vertex 0.000000e+00 8.000000e+00 6.900000e+01
      vertex 1.375208e+01 6.000000e+00 6.900000e+01
    endloop
  endfacet
  facet normal 0.000000e+00 0.000000e+00 1.000000e+00
    outer loop
      vertex 1.375208e+01 6.000000e+00 6.900000e+01
      vertex 0.000000e+00 8.000000e+00 6.900000e+01
      vertex 0.000000e+00 6.000000e+00 6.900000e+01
    endloop
  endfacet
  facet normal 0.000000e+00 0.000000e+00 1.000000e+00
    outer loop
      vertex 2.750415e+01 1.000000e+01 6.900000e+01
      vertex 1.375208e+01 1.000000e+01 6.900000e+01
      vertex 2.750415e+01 8.000000e+00 6.900000e+01
    endloop
  endfacet
  facet normal 0.000000e+00 0.000000e+00 1.000000e+00
    outer loop
      vertex 2.750415e+01 8.000000e+00 6.900000e+01
      vertex 1.375208e+01 1.000000e+01 6.900000e+01
      vertex 1.375208e+01 8.000000e+00 6.900000e+01
    endloop
  endfacet
  facet normal 0.000000e+00 0.000000e+00 1.000000e+00
    outer loop
      vertex 1.375208e+01 1.000000e+01 6.900000e+01
      vertex 0.000000e+00 1.000000e+01 6.900000e+01
      vertex 1.375208e+01 8.000000e+00 6.900000e+01
    endloop
  endfacet
  facet normal 0.000000e+00 0.000000e+00 1.000000e+00
    outer loop
      vertex 1.375208e+01 8.000000e+00 6.900000e+01
      vertex 0.000000e+00 1.000000e+01 6.900000e+01
      vertex 0.000000e+00 8.000000e+00 6.900000e+01
    endloop
  endfacet
  facet normal 1.000000e+00 0.000000e+00 0.000000e+00
    outer loop
      vertex 3.150415e+01 6.000000e+00 3.914222e+01
      vertex 3.150415e+01 8.000000e+00 4.563060e+01
      vertex 3.150415e+01 6.000000e+00 4.563060e+01
    endloop
  endfacet
  facet normal 1.000000e+00 0.000000e+00 0.000000e+00
    outer loop
      vertex 3.150415e+01 8.000000e+00 4.563060e+01
      vertex 3.150415e+01 6.000000e+00 3.914222e+01
      vertex 3.150415e+01 8.000000e+00 2.626119e+01
    endloop
  endfacet
  facet normal 1.000000e+00 0.000000e+00 0.000000e+00
    outer loop
      vertex 3.150415e+01 8.000000e+00 2.626119e+01
      vertex 3.150415e+01 6.000000e+00 3.914222e+01
      vertex 3.150415e+01 6.000000e+00 2.626119e+01
    endloop
  endfacet
  facet normal 1.000000e+00 0.000000e+00 0.000000e+00
    outer loop
      vertex 3.150415e+01 1.000000e+01 3.450000e+01
      vertex 3.150415e+01 8.000000e+00 2.626119e+01
      vertex 3.150415e+01 1.000000e+01 2.626119e+01
    endloop
  endfacet
  facet normal 1.000000e+00 0.000000e+00 0.000000e+00
    outer loop
      vertex 3.150415e+01 8.000000e+00 2.626119e+01
      vertex 3.150415e+01 1.000000e+01 3.450000e+01
      vertex 3.150415e+01 8.000000e+00 4.563060e+01
    endloop
  endfacet
  facet normal 1.000000e+00 -0.000000e+00 0.000000e+00
    outer loop
      vertex 3.150415e+01 8.000000e+00 4.563060e+01
      vertex 3.150415e+01 1.000000e+01 3.450000e+01
      vertex 3.150415e+01 1.000000e+01 4.563060e+01
    endloop
  endfacet
  facet normal 1.000000e+00 0.000000e+00 0.000000e+00
    outer loop
      vertex 3.150415e+01 8.000000e+00 6.500000e+01
      vertex 3.150415e+01 6.000000e+00 6.500000e+01
      vertex 3.150415e+01 8.000000e+00 4.563060e+01
    endloop
  endfacet
  facet normal 1.000000e+00 0.000000e+00 0.000000e+00
    outer loop
      vertex 3.150415e+01 8.000000e+00 4.563060e+01
      vertex 3.150415e+01 6.000000e+00 6.500000e+01
      vertex 3.150415e+01 6.000000e+00 4.563060e+01
    endloop
  endfacet
  facet normal 1.000000e+00 0.000000e+00 0.000000e+00
    outer loop
      vertex 3.150415e+01 1.000000e+01 6.500000e+01
      vertex 3.150415e+01 8.000000e+00 6.500000e+01
      vertex 3.150415e+01 1.000000e+01 4.563060e+01
    endloop
  endfacet
  facet normal 1.000000e+00 0.000000e+00 0.000000e+00
    outer loop
      vertex 3.150415e+01 1.000000e+01 4.563060e+01
      vertex 3.150415e+01 8.000000e+00 6.500000e+01
      vertex 3.150415e+01 8.000000e+00 4.563060e+01
    endloop
  endfacet
  facet normal -0.000000e+00 1.000000e+00 -0.000000e+00
    outer loop
      vertex -3.078076e+01 1.000000e+01 2.396689e+01
      vertex -3.131902e+01 1.000000e+01 2.505837e+01
      vertex -2.414038e+01 1.000000e+01 1.448345e+01
    endloop
  endfacet
  facet normal 0.000000e+00 1.000000e+00 0.000000e+00
    outer loop
      vertex -3.150415e+01 1.000000e+01 3.450000e+01
      vertex -2.414038e+01 1.000000e+01 1.448345e+01
      vertex -3.131902e+01 1.000000e+01 2.505837e+01
    endloop
  endfacet
  facet normal 0.000000e+00 1.000000e+00 0.000000e+00
    outer loop
      vertex -1.750000e+01 1.000000e+01 5.000000e+00
      vertex -2.414038e+01 1.000000e+01 1.448345e+01
      vertex -3.150415e+01 1.000000e+01 3.450000e+01
    endloop
  endfacet
  facet normal 0.000000e+00 1.000000e+00 -0.000000e+00
    outer loop
      vertex 1.750000e+01 1.000000e+01 5.000000e+00
      vertex 0.000000e+00 1.000000e+01 3.450000e+01
      vertex 2.414038e+01 1.000000e+01 1.448345e+01
    endloop
  endfacet
  facet normal 0.000000e+00 1.000000e+00 0.000000e+00
    outer loop
      vertex 3.078076e+01 1.000000e+01 2.396689e+01
      vertex 2.414038e+01 1.000000e+01 1.448345e+01
      vertex 0.000000e+00 1.000000e+01 3.450000e+01
    endloop
  endfacet
  facet normal 0.000000e+00 1.000000e+00 -0.000000e+00
    outer loop
      vertex 3.150415e+01 1.000000e+01 4.563060e+01
      vertex 3.130838e+01 1.000000e+01 6.623607e+01
      vertex 3.150415e+01 1.000000e+01 6.500000e+01
    endloop
  endfacet
  facet normal 0.000000e+00 1.000000e+00 0.000000e+00
    outer loop
      vertex 1.375208e+01 1.000000e+01 6.900000e+01
      vertex 0.000000e+00 1.000000e+01 3.450000e+01
      vertex 0.000000e+00 1.000000e+01 6.900000e+01
    endloop
  endfacet
  facet normal 0.000000e+00 1.000000e+00 0.000000e+00
    outer loop
      vertex -3.130838e+01 1.000000e+01 6.623607e+01
      vertex -3.150415e+01 1.000000e+01 4.563060e+01
      vertex -3.150415e+01 1.000000e+01 6.500000e+01
    endloop
  endfacet
  facet normal 0.000000e+00 1.000000e+00 0.000000e+00
    outer loop
      vertex -1.750000e+01 1.000000e+01 5.000000e+00
      vertex -1.776357e-15 1.000000e+01 0.000000e+00
      vertex -1.750000e+01 1.000000e+01 0.000000e+00
    endloop
  endfacet
  facet normal 0.000000e+00 1.000000e+00 0.000000e+00
    outer loop
      vertex -3.150415e+01 1.000000e+01 3.450000e+01
      vertex -3.131902e+01 1.000000e+01 2.505837e+01
      vertex -3.150415e+01 1.000000e+01 2.626119e+01
    endloop
  endfacet
  facet normal 0.000000e+00 1.000000e+00 -0.000000e+00
    outer loop
      vertex -1.776357e-15 1.000000e+01 0.000000e+00
      vertex -1.750000e+01 1.000000e+01 5.000000e+00
      vertex 0.000000e+00 1.000000e+01 3.450000e+01
    endloop
  endfacet
  facet normal 0.000000e+00 1.000000e+00 0.000000e+00
    outer loop
      vertex 0.000000e+00 1.000000e+01 3.450000e+01
      vertex -1.750000e+01 1.000000e+01 5.000000e+00
      vertex -3.150415e+01 1.000000e+01 3.450000e+01
    endloop
  endfacet
  facet normal -0.000000e+00 1.000000e+00 0.000000e+00
    outer loop
      vertex 0.000000e+00 1.000000e+01 3.450000e+01
      vertex 3.150415e+01 1.000000e+01 3.450000e+01
      vertex 3.150415e+01 1.000000e+01 2.626119e+01
    endloop
  endfacet
  facet normal 0.000000e+00 1.000000e+00 0.000000e+00
    outer loop
      vertex 0.000000e+00 1.000000e+01 3.450000e+01
      vertex 3.150415e+01 1.000000e+01 2.626119e+01
      vertex 3.131902e+01 1.000000e+01 2.505837e+01
    endloop
  endfacet
  facet normal 0.000000e+00 1.000000e+00 0.000000e+00
    outer loop
      vertex 0.000000e+00 1.000000e+01 3.450000e+01
      vertex 3.131902e+01 1.000000e+01 2.505837e+01
      vertex 3.078076e+01 1.000000e+01 2.396689e+01
    endloop
  endfacet
  facet normal 0.000000e+00 1.000000e+00 0.000000e+00
    outer loop
      vertex 2.750415e+01 1.000000e+01 6.900000e+01
      vertex 2.874022e+01 1.000000e+01 6.880423e+01
      vertex 2.985529e+01 1.000000e+01 6.823607e+01
    endloop
  endfacet
  facet normal 0.000000e+00 1.000000e+00 0.000000e+00
    outer loop
      vertex 2.750415e+01 1.000000e+01 6.900000e+01
      vertex 2.985529e+01 1.000000e+01 6.823607e+01
      vertex 3.033258e+01 1.000000e+01 6.782843e+01
    endloop
  endfacet
  facet normal 0.000000e+00 1.000000e+00 0.000000e+00
    outer loop
      vertex 2.750415e+01 1.000000e+01 6.900000e+01
      vertex 3.033258e+01 1.000000e+01 6.782843e+01
      vertex 3.074022e+01 1.000000e+01 6.735114e+01
    endloop
  endfacet
  facet normal 0.000000e+00 1.000000e+00 0.000000e+00
    outer loop
      vertex 2.750415e+01 1.000000e+01 6.900000e+01
      vertex 3.074022e+01 1.000000e+01 6.735114e+01
      vertex 3.130838e+01 1.000000e+01 6.623607e+01
    endloop
  endfacet
  facet normal 0.000000e+00 1.000000e+00 0.000000e+00
    outer loop
      vertex 2.750415e+01 1.000000e+01 6.900000e+01
      vertex 3.130838e+01 1.000000e+01 6.623607e+01
      vertex 3.150415e+01 1.000000e+01 4.563060e+01
    endloop
  endfacet
  facet normal 0.000000e+00 1.000000e+00 0.000000e+00
    outer loop
      vertex 2.750415e+01 1.000000e+01 6.900000e+01
      vertex 3.150415e+01 1.000000e+01 4.563060e+01
      vertex 3.150415e+01 1.000000e+01 3.450000e+01
    endloop
  endfacet
  facet normal 0.000000e+00 1.000000e+00 0.000000e+00
    outer loop
      vertex 2.750415e+01 1.000000e+01 6.900000e+01
      vertex 3.150415e+01 1.000000e+01 3.450000e+01
      vertex 0.000000e+00 1.000000e+01 3.450000e+01
    endloop
  endfacet
  facet normal 0.000000e+00 1.000000e+00 0.000000e+00
    outer loop
      vertex 2.750415e+01 1.000000e+01 6.900000e+01
      vertex 0.000000e+00 1.000000e+01 3.450000e+01
      vertex 1.375208e+01 1.000000e+01 6.900000e+01
    endloop
  endfacet
  facet normal 0.000000e+00 1.000000e+00 0.000000e+00
    outer loop
      vertex -3.150415e+01 1.000000e+01 3.450000e+01
      vertex -3.150415e+01 1.000000e+01 4.563060e+01
      vertex -3.130838e+01 1.000000e+01 6.623607e+01
    endloop
  endfacet
  facet normal 0.000000e+00 1.000000e+00 0.000000e+00
    outer loop
      vertex -3.150415e+01 1.000000e+01 3.450000e+01
      vertex -3.130838e+01 1.000000e+01 6.623607e+01
      vertex -3.074022e+01 1.000000e+01 6.735114e+01
    endloop
  endfacet
  facet normal 0.000000e+00 1.000000e+00 0.000000e+00
    outer loop
      vertex -3.150415e+01 1.000000e+01 3.450000e+01
      vertex -3.074022e+01 1.000000e+01 6.735114e+01
      vertex -3.033258e+01 1.000000e+01 6.782843e+01
    endloop
  endfacet
  facet normal 0.000000e+00 1.000000e+00 0.000000e+00
    outer loop
      vertex -3.150415e+01 1.000000e+01 3.450000e+01
      vertex -3.033258e+01 1.000000e+01 6.782843e+01
      vertex -2.985529e+01 1.000000e+01 6.823607e+01
    endloop
  endfacet
  facet normal 0.000000e+00 1.000000e+00 0.000000e+00
    outer loop
      vertex -3.150415e+01 1.000000e+01 3.450000e+01
      vertex -2.985529e+01 1.000000e+01 6.823607e+01
      vertex -2.874022e+01 1.000000e+01 6.880423e+01
    endloop
  endfacet
  facet normal 0.000000e+00 1.000000e+00 0.000000e+00
    outer loop
      vertex -3.150415e+01 1.000000e+01 3.450000e+01
      vertex -2.874022e+01 1.000000e+01 6.880423e+01
      vertex -2.750415e+01 1.000000e+01 6.900000e+01
    endloop
  endfacet
  facet normal 0.000000e+00 1.000000e+00 0.000000e+00
    outer loop
      vertex -3.150415e+01 1.000000e+01 3.450000e+01
      vertex -2.750415e+01 1.000000e+01 6.900000e+01
      vertex -1.375208e+01 1.000000e+01 6.900000e+01
    endloop
  endfacet
  facet normal 0.000000e+00 1.000000e+00 0.000000e+00
    outer loop
      vertex -3.150415e+01 1.000000e+01 3.450000e+01
      vertex -1.375208e+01 1.000000e+01 6.900000e+01
      vertex 0.000000e+00 1.000000e+01 6.900000e+01
    endloop
  endfacet
  facet normal 0.000000e+00 1.000000e+00 0.000000e+00
    outer loop
      vertex -3.150415e+01 1.000000e+01 3.450000e+01
      vertex 0.000000e+00 1.000000e+01 6.900000e+01
      vertex 0.000000e+00 1.000000e+01 3.450000e+01
    endloop
  endfacet
  facet normal 0.000000e+00 1.000000e+00 0.000000e+00
    outer loop
      vertex 0.000000e+00 1.000000e+01 3.450000e+01
      vertex 1.750000e+01 1.000000e+01 5.000000e+00
      vertex 1.750000e+01 1.000000e+01 0.000000e+00
    endloop
  endfacet
  facet normal 0.000000e+00 1.000000e+00 0.000000e+00
    outer loop
      vertex 0.000000e+00 1.000000e+01 3.450000e+01
      vertex 1.750000e+01 1.000000e+01 0.000000e+00
      vertex -1.776357e-15 1.000000e+01 0.000000e+00
    endloop
  endfacet
  facet normal 0.000000e+00 -1.000000e+00 0.000000e+00
    outer loop
      vertex -2.414038e+01 6.000000e+00 1.448345e+01
      vertex -3.131902e+01 6.000000e+00 2.505837e+01
      vertex -3.078076e+01 6.000000e+00 2.396689e+01
    endloop
  endfacet
  facet normal 0.000000e+00 -1.000000e+00 0.000000e+00
    outer loop
      vertex 1.375208e+01 6.000000e+00 6.900000e+01
      vertex 2.874022e+01 6.000000e+00 6.880423e+01
      vertex 2.750415e+01 6.000000e+00 6.900000e+01
    endloop
  endfacet
  facet normal 0.000000e+00 -1.000000e+00 -0.000000e+00
    outer loop
      vertex 0.000000e+00 6.000000e+00 3.914222e+01
      vertex -1.776357e-15 6.000000e+00 2.800000e+01
      vertex 2.050000e+01 6.000000e+00 2.800000e+01
    endloop
  endfacet
  facet normal 0.000000e+00 -1.000000e+00 0.000000e+00
    outer loop
      vertex 3.131902e+01 6.000000e+00 2.505837e+01
      vertex 2.414038e+01 6.000000e+00 1.448345e+01
      vertex 3.078076e+01 6.000000e+00 2.396689e+01
    endloop
  endfacet
  facet normal 0.000000e+00 -1.000000e+00 0.000000e+00
    outer loop
      vertex -3.150415e+01 6.000000e+00 2.626119e+01
      vertex -2.050000e+01 6.000000e+00 2.800000e+01
      vertex -3.150415e+01 6.000000e+00 3.914222e+01
    endloop
  endfacet
  facet normal 0.000000e+00 -1.000000e+00 0.000000e+00
    outer loop
      vertex -3.150415e+01 6.000000e+00 3.914222e+01
      vertex -2.050000e+01 6.000000e+00 2.800000e+01
      vertex -1.776357e-15 6.000000e+00 2.800000e+01
    endloop
  endfacet
  facet normal 0.000000e+00 -1.000000e+00 0.000000e+00
    outer loop
      vertex -3.150415e+01 6.000000e+00 3.914222e+01
      vertex -1.776357e-15 6.000000e+00 2.800000e+01
      vertex 0.000000e+00 6.000000e+00 3.914222e+01
    endloop
  endfacet
  facet normal -0.000000e+00 -1.000000e+00 0.000000e+00
    outer loop
      vertex 2.414038e+01 6.000000e+00 1.448345e+01
      vertex 3.131902e+01 6.000000e+00 2.505837e+01
      vertex 2.050000e+01 6.000000e+00 9.284444e+00
    endloop
  endfacet
  facet normal 0.000000e+00 -1.000000e+00 0.000000e+00
    outer loop
      vertex 2.050000e+01 6.000000e+00 9.284444e+00
      vertex 3.131902e+01 6.000000e+00 2.505837e+01
      vertex 3.150415e+01 6.000000e+00 2.626119e+01
    endloop
  endfacet
  facet normal 0.000000e+00 -1.000000e+00 0.000000e+00
    outer loop
      vertex 2.050000e+01 6.000000e+00 9.284444e+00
      vertex 3.150415e+01 6.000000e+00 2.626119e+01
      vertex 2.050000e+01 6.000000e+00 2.800000e+01
    endloop
  endfacet
  facet normal 0.000000e+00 -1.000000e+00 0.000000e+00
    outer loop
      vertex 2.050000e+01 6.000000e+00 2.800000e+01
      vertex 3.150415e+01 6.000000e+00 2.626119e+01
      vertex 3.150415e+01 6.000000e+00 3.914222e+01
    endloop
  endfacet
  facet normal 0.000000e+00 -1.000000e+00 0.000000e+00
    outer loop
      vertex 2.050000e+01 6.000000e+00 2.800000e+01
      vertex 3.150415e+01 6.000000e+00 3.914222e+01
      vertex 0.000000e+00 6.000000e+00 3.914222e+01
    endloop
  endfacet
  facet normal 0.000000e+00 -1.000000e+00 0.000000e+00
    outer loop
      vertex 0.000000e+00 6.000000e+00 3.914222e+01
      vertex 0.000000e+00 6.000000e+00 6.900000e+01
      vertex -1.375208e+01 6.000000e+00 6.900000e+01
    endloop
  endfacet
  facet normal 0.000000e+00 -1.000000e+00 0.000000e+00
    outer loop
      vertex 0.000000e+00 6.000000e+00 3.914222e+01
      vertex -1.375208e+01 6.000000e+00 6.900000e+01
      vertex -2.750415e+01 6.000000e+00 6.900000e+01
    endloop
  endfacet
  facet normal 0.000000e+00 -1.000000e+00 0.000000e+00
    outer loop
      vertex 0.000000e+00 6.000000e+00 3.914222e+01
      vertex -2.750415e+01 6.000000e+00 6.900000e+01
      vertex -2.874022e+01 6.000000e+00 6.880423e+01
    endloop
  endfacet
  facet normal 0.000000e+00 -1.000000e+00 0.000000e+00
    outer loop
      vertex 0.000000e+00 6.000000e+00 3.914222e+01
      vertex -2.874022e+01 6.000000e+00 6.880423e+01
      vertex -2.985529e+01 6.000000e+00 6.823607e+01
    endloop
  endfacet
  facet normal 0.000000e+00 -1.000000e+00 0.000000e+00
    outer loop
      vertex 0.000000e+00 6.000000e+00 3.914222e+01
      vertex -2.985529e+01 6.000000e+00 6.823607e+01
      vertex -3.033258e+01 6.000000e+00 6.782843e+01
    endloop
  endfacet
  facet normal 0.000000e+00 -1.000000e+00 0.000000e+00
    outer loop
      vertex 0.000000e+00 6.000000e+00 3.914222e+01
      vertex -3.033258e+01 6.000000e+00 6.782843e+01
      vertex -3.074022e+01 6.000000e+00 6.735114e+01
    endloop
  endfacet
  facet normal 0.000000e+00 -1.000000e+00 0.000000e+00
    outer loop
      vertex 0.000000e+00 6.000000e+00 3.914222e+01
      vertex -3.074022e+01 6.000000e+00 6.735114e+01
      vertex -3.130838e+01 6.000000e+00 6.623607e+01
    endloop
  endfacet
  facet normal 0.000000e+00 -1.000000e+00 0.000000e+00
    outer loop
      vertex 0.000000e+00 6.000000e+00 3.914222e+01
      vertex -3.130838e+01 6.000000e+00 6.623607e+01
      vertex -3.150415e+01 6.000000e+00 6.500000e+01
    endloop
  endfacet
  facet normal 0.000000e+00 -1.000000e+00 0.000000e+00
    outer loop
      vertex 0.000000e+00 6.000000e+00 3.914222e+01
      vertex -3.150415e+01 6.000000e+00 6.500000e+01
      vertex -3.150415e+01 6.000000e+00 4.563060e+01
    endloop
  endfacet
  facet normal 0.000000e+00 -1.000000e+00 0.000000e+00
    outer loop
      vertex 0.000000e+00 6.000000e+00 3.914222e+01
      vertex -3.150415e+01 6.000000e+00 4.563060e+01
      vertex -3.150415e+01 6.000000e+00 3.914222e+01
    endloop
  endfacet
  facet normal 0.000000e+00 -1.000000e+00 0.000000e+00
    outer loop
      vertex -2.050000e+01 6.000000e+00 9.284444e+00
      vertex -2.050000e+01 6.000000e+00 2.800000e+01
      vertex -3.150415e+01 6.000000e+00 2.626119e+01
    endloop
  endfacet
  facet normal 0.000000e+00 -1.000000e+00 0.000000e+00
    outer loop
      vertex -2.050000e+01 6.000000e+00 9.284444e+00
      vertex -3.150415e+01 6.000000e+00 2.626119e+01
      vertex -3.131902e+01 6.000000e+00 2.505837e+01
    endloop
  endfacet
  facet normal 0.000000e+00 -1.000000e+00 0.000000e+00
    outer loop
      vertex -2.050000e+01 6.000000e+00 9.284444e+00
      vertex -3.131902e+01 6.000000e+00 2.505837e+01
      vertex -2.414038e+01 6.000000e+00 1.448345e+01
    endloop
  endfacet
  facet normal 0.000000e+00 -1.000000e+00 0.000000e+00
    outer loop
      vertex 0.000000e+00 6.000000e+00 3.914222e+01
      vertex 3.150415e+01 6.000000e+00 3.914222e+01
      vertex 3.150415e+01 6.000000e+00 4.563060e+01
    endloop
  endfacet
  facet normal 0.000000e+00 -1.000000e+00 0.000000e+00
    outer loop
      vertex 0.000000e+00 6.000000e+00 3.914222e+01
      vertex 3.150415e+01 6.000000e+00 4.563060e+01
      vertex 3.150415e+01 6.000000e+00 6.500000e+01
    endloop
  endfacet
  facet normal 0.000000e+00 -1.000000e+00 0.000000e+00
    outer loop
      vertex 0.000000e+00 6.000000e+00 3.914222e+01
      vertex 3.150415e+01 6.000000e+00 6.500000e+01
      vertex 3.130838e+01 6.000000e+00 6.623607e+01
    endloop
  endfacet
  facet normal 0.000000e+00 -1.000000e+00 0.000000e+00
    outer loop
      vertex 0.000000e+00 6.000000e+00 3.914222e+01
      vertex 3.130838e+01 6.000000e+00 6.623607e+01
      vertex 3.074022e+01 6.000000e+00 6.735114e+01
    endloop
  endfacet
  facet normal 0.000000e+00 -1.000000e+00 0.000000e+00
    outer loop
      vertex 0.000000e+00 6.000000e+00 3.914222e+01
      vertex 3.074022e+01 6.000000e+00 6.735114e+01
      vertex 3.033258e+01 6.000000e+00 6.782843e+01
    endloop
  endfacet
  facet normal 0.000000e+00 -1.000000e+00 0.000000e+00
    outer loop
      vertex 0.000000e+00 6.000000e+00 3.914222e+01
      vertex 3.033258e+01 6.000000e+00 6.782843e+01
      vertex 2.985529e+01 6.000000e+00 6.823607e+01
    endloop
  endfacet
  facet normal 0.000000e+00 -1.000000e+00 0.000000e+00
    outer loop
      vertex 0.000000e+00 6.000000e+00 3.914222e+01
      vertex 2.985529e+01 6.000000e+00 6.823607e+01
      vertex 2.874022e+01 6.000000e+00 6.880423e+01
    endloop
  endfacet
  facet normal 0.000000e+00 -1.000000e+00 0.000000e+00
    outer loop
      vertex 0.000000e+00 6.000000e+00 3.914222e+01
      vertex 2.874022e+01 6.000000e+00 6.880423e+01
      vertex 1.375208e+01 6.000000e+00 6.900000e+01
    endloop
  endfacet
  facet normal 0.000000e+00 -1.000000e+00 0.000000e+00
    outer loop
      vertex 0.000000e+00 6.000000e+00 3.914222e+01
      vertex 1.375208e+01 6.000000e+00 6.900000e+01
      vertex 0.000000e+00 6.000000e+00 6.900000e+01
    endloop
  endfacet
endsolid
